<svg width="34" height="29" viewBox="0 0 34 29" fill="none" xmlns="http://www.w3.org/2000/svg">
<path d="M1.93338 8.76559H17.4004V1.91106C17.4005 1.53307 17.5139 1.16358 17.7264 0.84932C17.9388 0.535056 18.2408 0.290121 18.594 0.14548C18.9472 0.000839369 19.3359 -0.037014 19.7109 0.0367068C20.0858 0.110427 20.4303 0.292412 20.7007 0.559653L33.4339 13.1486C33.7964 13.507 34 13.9931 34 14.5C34 15.0069 33.7964 15.493 33.4339 15.8514L20.7007 28.4403C20.4303 28.7076 20.0858 28.8896 19.7109 28.9633C19.3359 29.037 18.9472 28.9992 18.594 28.8545C18.2408 28.7099 17.9388 28.4649 17.7264 28.1507C17.5139 27.8364 17.4005 27.4669 17.4004 27.0889V20.2344H1.93338C1.42062 20.2344 0.928853 20.033 0.566274 19.6746C0.203695 19.3161 0 18.8299 0 18.3229V10.6771C0 10.1701 0.203695 9.68392 0.566274 9.32545C0.928853 8.96698 1.42062 8.76559 1.93338 8.76559Z" fill="#F23737"/>
</svg>
