<svg width="573" height="300" viewBox="0 0 573 300" fill="none" xmlns="http://www.w3.org/2000/svg">
<path d="M226.636 295.667L226.612 295.667L226.588 295.667L86.2678 296.889L18.2649 295.925C10.1658 295.811 3.78734 288.528 4.1516 280.127C4.36523 275.2 4.37258 269.901 3.8854 265.22C2.61492 253.011 3.69851 217.842 3.87527 212.456C3.89271 211.925 3.88714 211.422 3.86114 210.899C3.64535 206.556 2.5 182.703 2.5 165.886C2.5 156.796 2.83474 147.186 3.17799 137.331L3.1979 136.76C3.5474 126.722 3.89882 116.445 3.89882 106.314C3.89882 96.1937 3.54812 81.1918 3.19853 68.0597C3.08759 63.8926 2.97701 59.9205 2.87763 56.351C2.66257 48.6263 2.5 42.7871 2.5 40.9369V16.4948C2.5 9.07697 8.48538 3.05096 15.9044 2.99841L85.6061 2.5047C85.9853 2.50201 86.3617 2.51476 86.7496 2.54193C90.0625 2.77402 105.352 3.7575 130.063 4.02735C149.131 4.23556 257.242 3.45069 329.026 2.92955C362.578 2.68597 388.194 2.5 393.07 2.5C399.593 2.5 420.18 2.89534 442.381 3.32168C471.803 3.8867 504.061 4.50618 510.176 4.33198C517.012 4.13724 540.601 3.69284 556.76 3.39706C564.179 3.26127 570.282 9.13459 570.386 16.5287C570.546 27.9285 570.605 41.7028 570.101 46.155C569.151 54.56 568.217 87.0904 569.158 101.89C570.087 116.505 571.016 135.053 570.087 162.134C569.214 187.591 567.524 240.623 567.311 247.291C567.294 247.832 567.301 248.366 567.331 248.904L569.173 281.903C569.597 289.487 563.683 295.927 556.09 296.15L510.068 297.5H397.745H397.732L226.636 295.667Z" stroke="#2D2E38" stroke-width="5"/>
</svg>
