<svg width="260" height="120" viewBox="0 0 260 120" fill="none" xmlns="http://www.w3.org/2000/svg">
<path d="M104.225 102.938L104.208 102.938L104.19 102.938L44.9361 103.313L18.6054 103.042C15.1605 103.006 12.2256 99.665 11.5655 95.0588C11.3516 93.566 11.3031 90.6159 11.3392 87.4938C11.3746 84.4429 11.4861 81.4425 11.5473 79.9705C11.5772 79.2505 11.569 78.5395 11.5221 77.8198C11.3694 75.4763 11 69.3333 11 64.8717C11 62.1312 11.1394 59.2242 11.2853 56.184L11.2925 56.0327C11.4398 52.9609 11.5908 49.7638 11.5908 46.6028C11.5908 43.4583 11.4412 38.8229 11.2937 34.8005C11.2451 33.4732 11.1971 32.2223 11.1545 31.111C11.0656 28.7932 11 27.0827 11 26.554C11 21.0895 15.4149 16.6518 20.8793 16.6237L44.4556 16.5025C44.7305 16.5011 45.0102 16.508 45.2961 16.5221C47.0642 16.6091 53.4214 16.8891 63.4225 16.9684C71.4811 17.0323 117.207 16.7912 147.525 16.6314C161.669 16.5569 172.46 16.5 174.508 16.5C177.226 16.5 185.873 16.6204 195.223 16.7506C207.686 16.9242 221.399 17.1152 223.989 17.0616C225.924 17.0216 231.059 16.9468 236.299 16.8745C239.553 16.8296 242.746 18.1196 244.968 20.1976C247.166 22.2533 248.306 24.9553 247.855 27.8557C247.63 29.2962 247.432 32.5593 247.334 35.9079C247.235 39.2818 247.23 43.0123 247.441 45.4157C247.829 49.8458 248.215 55.441 247.828 63.6295C247.484 70.9045 246.841 85.5148 246.682 89.1362C246.653 89.7911 246.664 90.4426 246.715 91.0946C247.212 97.5574 242.177 103.111 235.697 103.249L223.91 103.5H176.487H176.478L104.225 102.938Z" fill="white" stroke="#2D2E38" stroke-width="5"/>
</svg>
