<svg width="260" height="120" viewBox="0 0 260 120" fill="none" xmlns="http://www.w3.org/2000/svg">
<path d="M107.725 106.938L107.708 106.938L107.69 106.938L48.4361 107.313L22.1054 107.042C18.6605 107.006 15.7256 103.665 15.0655 99.0588C14.8516 97.566 14.8031 94.6159 14.8392 91.4938C14.8746 88.4429 14.9861 85.4425 15.0473 83.9705C15.0772 83.2505 15.069 82.5395 15.0221 81.8198C14.8694 79.4763 14.5 73.3333 14.5 68.8717C14.5 66.1312 14.6394 63.2242 14.7853 60.184L14.7925 60.0327C14.9398 56.9609 15.0908 53.7638 15.0908 50.6028C15.0908 47.4583 14.9412 42.8229 14.7937 38.8005C14.7451 37.4732 14.6971 36.2223 14.6545 35.111C14.5656 32.7932 14.5 31.0827 14.5 30.554C14.5 25.0895 18.9149 20.6518 24.3793 20.6237L47.9556 20.5025C48.2305 20.5011 48.5102 20.508 48.7961 20.5221C50.5642 20.6091 56.9214 20.8891 66.9225 20.9684C74.9811 21.0323 120.707 20.7912 151.025 20.6314C165.169 20.5569 175.96 20.5 178.008 20.5C180.726 20.5 189.373 20.6204 198.723 20.7506C211.186 20.9242 224.899 21.1152 227.489 21.0616C229.424 21.0216 234.559 20.9468 239.799 20.8745C243.053 20.8296 246.246 22.1196 248.468 24.1976C250.666 26.2533 251.806 28.9553 251.355 31.8557C251.13 33.2962 250.932 36.5593 250.834 39.9079C250.735 43.2818 250.73 47.0123 250.941 49.4157C251.329 53.8458 251.715 59.441 251.328 67.6295C250.984 74.9045 250.341 89.5148 250.182 93.1362C250.153 93.7911 250.164 94.4426 250.215 95.0946C250.712 101.557 245.677 107.111 239.197 107.249L227.41 107.5H179.987H179.978L107.725 106.938Z" fill="white" stroke="#2D2E38" stroke-width="5"/>
<path d="M100.725 98.938L100.708 98.9378L100.69 98.9379L41.4361 99.3125L15.1054 99.0417C11.6605 99.0063 8.72563 95.665 8.06549 91.0588C7.85155 89.566 7.80308 86.6159 7.83924 83.4938C7.87457 80.4429 7.9861 77.4425 8.04731 75.9705C8.07724 75.2505 8.06902 74.5395 8.02213 73.8198C7.86944 71.4763 7.5 65.3333 7.5 60.8717C7.5 58.1312 7.63943 55.2242 7.78526 52.184L7.79252 52.0327C7.93982 48.9609 8.09078 45.7638 8.09078 42.6028C8.09078 39.4583 7.94118 34.8229 7.79371 30.8005C7.74505 29.4732 7.69708 28.2223 7.65447 27.111C7.56559 24.7932 7.5 23.0827 7.5 22.554C7.5 17.0895 11.9149 12.6518 17.3793 12.6237L40.9556 12.5025C41.2305 12.5011 41.5102 12.508 41.7961 12.5221C43.5642 12.6091 49.9214 12.8891 59.9225 12.9684C67.9811 13.0323 113.707 12.7912 144.025 12.6314C158.169 12.5569 168.96 12.5 171.008 12.5C173.726 12.5 182.373 12.6204 191.723 12.7506C204.186 12.9242 217.899 13.1152 220.489 13.0616C222.424 13.0216 227.559 12.9468 232.799 12.8745C236.053 12.8296 239.246 14.1196 241.468 16.1976C243.666 18.2533 244.806 20.9553 244.355 23.8557C244.13 25.2962 243.932 28.5593 243.834 31.9079C243.735 35.2818 243.73 39.0123 243.941 41.4157C244.329 45.8458 244.715 51.441 244.328 59.6295C243.984 66.9045 243.341 81.5148 243.182 85.1362C243.153 85.7911 243.164 86.4426 243.215 87.0946C243.712 93.5574 238.677 99.1109 232.197 99.2489L220.41 99.5H172.987H172.978L100.725 98.938Z" fill="white" stroke="#2D2E38" stroke-width="5"/>
<path d="M244.628 34.1785C246.302 35.852 248.104 37.3331 249.761 38.9904" stroke="#2D2E38" stroke-width="3" stroke-linecap="round"/>
<path d="M246.232 48.2936C246.851 48.3709 248.134 50.1184 248.638 50.557C249.813 51.5788 250.682 53.022 251.365 54.3887" stroke="#2D2E38" stroke-width="3" stroke-linecap="round"/>
<path d="M243.666 64.6543C244.995 66.1313 246.073 67.8808 247.266 69.4663C248.573 71.2025 250.824 73.0771 251.365 75.2406" stroke="#2D2E38" stroke-width="3" stroke-linecap="round"/>
<path d="M243.345 83.2606C244.986 85.592 247.875 87.5085 249.12 89.9973" stroke="#2D2E38" stroke-width="3" stroke-linecap="round"/>
<path d="M235.325 98.6588C238.166 100.163 240.096 102.297 242.062 104.754" stroke="#2D2E38" stroke-width="3" stroke-linecap="round"/>
<path d="M219.285 101.867C219.856 101.938 220.908 103.407 221.371 103.809C222.199 104.53 223.429 105.636 223.777 106.679" stroke="#2D2E38" stroke-width="3" stroke-linecap="round"/>
<path d="M212.549 103.792C212.647 104.677 214.329 106.096 215.115 106.358" stroke="#2D2E38" stroke-width="3" stroke-linecap="round"/>
<path d="M195.226 102.508C195.338 103.519 197.396 105.321 198.113 106.037" stroke="#2D2E38" stroke-width="3" stroke-linecap="round"/>
<path d="M166.675 101.546C167.828 102.482 170.845 104.659 170.845 106.358" stroke="#2D2E38" stroke-width="3" stroke-linecap="round"/>
<path d="M140.369 101.867C141.308 103.651 143.031 104.945 143.898 106.679" stroke="#2D2E38" stroke-width="3" stroke-linecap="round"/>
<path d="M125.292 102.188C125.362 102.886 128.365 107.32 128.179 107.32" stroke="#2D2E38" stroke-width="3" stroke-linecap="round"/>
<path d="M109.893 102.508C110.055 103.317 111.777 106.016 112.46 106.358" stroke="#2D2E38" stroke-width="3" stroke-linecap="round"/>
<path d="M85.5127 102.508C86.1804 103.844 86.9495 105.145 87.7583 106.358" stroke="#2D2E38" stroke-width="3" stroke-linecap="round"/>
<path d="M70.1145 102.829C70.2127 103.811 71.7756 104.64 71.3977 105.396" stroke="#2D2E38" stroke-width="3" stroke-linecap="round"/>
<path d="M48.3003 101.225C51.0752 101.982 52.8255 106.679 55.9994 106.679" stroke="#2D2E38" stroke-width="3" stroke-linecap="round"/>
<path d="M31.298 101.867C32.0184 101.947 32.7226 102.769 33.294 103.15C34.7042 104.09 36.1683 104.942 37.5714 105.895C38.2083 106.327 38.6831 106.897 39.3179 107.32" stroke="#2D2E38" stroke-width="3" stroke-linecap="round"/>
</svg>
