<svg width="88" height="87" viewBox="0 0 88 87" fill="none" xmlns="http://www.w3.org/2000/svg">
<path d="M43.4571 6C43.4571 13.0835 43.4571 11.6516 43.4571 18.8049M45.8095 81C45.8095 73.9165 44.9048 74.4338 44.9048 67.2805M6 43.7698C13.3079 43.7698 14.0011 43.7698 21.381 43.7698M82 41.9712C74.6921 41.9712 77.2868 41.9712 69.907 41.9712M16.948 16.8991C22.0898 22.0097 21.6171 20.0463 26.8095 25.2073M71.8816 68.9935C66.7398 63.8828 67.2877 65.1244 62.0952 59.9634M17.4952 70.2914C22.637 65.1808 21.6171 66.9537 26.8095 61.7927M69.907 15.6907C64.7652 20.8013 67.2877 19.1317 62.0952 24.2927" stroke="#2D2E38" stroke-width="12" stroke-linecap="round"/>
</svg>
