<svg width="491" height="21" viewBox="0 0 491 21" fill="none" xmlns="http://www.w3.org/2000/svg">
<path d="M194.392 18.3717L194.388 18.3717L74.6182 18.4572L74.6135 18.4572L5.0706 18.3764C5.06611 18.3681 5.06154 18.3595 5.05688 18.3509C4.98541 18.2179 4.8952 18.0516 4.7961 17.8843C4.69761 17.718 4.56981 17.5154 4.41344 17.3109C4.30788 17.1729 4.17019 17.0085 3.99694 16.8426C3.76756 16.3149 3.62358 15.6405 3.5531 14.7792C3.48881 13.9937 3.49293 13.2079 3.49752 12.3331C3.49872 12.1034 3.49996 11.8676 3.5 11.624C3.5014 11.6148 3.51081 11.5441 3.56243 11.3865C3.63446 11.1665 3.73675 10.9241 3.89812 10.544C3.91102 10.5136 3.92465 10.4817 3.9389 10.4483C4.20664 9.82146 4.69376 8.68102 4.69376 7.44195C4.69376 6.27403 4.25103 4.84827 3.97478 3.99709C3.87821 3.69953 3.76921 3.37811 3.67987 3.11464C3.63243 2.97475 3.59054 2.85121 3.55898 2.75624C3.55312 2.7386 3.54753 2.72168 3.54219 2.70548C3.59794 2.60739 3.70337 2.5412 3.82426 2.54113L74.5615 2.50003C74.5933 2.50001 74.62 2.50008 74.6506 2.50027C75.5745 2.50595 88.9825 2.58629 112.018 2.60692C128.275 2.62149 220.37 2.56664 281.626 2.53016C310.328 2.51306 332.259 2.5 336.447 2.5C342.109 2.5 359.799 2.52791 378.809 2.5579C403.826 2.59737 431.13 2.64045 436.331 2.6283C443.955 2.61049 475.889 2.56298 486.331 2.54763C486.422 2.54749 486.633 2.5761 486.922 2.68247C486.913 2.69834 486.904 2.71407 486.895 2.72965C486.61 3.23591 486.383 3.8074 486.232 4.38985C485.981 5.35632 485.738 7.18695 486.875 8.653C487.226 9.10642 487.38 9.38089 487.443 9.59999C487.481 9.73539 487.523 9.9539 487.34 10.391C486.758 11.7825 485.773 14.2929 485.265 15.5948C484.912 16.4991 484.884 17.4808 485.16 18.3825L436.325 18.5H436.321H340.428H340.426L194.392 18.3717ZM3.4433 2.38027C3.44411 2.38136 3.44909 2.39916 3.45579 2.4304C3.44583 2.3948 3.44248 2.37918 3.4433 2.38027Z" fill="white" stroke="#2D2E38" stroke-width="5"/>
<path d="M9 9.84078C9 9.84078 32.0318 10.4264 62.6564 11.5975C93.2811 12.7686 97.0775 11.0119 121.881 11.0119C146.684 11.0119 189.711 9.8408 224.891 11.0119C260.072 12.1831 284.329 10.0327 322.586 9.25528C350.854 8.68091 358.526 9.25526 395.225 9.25527C431.924 9.25527 479 11.5975 479 11.5975" stroke="#F23737" stroke-width="5"/>
</svg>
