<svg width="689" height="166" viewBox="0 0 689 166" fill="none" xmlns="http://www.w3.org/2000/svg">
<path d="M272.497 162.486L272.486 162.486L272.475 162.486L103.727 163.162L103.714 163.162L18.3521 162.605C14.7468 162.582 11.7356 160.765 9.29161 157.74C6.82187 154.682 5.06617 150.529 4.12043 146.347C3.48922 143.555 3.36002 138.079 3.47002 132.383C3.57787 126.8 3.90383 121.348 4.07252 118.805C4.14773 117.672 4.12754 116.535 4.01037 115.403C3.59092 111.35 2.5 100.003 2.5 91.7902C2.5 86.8317 2.89789 81.5746 3.31268 76.0943L3.33388 75.8141C3.75339 70.2699 4.18201 64.5146 4.18201 58.8269C4.18201 53.165 3.75677 44.8113 3.33683 37.5522C3.19916 35.1723 3.06319 32.925 2.94216 30.9248C2.68817 26.727 2.5 23.617 2.5 22.6517V16.2884C2.5 8.84924 8.51785 2.81034 15.956 2.78609L103.422 2.501C103.598 2.50042 103.762 2.50289 103.938 2.50877C106.496 2.5945 125.182 3.18824 156.414 3.34518C179.328 3.46032 309.164 3.02653 395.476 2.73815C435.886 2.60314 466.756 2.5 472.644 2.5C480.58 2.5 505.45 2.72003 532.208 2.95675C567.497 3.26896 606.069 3.6102 613.405 3.51404C622.195 3.39882 653.947 3.1262 673.249 2.96451C680.498 2.90379 686.438 8.53922 686.494 15.6335C686.511 17.785 686.493 19.8293 686.421 21.5329C686.346 23.2997 686.219 24.5074 686.074 25.098C685.447 27.6481 684.882 33.4985 684.603 39.5462C684.321 45.6313 684.31 52.3341 684.904 56.6335C686.011 64.6441 687.112 74.767 686.009 89.5759C685.031 102.69 683.203 129.015 682.748 135.579C682.667 136.749 682.698 137.914 682.839 139.075L683.874 147.601C684.841 155.571 678.681 162.618 670.654 162.726L613.372 163.5H613.355H478.257H478.251L272.497 162.486Z" fill="white" stroke="#2D2E38" stroke-width="5"/>
</svg>
