<svg width="60" height="60" viewBox="0 0 60 60" fill="none" xmlns="http://www.w3.org/2000/svg">
<path d="M23.7799 57.1339L23.7335 57.133L23.6872 57.1337L9.04559 57.3772L6.60818 57.3113C4.58392 57.2565 2.77913 55.4625 2.64277 52.9597C2.52094 50.7235 2.61295 44.3872 2.63999 42.7432C2.64452 42.468 2.64333 42.1945 2.63635 41.9191C2.60404 40.6449 2.5 36.2954 2.5 33.1772C2.5 31.3734 2.53483 29.4636 2.57087 27.4873L2.57282 27.3801C2.60938 25.3745 2.64647 23.3054 2.64647 21.2627C2.64647 19.2263 2.60958 16.2154 2.57299 13.5904C2.56117 12.7423 2.54945 11.9381 2.53897 11.2192C2.51667 9.68934 2.5 8.54569 2.5 8.18737C2.5 5.08308 4.99425 2.55486 8.09826 2.51287L8.38869 2.50894C8.70896 2.50461 9.05544 2.52584 9.44735 2.56649C10.2522 2.64997 11.6587 2.76509 13.5699 2.80496C15.6014 2.84733 27.3316 2.68506 34.8497 2.58106C38.1971 2.53475 40.7095 2.5 41.1591 2.5C41.8045 2.5 43.9196 2.57765 46.2736 2.66407C46.6377 2.67744 47.0076 2.69102 47.3786 2.70455C49.9951 2.79999 52.8391 2.90158 53.5499 2.86291C55.6759 2.74723 57.5042 4.47921 57.4995 6.665C57.497 7.83366 57.4845 8.74197 57.461 9.13945C57.3584 10.8719 57.2603 17.4257 57.3603 20.4294C57.4571 23.3365 57.5536 27.0181 57.457 32.3991C57.3673 37.3963 57.1951 47.7036 57.1677 49.3478C57.1645 49.5417 57.1659 49.7267 57.1715 49.9168L57.2662 53.1565C57.3326 55.4271 55.5948 57.3408 53.3362 57.5H41.673L23.7799 57.1339Z" fill="white" stroke="#2D2E38" stroke-width="5"/>
</svg>
