<svg width="71" height="52" viewBox="0 0 71 52" fill="none" xmlns="http://www.w3.org/2000/svg">
<path d="M22.7865 30.9098C20.8823 24.902 19.7813 20.9888 18.998 18.0328C18.7076 16.9369 18.4574 15.9578 18.2233 15.0418C17.6592 12.8347 17.189 10.9948 16.4773 8.77438L16.432 8.63299L16.3662 8.49984C16.068 7.89547 15.592 7.2115 14.8849 6.78158L14.4061 6.49052H13.8459C13.4155 6.49052 13.0073 6.60449 12.7835 6.67205C12.5068 6.75561 12.2178 6.86293 11.9504 6.97057C11.4134 7.18673 10.8542 7.44856 10.45 7.65336L10.4263 7.66534L10.403 7.67795L7.3149 9.34682C7.22915 9.38961 6.97283 9.51838 6.74314 9.69294C6.5228 9.86039 5.82349 10.4444 5.82349 11.4891V11.7702L5.90094 12.0403C10.7967 29.1159 14.6031 41.0861 15.8175 44.0794L15.8404 44.1445C16.3082 45.4724 16.7355 46.685 17.3019 47.546C17.6316 48.0471 18.0547 48.5119 18.6315 48.864C19.2019 49.2122 19.8024 49.3766 20.3792 49.4545L20.4252 49.4608L20.4715 49.4648C21.2164 49.5305 22.2802 49.5102 23.2101 49.456C24.0581 49.4065 25.0275 49.316 25.6557 49.173C26.2217 49.078 26.8785 48.8591 27.4237 48.456C27.7126 48.2423 28.1137 47.8703 28.3443 47.2927C28.5758 46.7129 28.572 46.0773 28.3361 45.5012C28.2585 45.2504 28.1973 45.054 28.1469 44.8923C28.1021 44.7487 28.0659 44.6325 28.0344 44.53C28.0765 44.3804 28.1391 44.1879 28.2215 43.9576C28.416 43.414 28.6692 42.8021 28.8797 42.2954L28.8842 42.2845L28.8886 42.2736L37.868 19.9257C37.8856 20.1556 37.9113 20.3866 37.9454 20.6184L37.9454 20.6184L37.9467 20.6274C38.7319 25.7988 42.9357 28.4088 46.1847 30.055L46.2675 30.0969L46.3539 30.131C48.0305 30.7933 49.6946 31.2146 51.2608 31.5695C51.7005 31.6691 52.1265 31.7624 52.5429 31.8536C53.6236 32.0902 54.6393 32.3126 55.6609 32.5951C56.7252 32.9996 57.1598 33.5778 57.4029 34.1936C57.7023 34.952 57.7564 35.8897 57.7564 37.0563C57.7564 37.6068 57.5924 38.856 56.9763 39.8996C56.4347 40.8172 55.5481 41.6108 53.7765 41.6322C52.7853 41.6289 50.2167 41.1093 47.3809 39.2066C47.3799 39.2057 47.3789 39.2049 47.378 39.2041L47.3741 39.2008C47.3294 39.1631 47.2771 39.12 47.2287 39.0801L47.2023 39.0584C47.1061 38.9791 46.999 38.8909 46.8834 38.7928C46.614 38.5643 46.3815 38.3513 46.2477 38.2007L46.139 38.0783L46.0118 37.9752L44.7524 39.5288C46.0118 37.9752 46.0106 37.9742 46.0093 37.9732L46.0068 37.9712L46.0018 37.9671L45.9915 37.959L45.9704 37.9425C45.9561 37.9315 45.9412 37.9203 45.9257 37.9091C45.8948 37.8866 45.8617 37.8638 45.8264 37.841C45.7557 37.7952 45.6764 37.7495 45.5883 37.7059C45.411 37.6181 45.2043 37.5421 44.9685 37.4902C44.5145 37.3902 44.0058 37.3906 43.4508 37.509C42.5618 37.6518 41.4149 38.1088 40.5303 38.5746C40.0519 38.8265 39.5401 39.1379 39.1136 39.4932C38.9014 39.67 38.6571 39.9013 38.4473 40.1871C38.2514 40.4539 37.9698 40.9245 37.9284 41.5544L37.8703 42.4368L38.4839 43.0736C43.3671 48.1408 49.1493 48.7887 54.1494 48.7887C57.6244 48.7887 61.2464 47.5669 64.0306 45.5015C66.8149 43.4361 68.9729 40.3483 68.9729 36.5828C68.9729 33.6062 67.8883 30.4567 64.8916 28.123C62.8444 26.4761 60.5463 25.8636 58.5353 25.4725C57.9509 25.3589 57.4081 25.2648 56.8974 25.1763C55.5198 24.9375 54.375 24.7391 53.2718 24.3053L53.2719 24.3053L53.2619 24.3014C51.15 23.4839 50.1494 22.6646 49.6078 21.8228C49.0543 20.9626 48.7771 19.7692 48.7771 17.7494C48.7771 15.1497 50.8048 12.8578 53.3706 12.8578C55.5196 12.8578 56.7341 13.6584 57.3753 15.0227L57.6829 15.6774L58.3381 15.9838C60.0979 16.8068 62.1937 16.8047 63.4132 16.8035C63.4589 16.8034 63.5033 16.8034 63.5464 16.8034C64.6738 16.8034 65.7235 16.5049 66.4414 15.7072C67.1446 14.9256 67.1558 14.0657 67.1558 13.8565C67.1558 13.6013 67.1076 13.3774 67.0897 13.2951C67.0618 13.1669 67.0254 13.032 66.9838 12.8959C66.903 12.6322 66.7882 12.3189 66.6353 11.9736C65.6664 9.56771 63.4415 7.97963 61.1002 7.04683C58.7021 6.0914 55.8705 5.68814 53.1882 5.86349L53.1758 5.86431L53.1633 5.86528C48.6907 6.2139 44.6859 8.00242 41.8871 10.6203C41.6503 10.8418 41.4212 11.0703 41.2007 11.3052C41.3697 10.6467 41.4668 10.0131 41.4217 9.4489C41.3773 8.89477 41.172 8.11132 40.4628 7.53826C39.7854 6.9909 39.0192 6.94072 38.5499 6.96714L38.4898 6.97053L38.43 6.97751C37.6685 7.06655 36.1398 7.32083 34.6664 7.72606C33.931 7.92832 33.1483 8.18461 32.4608 8.50397C31.8565 8.78471 30.9826 9.26457 30.4499 10.0742L30.3219 10.2688L30.242 10.4876L22.7865 30.9098Z" fill="white" stroke="#2D2E38" stroke-width="4"/>
<path d="M18.9631 27.0863C17.0588 21.0784 15.9578 17.1653 15.1745 14.2093C14.8841 13.1134 14.6339 12.1342 14.3998 11.2183C13.8357 9.01119 13.3655 7.17132 12.6538 4.95087L12.6085 4.80947L12.5428 4.67632C12.2445 4.07196 11.7685 3.38798 11.0614 2.95806L10.5827 2.667H10.0224C9.59199 2.667 9.1838 2.78097 8.96003 2.84853C8.68328 2.93209 8.39428 3.03941 8.12687 3.14705C7.58989 3.36321 7.0307 3.62504 6.62647 3.82984L6.60281 3.84183L6.57949 3.85443L3.49142 5.5233C3.40566 5.5661 3.14934 5.69487 2.91966 5.86942C2.69932 6.03687 2 6.62086 2 7.66562V7.94667L2.07746 8.21683C6.97317 25.2924 10.7796 37.2626 11.994 40.2559L12.0169 40.321C12.4847 41.6488 12.912 42.8615 13.4784 43.7225C13.8081 44.2236 14.2312 44.6884 14.808 45.0405C15.3785 45.3887 15.9789 45.5531 16.5558 45.631L16.6018 45.6372L16.648 45.6413C17.393 45.707 18.4567 45.6867 19.3866 45.6325C20.2346 45.583 21.204 45.4925 21.8322 45.3495C22.3982 45.2545 23.055 45.0356 23.6002 44.6324C23.8891 44.4188 24.2902 44.0468 24.5208 43.4692C24.7523 42.8894 24.7485 42.2538 24.5126 41.6776C24.4351 41.4269 24.3738 41.2304 24.3234 41.0688C24.2787 40.9251 24.2424 40.8089 24.211 40.7064C24.253 40.5569 24.3156 40.3644 24.398 40.1341C24.5925 39.5905 24.8457 38.9786 25.0562 38.4718L25.0608 38.461L25.0651 38.4501L34.0445 16.1022C34.0621 16.3321 34.0878 16.5631 34.1219 16.7948L34.1219 16.7948L34.1233 16.8039C34.9084 21.9752 39.1122 24.5853 42.3613 26.2314L42.4441 26.2734L42.5304 26.3075C44.2071 26.9698 45.8711 27.3911 47.4373 27.746C47.877 27.8456 48.303 27.9389 48.7194 28.03C49.8002 28.2667 50.8158 28.4891 51.8374 28.7716C52.9017 29.1761 53.3363 29.7543 53.5794 30.3701C53.8788 31.1285 53.9329 32.0662 53.9329 33.2328C53.9329 33.7833 53.7689 35.0325 53.1528 36.0761C52.6112 36.9937 51.7246 37.7873 49.953 37.8087C48.9618 37.8054 46.3932 37.2858 43.5574 35.3831C43.5564 35.3822 43.5554 35.3814 43.5545 35.3806L43.5506 35.3773C43.506 35.3396 43.4536 35.2965 43.4052 35.2566L43.3789 35.2349C43.2826 35.1556 43.1755 35.0674 43.0599 34.9693C42.7905 34.7408 42.558 34.5278 42.4242 34.3772L42.3155 34.2548L42.1883 34.1517L40.9289 35.7053C42.1883 34.1517 42.1871 34.1507 42.1858 34.1497L42.1833 34.1476L42.1783 34.1436L42.168 34.1354L42.1469 34.119C42.1326 34.108 42.1177 34.0968 42.1022 34.0856C42.0713 34.0631 42.0382 34.0403 42.0029 34.0174C41.9322 33.9717 41.8529 33.926 41.7649 33.8824C41.5875 33.7946 41.3808 33.7186 41.145 33.6667C40.691 33.5667 40.1823 33.5671 39.6273 33.6855C38.7383 33.8283 37.5914 34.2852 36.7068 34.7511C36.2284 35.003 35.7166 35.3144 35.2901 35.6697C35.0779 35.8465 34.8336 36.0778 34.6238 36.3636C34.4279 36.6304 34.1464 37.101 34.1049 37.7309L34.0469 38.6133L34.6605 39.25C39.5436 44.3173 45.3258 44.9651 50.3259 44.9651C53.8009 44.9651 57.4229 43.7434 60.2071 41.678C62.9914 39.6126 65.1494 36.5248 65.1494 32.7593C65.1494 29.7827 64.0648 26.6331 61.0681 24.2995C59.0209 22.6526 56.7229 22.0401 54.7118 21.649C54.1274 21.5353 53.5847 21.4413 53.0739 21.3528C51.6963 21.114 50.5515 20.9156 49.4484 20.4818L49.4484 20.4818L49.4385 20.4779C47.3265 19.6604 46.3259 18.8411 45.7843 17.9992C45.2308 17.1391 44.9537 15.9457 44.9537 13.9259C44.9537 11.3262 46.9813 9.03433 49.5471 9.03433C51.6961 9.03433 52.9106 9.83492 53.5518 11.1992L53.8594 11.8538L54.5146 12.1603C56.2744 12.9833 58.3702 12.9812 59.5897 12.98C59.6354 12.9799 59.6798 12.9799 59.7229 12.9799C60.8503 12.9799 61.9 12.6814 62.6179 11.8836C63.3212 11.1021 63.3323 10.2422 63.3323 10.0329C63.3323 9.77778 63.2841 9.55387 63.2662 9.47155C63.2383 9.34337 63.2019 9.20846 63.1603 9.07243C63.0795 8.80872 62.9648 8.49535 62.8118 8.15009C61.8429 5.74419 59.618 4.15611 57.2767 3.22332C54.8787 2.26789 52.0471 1.86462 49.3647 2.03997L49.3523 2.04079L49.3398 2.04176C44.8672 2.39038 40.8624 4.1789 38.0636 6.79681C37.8268 7.01831 37.5978 7.24673 37.3773 7.48165C37.5462 6.8232 37.6433 6.18957 37.5982 5.62538C37.5538 5.07125 37.3485 4.2878 36.6393 3.71475C35.9619 3.16738 35.1957 3.11721 34.7264 3.14363L34.6663 3.14701L34.6065 3.154C33.845 3.24304 32.3163 3.49732 30.8429 3.90254C30.1075 4.1048 29.3248 4.3611 28.6373 4.68045C28.033 4.96119 27.1591 5.44106 26.6264 6.25071L26.4984 6.44531L26.4185 6.66412L18.9631 27.0863Z" fill="white" stroke="#2D2E38" stroke-width="4"/>
<path d="M32.6757 20.4919C33.4829 22.0257 34.019 23.1261 35.2572 24.3643" stroke="#2D2E38" stroke-width="4" stroke-linecap="round"/>
<path d="M29.6101 27.4299C30.3489 28.5866 31.1508 29.7266 31.7076 30.9795" stroke="#2D2E38" stroke-width="4" stroke-linecap="round"/>
<path d="M27.0284 36.4653C27.7535 36.8088 28.0519 36.9517 28.4806 37.5947" stroke="#2D2E38" stroke-width="4" stroke-linecap="round"/>
<path d="M24.7697 44.3714C25.0369 44.4048 25.6588 45.2942 25.8184 45.5815C26.0978 46.0843 26.3831 46.511 26.3831 47.1143" stroke="#2D2E38" stroke-width="4" stroke-linecap="round"/>
<path d="M53.4893 45.1781C54.7764 45.8343 56.3377 46.3241 57.5229 47.1143" stroke="#2D2E38" stroke-width="4" stroke-linecap="round"/>
<path d="M61.5568 42.1125C62.1364 42.6922 63.273 42.9634 63.6543 43.726" stroke="#2D2E38" stroke-width="4" stroke-linecap="round"/>
<path d="M63.1702 13.07C63.5298 13.7893 63.9451 14.4584 64.2996 15.1675" stroke="#2D2E38" stroke-width="4" stroke-linecap="round"/>
<path d="M48.6488 9.84305C49.1628 10.4954 50.1009 11.375 50.1009 12.2633" stroke="#2D2E38" stroke-width="4" stroke-linecap="round"/>
<path d="M45.906 13.7154C46.3091 14.1185 47.0234 14.6473 47.1968 15.1675" stroke="#2D2E38" stroke-width="4" stroke-linecap="round"/>
<path d="M64.9449 37.5948C65.3509 38.4573 65.6242 39.3098 65.913 40.1763" stroke="#2D2E38" stroke-width="4" stroke-linecap="round"/>
</svg>
