<svg width="56" height="56" viewBox="0 0 56 56" fill="none" xmlns="http://www.w3.org/2000/svg">
<path d="M3.5 28.0001C3.5 21.5588 4.15016 16.2331 7.03816 12.5261C9.34883 9.56023 14.177 6.51258 18.2728 4.70103C20.9808 3.5033 23.4613 3.50015 27.6758 3.50015C32.5391 3.50015 36.827 4.28038 40.2571 6.27555C43.4296 8.12093 46.2937 10.6936 48.3246 13.6205C49.762 15.6918 50.9807 17.7634 51.6707 19.8493C52.3802 21.9942 52.5 24.8943 52.5 28.0001C52.5 31.3352 51.6884 34.5812 50.3821 37.6165C49.2696 40.2014 47.1436 42.4786 44.5952 45.0233C42.6493 46.9664 40.0898 48.9829 37.8223 50.123C34.4897 51.7987 31.6978 52.5 27.6758 52.5C25.2175 52.5 22.8492 52.1442 20.6172 51.4842C17.4183 50.5382 15.0616 49.6709 12.941 48.0771C9.2871 45.331 6.21011 41.0166 4.53059 36.5244C3.63988 34.1419 3.5 31.4343 3.5 28.0001Z" fill="#2D2E38" stroke="#2D2E38" stroke-width="7"/>
</svg>
