<svg width="242" height="94" viewBox="0 0 242 94" fill="none" xmlns="http://www.w3.org/2000/svg">
<path d="M4 17.5L0.881829 15.9103L6.21633 20.2089L4 17.5ZM20.5 4L23.3439 6.04018L18.2837 1.29115L20.5 4ZM4 27L1.15612 24.9598L6.41703 29.5314L4 27ZM28.0882 4L30.9501 6.01484L25.6712 1.46861L28.0882 4ZM4 38.2151L1.13811 36.2002L6.42676 40.7371L4 38.2151ZM38 5.5L40.5273 7.92128L35.5732 2.97793L38 5.5ZM4 40.9892L1.47267 38.568L6.28953 43.6365L4 40.9892ZM46.7689 4L49.4058 6.30153L44.4794 1.35273L46.7689 4ZM4 53L1.36315 50.6985L6.31165 55.628L4 53ZM58 5.5L60.6112 7.83063L55.6884 2.87202L58 5.5ZM4 66L1.38884 63.6694L6.4371 68.5121L4 66ZM67.9076 4L70.4574 6.39754L65.4705 1.48792L67.9076 4ZM4 71.9677L1.45014 69.5702L6.34757 74.5637L4 71.9677ZM77.5 5.5L80.0477 7.89987L75.1524 2.90406L77.5 5.5ZM4 83.5269L1.45233 81.127L6.49617 85.9803L4 83.5269ZM82.1639 4L84.7294 6.38072L79.6677 1.54661L82.1639 4ZM7 85L4.43443 82.6193L9.39232 87.5548L7 85ZM93.5 4L96.0026 6.44684L91.1077 1.44524L93.5 4ZM10.8824 88.5L8.37976 86.0532L13.2749 91.0545L10.8824 88.5ZM99.5 5.5L102.057 7.89027L97.1074 2.94548L99.5 5.5ZM20.5 90L17.9433 87.6097L22.9784 92.4713L20.5 90ZM106.252 4L108.901 6.28731L103.774 1.5287L106.252 4ZM32 90L29.3508 87.7127L34.4822 92.4675L32 90ZM116 5.5L118.631 7.80846L113.518 3.03248L116 5.5ZM41.8529 90L39.2222 87.6915L44.3839 92.4175L41.8529 90ZM124 4L126.638 6.30042L121.469 1.58247L124 4ZM49 90L46.3622 87.6996L51.4676 92.4821L49 90ZM135 4.5L137.662 6.77264L132.532 2.01792L135 4.5ZM62 90L59.3382 87.7274L64.5257 92.4229L62 90ZM144.5 4L147.222 6.19992L141.974 1.57706L144.5 4ZM75 90L72.2778 87.8001L77.5837 92.361L75 90ZM154.5 3L157.242 5.17488L151.916 0.639001L154.5 3ZM85.5 90L82.7578 87.8251L88.1227 92.3177L85.5 90ZM161.5 4L164.245 6.17082L158.877 1.68231L161.5 4ZM93.5 90L90.7545 87.8292L96.1302 92.3091L93.5 90ZM169 4L171.753 6.16096L166.37 1.69091L169 4ZM101.5 90L98.7468 87.839L104.128 92.3112L101.5 90ZM178 3L180.765 5.14549L175.372 0.688824L178 3ZM110.5 90L107.735 87.8545L113.13 92.3091L110.5 90ZM186 4L188.727 6.19429L183.37 1.69091L186 4ZM118 88.5L115.273 86.3057L120.558 90.8887L118 88.5ZM195.5 5.5L198.233 7.68678L192.942 3.11134L195.5 5.5ZM127.882 90L125.15 87.8132L130.511 92.3111L127.882 90ZM203.5 4L206.261 6.15101L200.872 1.68888L203.5 4ZM136.5 90L133.739 87.849L139.138 92.3004L136.5 90ZM211.5 4L214.316 6.07899L208.862 1.69958L211.5 4ZM148 90L145.184 87.921L150.629 92.3106L148 90ZM222.269 5.5L224.98 7.71359L219.64 3.1894L222.269 5.5ZM154.5 88.5L151.789 86.2864L157.066 90.8804L154.5 88.5ZM231.5 5.5L234.243 7.67454L228.934 3.11961L231.5 5.5ZM164.5 90L161.757 87.8255L167.101 92.3416L164.5 90ZM236.5 10.0108L239.258 12.1657L233.899 7.6692L236.5 10.0108ZM174 90L171.242 87.8451L176.595 92.3481L174 90ZM238 19.2581L240.813 21.341L235.405 16.91L238 19.2581ZM184.5 91.5L181.687 89.417L187.143 93.7949L184.5 91.5ZM238 29.8925L240.925 31.8151L235.357 27.5976L238 29.8925ZM197.5 91.5L194.575 89.5774L200.231 93.6894L197.5 91.5ZM238 40.9892L240.959 42.8589L235.269 38.7998L238 40.9892ZM207.029 90L204.071 88.1303L209.599 92.3759L207.029 90ZM238 56.5L241.168 57.9877L235.43 54.1241L238 56.5ZM222.269 90L219.101 88.5123L225.02 92.1638L222.269 90ZM240.751 72.1638C241.946 70.6445 241.683 68.444 240.164 67.249C238.644 66.054 236.444 66.3169 235.249 67.8362L240.751 72.1638ZM7.76418 2.41034L0.881829 15.9103L7.11817 19.0897L14.0005 5.58966L7.76418 2.41034ZM6.21633 20.2089L22.7163 6.70885L18.2837 1.29115L1.78367 14.7911L6.21633 20.2089ZM17.6561 1.95982L1.15612 24.9598L6.84388 29.0402L23.3439 6.04018L17.6561 1.95982ZM6.41703 29.5314L30.5053 6.53139L25.6712 1.46861L1.58297 24.4686L6.41703 29.5314ZM25.2263 1.98516L1.13811 36.2002L6.86189 40.2299L30.9501 6.01484L25.2263 1.98516ZM6.42676 40.7371L40.4268 8.02207L35.5732 2.97793L1.57324 35.693L6.42676 40.7371ZM35.4727 3.07872L1.47267 38.568L6.52733 43.4105L40.5273 7.92128L35.4727 3.07872ZM6.28953 43.6365L49.0584 6.64727L44.4794 1.35273L1.71047 38.342L6.28953 43.6365ZM44.1321 1.69847L1.36315 50.6985L6.63685 55.3015L49.4058 6.30153L44.1321 1.69847ZM6.31165 55.628L60.3116 8.12798L55.6884 2.87202L1.68835 50.372L6.31165 55.628ZM55.3888 3.16937L1.38884 63.6694L6.61116 68.3306L60.6112 7.83063L55.3888 3.16937ZM6.4371 68.5121L70.3447 6.51208L65.4705 1.48792L1.5629 63.4879L6.4371 68.5121ZM65.3577 1.60246L1.45014 69.5702L6.54986 74.3653L70.4574 6.39754L65.3577 1.60246ZM6.34757 74.5637L79.8476 8.09594L75.1524 2.90406L1.65243 69.3718L6.34757 74.5637ZM74.9523 3.10013L1.45233 81.127L6.54767 85.9268L80.0477 7.89987L74.9523 3.10013ZM6.49617 85.9803L84.66 6.45339L79.6677 1.54661L1.50383 81.0735L6.49617 85.9803ZM79.5983 1.61928L4.43443 82.6193L9.56557 87.3807L84.7294 6.38072L79.5983 1.61928ZM9.39232 87.5548L95.8923 6.55476L91.1077 1.44524L4.60768 82.4452L9.39232 87.5548ZM90.9974 1.55316L8.37976 86.0532L13.3849 90.9468L96.0026 6.44684L90.9974 1.55316ZM13.2749 91.0545L101.893 8.05452L97.1074 2.94548L8.48977 85.9455L13.2749 91.0545ZM96.9433 3.10973L17.9433 87.6097L23.0567 92.3903L102.057 7.89027L96.9433 3.10973ZM22.9784 92.4713L108.731 6.4713L103.774 1.5287L18.0216 87.5287L22.9784 92.4713ZM103.603 1.71269L29.3508 87.7127L34.6492 92.2873L108.901 6.28731L103.603 1.71269ZM34.4822 92.4675L118.482 7.96752L113.518 3.03248L29.5178 87.5325L34.4822 92.4675ZM113.369 3.19154L39.2222 87.6915L44.4837 92.3085L118.631 7.80846L113.369 3.19154ZM44.3839 92.4175L126.531 6.41753L121.469 1.58247L39.322 87.5825L44.3839 92.4175ZM121.362 1.69958L46.3622 87.6996L51.6378 92.3004L126.638 6.30042L121.362 1.69958ZM51.4676 92.4821L137.468 6.98208L132.532 2.01792L46.5324 87.5179L51.4676 92.4821ZM132.338 2.22736L59.3382 87.7274L64.6618 92.2726L137.662 6.77264L132.338 2.22736ZM64.5257 92.4229L147.026 6.42294L141.974 1.57706L59.4743 87.5771L64.5257 92.4229ZM141.778 1.80008L72.2778 87.8001L77.7222 92.1999L147.222 6.19992L141.778 1.80008ZM77.5837 92.361L157.084 5.361L151.916 0.639001L72.4163 87.639L77.5837 92.361ZM151.758 0.825119L82.7578 87.8251L88.2422 92.1749L157.242 5.17488L151.758 0.825119ZM88.1227 92.3177L164.123 6.31769L158.877 1.68231L82.8773 87.6823L88.1227 92.3177ZM158.755 1.82918L90.7545 87.8292L96.2455 92.1708L164.245 6.17082L158.755 1.82918ZM96.1302 92.3091L171.63 6.30909L166.37 1.69091L90.8698 87.6909L96.1302 92.3091ZM166.247 1.83904L98.7468 87.839L104.253 92.161L171.753 6.16096L166.247 1.83904ZM104.128 92.3112L180.628 5.31118L175.372 0.688824L98.8716 87.6888L104.128 92.3112ZM175.235 0.85451L107.735 87.8545L113.265 92.1455L180.765 5.14549L175.235 0.85451ZM113.13 92.3091L188.63 6.30909L183.37 1.69091L107.87 87.6909L113.13 92.3091ZM183.273 1.80571L115.273 86.3057L120.727 90.6943L188.727 6.19429L183.273 1.80571ZM120.558 90.8887L198.058 7.88866L192.942 3.11134L115.442 86.1113L120.558 90.8887ZM192.767 3.31322L125.15 87.8132L130.615 92.1868L198.233 7.68678L192.767 3.31322ZM130.511 92.3111L206.128 6.31112L200.872 1.68888L125.254 87.6889L130.511 92.3111ZM200.739 1.84899L133.739 87.849L139.261 92.151L206.261 6.15101L200.739 1.84899ZM139.138 92.3004L214.138 6.30042L208.862 1.69958L133.862 87.6996L139.138 92.3004ZM208.684 1.92101L145.184 87.921L150.816 92.079L214.316 6.07899L208.684 1.92101ZM150.629 92.3106L224.898 7.8106L219.64 3.1894L145.371 87.6894L150.629 92.3106ZM219.558 3.28641L151.789 86.2864L157.211 90.7136L224.98 7.71359L219.558 3.28641ZM157.066 90.8804L234.066 7.88039L228.934 3.11961L151.934 86.1196L157.066 90.8804ZM228.757 3.32546L161.757 87.8255L167.243 92.1745L234.243 7.67454L228.757 3.32546ZM167.101 92.3416L239.101 12.3523L233.899 7.6692L161.899 87.6584L167.101 92.3416ZM233.742 7.85582L171.242 87.8451L176.758 92.1549L239.258 12.1657L233.742 7.85582ZM176.595 92.3481L240.595 21.6062L235.405 16.91L171.405 87.6519L176.595 92.3481ZM235.187 17.1751L181.687 89.417L187.313 93.583L240.813 21.341L235.187 17.1751ZM187.143 93.7949L240.643 32.1873L235.357 27.5976L181.857 89.2051L187.143 93.7949ZM235.075 27.9699L194.575 89.5774L200.425 93.4226L240.925 31.8151L235.075 27.9699ZM200.231 93.6894L240.731 43.1787L235.269 38.7998L194.769 89.3106L200.231 93.6894ZM235.041 39.1196L204.071 88.1303L209.988 91.8697L240.959 42.8589L235.041 39.1196ZM209.599 92.3759L240.57 58.8759L235.43 54.1241L204.459 87.6241L209.599 92.3759ZM234.832 55.0123L219.101 88.5123L225.437 91.4877L241.168 57.9877L234.832 55.0123ZM225.02 92.1638L240.751 72.1638L235.249 67.8362L219.518 87.8362L225.02 92.1638Z" fill="currentColor"/>
</svg>
