<svg width="243" height="94" viewBox="0 0 243 94" fill="none" xmlns="http://www.w3.org/2000/svg">
<path d="M238 77L240.912 78.9415L235.784 74.2911L238 77ZM221.5 90.5L218.656 88.4598L223.716 93.2088L221.5 90.5ZM238 67.5L240.844 69.5402L235.778 64.7955L238 67.5ZM210 90.5L207.291 88.2834L212.222 93.2045L210 90.5ZM238 56.2849L240.709 58.5016L235.573 53.7629L238 56.2849ZM204 89L201.458 86.5938L206.427 91.5221L204 89ZM239.5 51.5L242.042 53.9062L237.251 48.8183L239.5 51.5ZM193 90.5L190.425 88.1292L195.249 93.1817L193 90.5ZM239.5 40L242.075 42.3708L237.184 37.3763L239.5 40ZM184 89L181.418 86.6369L186.316 91.6237L184 89ZM238 30L240.582 32.3631L235.546 27.5049L238 30ZM176.5 90.5L173.89 88.1678L178.955 92.9951L176.5 90.5ZM239.5 20L242.11 22.3322L237.069 17.4824L239.5 20ZM166.5 90.5L163.897 88.1599L168.931 93.0176L166.5 90.5ZM238 10.9731L240.603 13.3131L235.504 8.51972L238 10.9731ZM159.836 90.5L157.271 88.1193L162.332 92.9534L159.836 90.5ZM235 9.5L237.566 11.8807L232.548 7.00253L235 9.5ZM152.5 90.5L149.875 88.1853L154.952 92.9975L152.5 90.5ZM227 5.99998L229.625 8.31463L224.547 3.50305L227 5.99998ZM142.5 89L139.943 86.6097L144.953 91.4969L142.5 89ZM221.5 4.5L224.057 6.89027L219.022 2.0287L221.5 4.5ZM135.748 90.5L133.112 88.1974L138.226 92.9713L135.748 90.5ZM210 5.50001L212.636 7.80261L207.533 3.01775L210 5.50001ZM126 89L123.369 86.6915L128.468 91.4822L126 89ZM200.147 4.5L202.778 6.80846L197.616 2.08247L200.147 4.5ZM118 90.5L115.301 88.2717L120.531 92.9175L118 90.5ZM189 4.5L191.699 6.72827L186.451 2.10169L189 4.5ZM109.5 89L106.757 86.8255L112.049 91.3983L109.5 89ZM176.5 4.49998L179.243 6.67452L173.922 2.13223L176.5 4.49998ZM97.5 90.5L94.7826 88.2941L100.078 92.8677L97.5 90.5ZM166.5 5.5L169.217 7.70587L163.922 3.13225L166.5 5.5ZM87.5 91.5L84.7578 89.3251L90.0775 93.8677L87.5 91.5ZM156.5 4.49999L159.242 6.67488L153.877 2.1823L156.5 4.49999ZM80.5 90.5L77.7545 88.3292L83.1227 92.8177L80.5 90.5ZM148.5 4.49999L151.245 6.67082L145.87 2.1909L148.5 4.49999ZM73 90.5L70.2468 88.339L75.6302 92.8091L73 90.5ZM140.5 4.49999L143.253 6.66095L137.872 2.18881L140.5 4.49999ZM64 91.5L61.2347 89.3545L66.6284 93.8112L64 91.5ZM131.5 4.49999L134.265 6.64548L128.908 2.14864L131.5 4.49999ZM53.5 90.5L50.8125 88.2578L56.0925 92.8513L53.5 90.5ZM124 5.99999L126.688 8.2422L121.442 3.61133L124 5.99999ZM46.5 89L43.7672 86.8132L49.0582 91.3886L46.5 89ZM114.118 4.49999L116.85 6.68677L111.489 2.18886L114.118 4.49999ZM38.5 90.5L35.739 88.349L41.1284 92.8111L38.5 90.5ZM105.5 4.49999L108.261 6.651L102.907 2.14864L105.5 4.49999ZM27.5 90.5L24.8047 88.2672L30.0925 92.8513L27.5 90.5ZM97.5 5.99999L100.195 8.23278L94.946 3.60691L97.5 5.99999ZM19.7311 89L17.0007 86.8102L22.2851 91.3931L19.7311 89ZM87.5 4.49998L90.2304 6.68974L84.913 2.14258L87.5 4.49998ZM10.5 89L7.75749 86.8254L13.087 91.3574L10.5 89ZM77.5 4.49999L80.2425 6.67452L74.8986 2.15844L77.5 4.49999ZM5.5 84.4892L2.69372 82.3976L8.10137 86.8308L5.5 84.4892ZM64 5.99998L66.8063 8.09158L61.3549 3.70794L64 5.99998ZM4 75.2419L1.18732 73.1589L6.6451 77.534L4 75.2419ZM57.5 2.99998L60.3127 5.08297L54.8574 0.705112L57.5 2.99998ZM4 64.6075L1.14221 62.5869L6.64265 66.9024L4 64.6075ZM46.5 4.5L49.3578 6.52065L43.8902 2.16784L46.5 4.5ZM4.5 51.5L1.43738 49.8058L7.1098 53.8322L4.5 51.5ZM30.5 4.49998L33.5626 6.1942L27.7395 2.34838L30.5 4.49998ZM4 38.5L0.823527 37.0303L6.76055 40.6516L4 38.5ZM19.7311 4.5L22.9076 5.96969L17.2746 2.00688L19.7311 4.5ZM1.54351 17.5069C0.166601 18.8636 0.150204 21.0796 1.50689 22.4565C2.86357 23.8334 5.07959 23.8498 6.4565 22.4931L1.54351 17.5069ZM232.912 90.9414L240.912 78.9415L235.088 75.0585L227.088 87.0585L232.912 90.9414ZM235.784 74.2911L219.284 87.7911L223.716 93.2088L240.216 79.7089L235.784 74.2911ZM224.344 92.5402L240.844 69.5402L235.156 65.4598L218.656 88.4598L224.344 92.5402ZM235.778 64.7955L207.778 87.7954L212.222 93.2045L240.222 70.2045L235.778 64.7955ZM212.709 92.7166L240.709 58.5016L235.291 54.0683L207.291 88.2834L212.709 92.7166ZM235.573 53.7629L201.573 86.4779L206.427 91.5221L240.427 58.807L235.573 53.7629ZM206.542 91.4062L242.042 53.9062L236.958 49.0938L201.458 86.5938L206.542 91.4062ZM237.251 48.8183L190.751 87.8183L195.249 93.1817L241.749 54.1817L237.251 48.8183ZM195.575 92.8708L242.075 42.3708L236.925 37.6292L190.425 88.1292L195.575 92.8708ZM237.184 37.3763L181.684 86.3763L186.316 91.6237L241.816 42.6237L237.184 37.3763ZM186.582 91.363L240.582 32.3631L235.418 27.6369L181.418 86.6369L186.582 91.363ZM235.546 27.5049L174.046 88.0049L178.955 92.9951L240.455 32.4951L235.546 27.5049ZM179.11 92.8321L242.11 22.3322L236.89 17.6678L173.89 88.1678L179.11 92.8321ZM237.069 17.4824L164.069 87.9824L168.931 93.0176L241.931 22.5176L237.069 17.4824ZM169.103 92.84L240.603 13.3131L235.397 8.63308L163.897 88.1599L169.103 92.84ZM235.504 8.51972L157.34 88.0466L162.332 92.9534L240.496 13.4265L235.504 8.51972ZM162.402 92.8807L237.566 11.8807L232.434 7.11928L157.271 88.1193L162.402 92.8807ZM232.548 7.00253L150.048 88.0025L154.952 92.9975L237.452 11.9975L232.548 7.00253ZM155.125 92.8146L229.625 8.31463L224.375 3.68534L149.875 88.1853L155.125 92.8146ZM224.547 3.50305L140.047 86.5031L144.953 91.4969L229.453 8.49692L224.547 3.50305ZM145.057 91.3903L224.057 6.89027L218.943 2.10973L139.943 86.6097L145.057 91.3903ZM219.022 2.0287L133.269 88.0287L138.226 92.9713L223.978 6.9713L219.022 2.0287ZM138.384 92.8026L212.636 7.80261L207.364 3.1974L133.112 88.1974L138.384 92.8026ZM207.533 3.01775L123.533 86.5177L128.468 91.4822L212.467 7.98226L207.533 3.01775ZM128.631 91.3084L202.778 6.80846L197.516 2.19154L123.369 86.6915L128.631 91.3084ZM197.616 2.08247L115.469 88.0825L120.531 92.9175L202.678 6.91753L197.616 2.08247ZM120.699 92.7283L191.699 6.72827L186.301 2.27172L115.301 88.2717L120.699 92.7283ZM186.451 2.10169L106.951 86.6017L112.049 91.3983L191.549 6.8983L186.451 2.10169ZM112.243 91.1745L179.243 6.67452L173.758 2.32544L106.757 86.8255L112.243 91.1745ZM173.922 2.13223L94.9225 88.1322L100.078 92.8677L179.078 6.86773L173.922 2.13223ZM100.217 92.7059L169.217 7.70587L163.783 3.29413L94.7826 88.2941L100.217 92.7059ZM163.922 3.13225L84.9225 89.1322L90.0775 93.8677L169.078 7.86775L163.922 3.13225ZM90.2422 93.6749L159.242 6.67488L153.758 2.32511L84.7578 89.3251L90.2422 93.6749ZM153.877 2.1823L77.8773 88.1823L83.1227 92.8177L159.123 6.81769L153.877 2.1823ZM83.2455 92.6708L151.245 6.67082L145.755 2.32917L77.7545 88.3292L83.2455 92.6708ZM145.87 2.1909L70.3698 88.1909L75.6302 92.8091L151.13 6.80909L145.87 2.1909ZM75.7532 92.6609L143.253 6.66095L137.747 2.33903L70.2468 88.339L75.7532 92.6609ZM137.872 2.18881L61.3716 89.1888L66.6284 93.8112L143.128 6.81117L137.872 2.18881ZM66.7653 93.6455L134.265 6.64548L128.735 2.3545L61.2347 89.3545L66.7653 93.6455ZM128.908 2.14864L50.9075 88.1486L56.0925 92.8513L134.093 6.85134L128.908 2.14864ZM56.1875 92.7422L126.688 8.2422L121.313 3.75778L50.8125 88.2578L56.1875 92.7422ZM121.442 3.61133L43.9418 86.6113L49.0582 91.3886L126.558 8.38865L121.442 3.61133ZM49.2328 91.1868L116.85 6.68677L111.385 2.31321L43.7672 86.8132L49.2328 91.1868ZM111.489 2.18886L35.8716 88.1889L41.1284 92.8111L116.746 6.81111L111.489 2.18886ZM41.261 92.651L108.261 6.651L102.739 2.34897L35.739 88.349L41.261 92.651ZM102.907 2.14864L24.9075 88.1486L30.0925 92.8513L108.093 6.85134L102.907 2.14864ZM30.1953 92.7328L100.195 8.23278L94.8047 3.7672L24.8047 88.2672L30.1953 92.7328ZM94.946 3.60691L17.177 86.6069L22.2851 91.3931L100.054 8.39307L94.946 3.60691ZM22.4615 91.1897L90.2304 6.68974L84.7696 2.31022L17.0007 86.8102L22.4615 91.1897ZM84.913 2.14258L7.91298 86.6426L13.087 91.3574L90.087 6.85738L84.913 2.14258ZM13.2425 91.1745L80.2425 6.67452L74.7575 2.32545L7.75749 86.8254L13.2425 91.1745ZM74.8986 2.15844L2.89863 82.1477L8.10137 86.8308L80.1014 6.84154L74.8986 2.15844ZM8.30629 86.5808L66.8063 8.09158L61.1937 3.90839L2.69372 82.3976L8.30629 86.5808ZM61.3549 3.70794L1.35491 72.9499L6.6451 77.534L66.6451 8.29203L61.3549 3.70794ZM6.81269 77.3249L60.3127 5.08297L54.6873 0.917003L1.18732 73.1589L6.81269 77.3249ZM54.8574 0.705112L1.35736 62.3126L6.64265 66.9024L60.1427 5.29486L54.8574 0.705112ZM6.85779 66.6282L49.3578 6.52065L43.6422 2.47935L1.14221 62.5869L6.85779 66.6282ZM43.8902 2.16784L1.89021 49.1678L7.1098 53.8322L49.1098 6.83216L43.8902 2.16784ZM7.56262 53.1942L33.5626 6.1942L27.4374 2.80577L1.43738 49.8058L7.56262 53.1942ZM27.7395 2.34838L1.23946 36.3484L6.76055 40.6516L33.2606 6.65158L27.7395 2.34838ZM7.17648 39.9697L22.9076 5.96969L16.5546 3.03031L0.823527 37.0303L7.17648 39.9697ZM17.2746 2.00688L1.54351 17.5069L6.4565 22.4931L22.1876 6.99311L17.2746 2.00688Z" fill="currentColor"/>
</svg>
