<svg width="242" height="94" viewBox="0 0 242 94" fill="none" xmlns="http://www.w3.org/2000/svg">
<path d="M238 77L241.118 78.5897L235.784 74.2911L238 77ZM221.5 90.5L218.656 88.4598L223.716 93.2088L221.5 90.5ZM238 67.5L240.844 69.5402L235.583 64.9686L238 67.5ZM213.912 90.5L211.05 88.4852L216.329 93.0314L213.912 90.5ZM238 56.2849L240.862 58.2998L235.573 53.7629L238 56.2849ZM204 89L201.473 86.5787L206.427 91.5221L204 89ZM238 53.5108L240.527 55.932L235.71 50.8635L238 53.5108ZM195.231 90.5L192.594 88.1985L197.521 93.1473L195.231 90.5ZM238 41.5L240.637 43.8015L235.688 38.872L238 41.5ZM184 89L181.389 86.6694L186.312 91.628L184 89ZM238 28.5L240.611 30.8306L235.563 25.9879L238 28.5ZM174.092 90.5L171.543 88.1025L176.53 93.0121L174.092 90.5ZM238 22.5323L240.55 24.9298L235.652 19.9363L238 22.5323ZM164.5 89L161.952 86.6001L166.848 91.5959L164.5 89ZM238 10.9731L240.548 13.373L235.504 8.51972L238 10.9731ZM159.836 90.5L157.271 88.1193L162.332 92.9534L159.836 90.5ZM235 9.5L237.566 11.8807L232.608 6.94524L235 9.5ZM148.5 90.5L145.997 88.0531L150.892 93.0548L148.5 90.5ZM231.118 6L233.62 8.44684L228.725 3.44548L231.118 6ZM142.5 89L139.943 86.6097L144.893 91.5545L142.5 89ZM221.5 4.5L224.057 6.89027L219.022 2.0287L221.5 4.5ZM135.748 90.5L133.099 88.2127L138.226 92.9713L135.748 90.5ZM210 4.5L212.649 6.7873L207.518 2.03248L210 4.5ZM126 89L123.369 86.6915L128.482 91.4675L126 89ZM200.147 4.5L202.778 6.80846L197.616 2.08247L200.147 4.5ZM118 90.5L115.362 88.1996L120.531 92.9175L118 90.5ZM193 4.5L195.638 6.80042L190.532 2.01792L193 4.5ZM107 90L104.338 87.7274L109.468 92.4821L107 90ZM180 4.49999L182.662 6.77263L177.474 2.07705L180 4.49999ZM97.5 90.5L94.7778 88.3001L100.026 92.9229L97.5 90.5ZM167 4.49999L169.722 6.69991L164.416 2.13899L167 4.49999ZM87.5 91.5L84.7578 89.3251L90.0837 93.861L87.5 91.5ZM156.5 4.49999L159.242 6.67487L153.877 2.1823L156.5 4.49999ZM80.5 90.5L77.7545 88.3292L83.1227 92.8177L80.5 90.5ZM148.5 4.49999L151.245 6.67082L145.87 2.1909L148.5 4.49999ZM73 90.5L70.2468 88.339L75.6302 92.8091L73 90.5ZM140.5 4.49999L143.253 6.66095L137.872 2.18882L140.5 4.49999ZM64 91.5L61.2347 89.3545L66.6284 93.8112L64 91.5ZM131.5 4.49999L134.265 6.64548L128.87 2.1909L131.5 4.49999ZM56 90.5L53.2733 88.3057L58.6302 92.8091L56 90.5ZM124 5.99999L126.727 8.19428L121.442 3.61133L124 5.99999ZM46.5 89L43.7672 86.8132L49.0582 91.3886L46.5 89ZM114.118 4.49999L116.85 6.68677L111.489 2.18887L114.118 4.49999ZM38.5 90.5L35.739 88.349L41.1284 92.8111L38.5 90.5ZM105.5 4.49999L108.261 6.651L102.862 2.19957L105.5 4.49999ZM30.5 90.5L27.6844 88.421L33.1378 92.8004L30.5 90.5ZM94 4.49999L96.8156 6.57898L91.3711 2.18939L94 4.49999ZM19.7311 89L17.02 86.7864L22.36 91.3106L19.7311 89ZM87.5 5.99999L90.2111 8.21358L84.9341 3.61959L87.5 5.99999ZM10.5 89L7.75749 86.8254L13.0659 91.3804L10.5 89ZM77.5 4.49999L80.2425 6.67452L74.8986 2.15844L77.5 4.49999ZM5.5 84.4892L2.74206 82.3343L8.10137 86.8308L5.5 84.4892ZM68 4.49999L70.758 6.65492L65.4045 2.15188L68 4.49999ZM4 75.2419L1.18732 73.1589L6.59546 77.59L4 75.2419ZM57.5 2.99998L60.3127 5.08297L54.8574 0.705112L57.5 2.99998ZM4 64.6075L1.07536 62.6849L6.64265 66.9024L4 64.6075ZM44.5 2.99998L47.4246 4.92261L41.7694 0.810539L44.5 2.99998ZM4 53.5107L1.04124 51.641L6.73063 55.7002L4 53.5107ZM34.9706 4.49998L37.9294 6.36967L32.4006 2.12403L34.9706 4.49998ZM4 38L0.831916 36.5123L6.57 40.3759L4 38ZM19.7311 4.49998L22.8992 5.98767L16.9801 2.33618L19.7311 4.49998ZM1.24902 22.3362C0.053979 23.8555 0.316871 26.0559 1.8362 27.251C3.35553 28.446 5.55596 28.1831 6.751 26.6638L1.24902 22.3362ZM234.236 92.0897L241.118 78.5897L234.882 75.4103L227.999 88.9103L234.236 92.0897ZM235.784 74.2911L219.284 87.7911L223.716 93.2088L240.216 79.7089L235.784 74.2911ZM224.344 92.5402L240.844 69.5402L235.156 65.4598L218.656 88.4598L224.344 92.5402ZM235.583 64.9686L211.495 87.9686L216.329 93.0314L240.417 70.0314L235.583 64.9686ZM216.774 92.5148L240.862 58.2998L235.138 54.2701L211.05 88.4852L216.774 92.5148ZM235.573 53.7629L201.573 86.4779L206.427 91.5221L240.427 58.807L235.573 53.7629ZM206.527 91.4213L240.527 55.932L235.473 51.0895L201.473 86.5787L206.527 91.4213ZM235.71 50.8635L192.942 87.8527L197.521 93.1473L240.29 56.158L235.71 50.8635ZM197.868 92.8015L240.637 43.8015L235.363 39.1985L192.594 88.1985L197.868 92.8015ZM235.688 38.872L181.688 86.372L186.312 91.628L240.312 44.128L235.688 38.872ZM186.611 91.3306L240.611 30.8306L235.389 26.1694L181.389 86.6694L186.611 91.3306ZM235.563 25.9879L171.655 87.9879L176.53 93.0121L240.437 31.0121L235.563 25.9879ZM176.642 92.8975L240.55 24.9298L235.45 20.1347L171.543 88.1025L176.642 92.8975ZM235.652 19.9363L162.152 86.4041L166.848 91.5959L240.348 25.1282L235.652 19.9363ZM167.048 91.3999L240.548 13.373L235.452 8.57325L161.952 86.6001L167.048 91.3999ZM235.504 8.51972L157.34 88.0466L162.332 92.9534L240.496 13.4265L235.504 8.51972ZM162.402 92.8807L237.566 11.8807L232.434 7.11928L157.271 88.1193L162.402 92.8807ZM232.608 6.94524L146.108 87.9452L150.892 93.0548L237.392 12.0548L232.608 6.94524ZM151.003 92.9468L233.62 8.44684L228.615 3.55316L145.997 88.0531L151.003 92.9468ZM228.725 3.44548L140.107 86.4455L144.893 91.5545L233.51 8.55452L228.725 3.44548ZM145.057 91.3903L224.057 6.89027L218.943 2.10973L139.943 86.6097L145.057 91.3903ZM219.022 2.0287L133.269 88.0287L138.226 92.9713L223.978 6.9713L219.022 2.0287ZM138.397 92.7873L212.649 6.7873L207.351 2.21269L133.099 88.2127L138.397 92.7873ZM207.518 2.03248L123.518 86.5325L128.482 91.4675L212.482 6.96752L207.518 2.03248ZM128.631 91.3084L202.778 6.80846L197.516 2.19154L123.369 86.6915L128.631 91.3084ZM197.616 2.08247L115.469 88.0825L120.531 92.9175L202.678 6.91753L197.616 2.08247ZM120.638 92.8004L195.638 6.80042L190.362 2.19958L115.362 88.1996L120.638 92.8004ZM190.532 2.01792L104.532 87.5179L109.468 92.4821L195.468 6.98207L190.532 2.01792ZM109.662 92.2726L182.662 6.77263L177.338 2.22736L104.338 87.7274L109.662 92.2726ZM177.474 2.07705L94.9743 88.077L100.026 92.9229L182.526 6.92294L177.474 2.07705ZM100.222 92.6999L169.722 6.69991L164.278 2.30008L94.7778 88.3001L100.222 92.6999ZM164.416 2.13899L84.9163 89.139L90.0837 93.861L169.584 6.86099L164.416 2.13899ZM90.2422 93.6749L159.242 6.67487L153.758 2.32511L84.7578 89.3251L90.2422 93.6749ZM153.877 2.1823L77.8773 88.1823L83.1227 92.8177L159.123 6.81769L153.877 2.1823ZM83.2455 92.6708L151.245 6.67082L145.755 2.32917L77.7545 88.3292L83.2455 92.6708ZM145.87 2.1909L70.3698 88.1909L75.6302 92.8091L151.13 6.80909L145.87 2.1909ZM75.7532 92.6609L143.253 6.66095L137.747 2.33903L70.2468 88.339L75.7532 92.6609ZM137.872 2.18882L61.3716 89.1888L66.6284 93.8112L143.128 6.81117L137.872 2.18882ZM66.7653 93.6455L134.265 6.64548L128.735 2.3545L61.2347 89.3545L66.7653 93.6455ZM128.87 2.1909L53.3698 88.1909L58.6302 92.8091L134.13 6.80908L128.87 2.1909ZM58.7267 92.6943L126.727 8.19428L121.273 3.8057L53.2733 88.3057L58.7267 92.6943ZM121.442 3.61133L43.9418 86.6113L49.0582 91.3886L126.558 8.38865L121.442 3.61133ZM49.2328 91.1868L116.85 6.68677L111.385 2.31321L43.7672 86.8132L49.2328 91.1868ZM111.489 2.18887L35.8716 88.1889L41.1284 92.8111L116.746 6.81111L111.489 2.18887ZM41.261 92.651L108.261 6.651L102.739 2.34897L35.739 88.349L41.261 92.651ZM102.862 2.19957L27.8622 88.1996L33.1378 92.8004L108.138 6.80041L102.862 2.19957ZM33.3156 92.579L96.8156 6.57898L91.1844 2.421L27.6844 88.421L33.3156 92.579ZM91.3711 2.18939L17.1022 86.6894L22.36 91.3106L96.6289 6.81059L91.3711 2.18939ZM22.4422 91.2136L90.2111 8.21358L84.7889 3.7864L17.02 86.7864L22.4422 91.2136ZM84.9341 3.61959L7.93412 86.6196L13.0659 91.3804L90.0659 8.38038L84.9341 3.61959ZM13.2425 91.1745L80.2425 6.67452L74.7575 2.32545L7.75749 86.8254L13.2425 91.1745ZM74.8986 2.15844L2.89863 82.1477L8.10137 86.8308L80.1014 6.84154L74.8986 2.15844ZM8.25795 86.6442L70.758 6.65492L65.2421 2.34505L2.74206 82.3343L8.25795 86.6442ZM65.4045 2.15188L1.40454 72.8938L6.59546 77.59L70.5955 6.84809L65.4045 2.15188ZM6.81269 77.3249L60.3127 5.08297L54.6873 0.917003L1.18732 73.1589L6.81269 77.3249ZM54.8574 0.705112L1.35736 62.3126L6.64265 66.9024L60.1427 5.29486L54.8574 0.705112ZM6.92464 66.5301L47.4246 4.92261L41.5754 1.07736L1.07536 62.6849L6.92464 66.5301ZM41.7694 0.810539L1.26937 51.3213L6.73063 55.7002L47.2306 5.18943L41.7694 0.810539ZM6.95877 55.3804L37.9294 6.36967L32.0118 2.6303L1.04124 51.641L6.95877 55.3804ZM32.4006 2.12403L1.43001 35.624L6.57 40.3759L37.5406 6.87593L32.4006 2.12403ZM7.16809 39.4877L22.8992 5.98767L16.563 3.01229L0.831916 36.5123L7.16809 39.4877ZM16.9801 2.33618L1.24902 22.3362L6.751 26.6638L22.4821 6.66379L16.9801 2.33618Z" fill="currentColor"/>
</svg>
