<svg width="169" height="52" viewBox="0 0 169 52" fill="none" xmlns="http://www.w3.org/2000/svg">
<path d="M46.7926 8.35652L41.2064 39.6432H52.4054L57.983 8.35652H46.7926ZM61.8458 8.35652L60.3521 16.7219H73.9996L56.2593 39.6432H68.9879L78.6491 27.1566L76.4217 39.6432H87.6118L90.4052 24.0042H81.0884L93.1983 8.35652H61.8458ZM42.9301 8.35652H30.2104L36.6807 0H23.9613L11.8516 15.639H24.58L6 39.6432H18.7283L28.3897 27.1566L26.1623 39.6432H37.3525L40.1456 24.0042H30.8291L42.9301 8.35652ZM97.0611 8.35652L91.4749 39.6432H102.665L108.251 8.35652H97.0611ZM112.105 8.35652L110.62 16.7219H124.188L106.528 39.6432H119.248L128.794 27.2526L126.584 39.6432H137.783L140.576 24.0042H131.304L143.36 8.35652H112.105ZM154.188 31.2781L158.281 8.35652H147.09L141.504 39.6432H148.743L147.25 48H158.449L161.428 31.2781H154.188Z" fill="#00FFA3"/>
</svg>
