<svg width="144" height="42" viewBox="0 0 144 42" fill="none" xmlns="http://www.w3.org/2000/svg">
<g clip-path="url(#clip0_612_216)">
<path d="M88.1191 0.0169786C85.164 0.0139728 82.2418 0.636676 79.5446 1.84412C76.8475 3.05157 74.4366 4.8164 72.4704 7.02251C72.3017 7.19144 72.0146 7.19144 71.8628 7.02251C69.0301 3.85427 65.3021 1.62089 61.1721 0.617939C57.0422 -0.385011 52.7051 -0.110245 48.7348 1.40587C44.7645 2.92199 41.3481 5.60799 38.9378 9.10838C36.5276 12.6088 35.2371 16.7585 35.2371 21.0085C35.2371 25.2585 36.5276 29.4082 38.9378 32.9086C41.3481 36.409 44.7645 39.095 48.7348 40.6111C52.7051 42.1272 57.0422 42.402 61.1721 41.3991C65.3021 40.3961 69.0301 38.1627 71.8628 34.9945C72.0315 34.7918 72.3017 34.7918 72.4704 34.9945C74.8029 37.6061 77.7519 39.5924 81.0486 40.7726C84.3452 41.9527 87.8848 42.289 91.3448 41.751C94.8048 41.213 98.0751 39.8176 100.858 37.6921C103.64 35.5666 105.847 32.7785 107.276 29.582C108.705 26.3854 109.312 22.882 109.041 19.391C108.769 15.8999 107.629 12.5323 105.723 9.595C103.817 6.65767 101.206 4.24402 98.1282 2.57401C95.0505 0.904001 91.6039 0.0307229 88.1023 0.0337581M88.1023 31.9389C86.62 31.9257 85.1557 31.6122 83.7979 31.0174C82.4401 30.4227 81.2168 29.559 80.202 28.4784C79.6617 27.9045 78.9865 27.0942 78.2269 26.4188C77.878 26.1037 77.5291 25.8111 77.1802 25.541C75.715 24.4861 73.9552 23.9184 72.1497 23.9184C70.3441 23.9184 68.5843 24.4861 67.1191 25.541L66.0558 26.4188C65.3129 27.0942 64.6376 27.9045 64.0975 28.4784C63.0832 29.5539 61.862 30.4133 60.5073 31.0051C59.1525 31.5969 57.6922 31.9088 56.2139 31.9221H55.9438L55.2349 31.8714H55.066C52.3827 31.5917 49.8984 30.3272 48.0932 28.3224C46.2879 26.3176 45.2899 23.7148 45.292 21.017V21.0675V20.9663V21.017C45.2894 18.3218 46.2851 15.7211 48.0869 13.7166C49.8886 11.7122 52.3689 10.446 55.0492 10.1623H55.2349L55.5218 10.1286H55.9607L56.2139 10.1116C57.6894 10.1273 59.1465 10.4403 60.4982 11.032C61.8499 11.6238 63.0684 12.4821 64.0807 13.5556C64.6378 14.1295 65.3129 14.9398 66.0558 15.6149C66.4047 15.93 66.7592 16.2226 67.1193 16.4927C68.5845 17.5477 70.3443 18.1153 72.1498 18.1153C73.9553 18.1153 75.7152 17.5477 77.1804 16.4927L78.2271 15.6149C78.9867 14.9398 79.6619 14.1293 80.2022 13.5556C81.2165 12.4801 82.4376 11.6207 83.7923 11.0289C85.147 10.4371 86.6073 10.1252 88.0855 10.1118H88.3388L88.7777 10.1288L89.0478 10.1456L89.2503 10.1625C91.8179 10.4379 94.2044 11.6156 95.985 13.4858C97.7657 15.356 98.8248 17.7974 98.9739 20.3754V20.4768L98.9909 20.7806V21.6246C98.8451 24.2082 97.7853 26.6557 96.0009 28.5298C94.2165 30.4038 91.8238 31.5823 89.2505 31.8545L89.0478 31.8714L88.7777 31.9054H88.3388L88.1023 31.9389Z" fill="url(#paint0_linear_612_216)"/>
<path d="M16.324 15.2437L22.5701 17.2693C23.4985 17.6407 26.8577 18.4848 29.373 21C30.4621 22.1157 31.3196 23.436 31.8962 24.8846C32.4728 26.3332 32.757 27.8817 32.7325 29.4406C32.7325 38.6239 23.2453 41.9832 16.3577 41.9832C5.87452 41.9832 1.35047 37.341 0 36.1085L6.19521 28.1745C6.63431 28.7823 10.9221 32.7324 16.3577 32.7324C18.4678 32.7324 21.8103 31.9052 21.8103 29.3899C21.8103 27.7018 20.0884 26.3851 16.3579 25.2034L10.1118 23.1778C5.84077 21.4559 2.53201 18.4678 2.53201 12.5933C2.53201 9.38595 3.76426 6.92126 4.33816 6.04344C7.81585 0.624612 14.8048 0 17.2188 0C21.4727 0 24.6127 0.793349 26.8915 1.75562C29.7781 2.9711 31.2806 4.4903 31.9052 5.04742L26.7395 11.648C20.8313 8.00174 17.1511 8.27172 15.1255 8.99758C14.6203 9.15328 14.1718 9.45378 13.8357 9.86186C13.4996 10.2699 13.2907 10.7677 13.2347 11.2934C13.1504 12.1712 13.3024 14.0787 16.341 15.2267M130.069 0.236421H113.272V41.7638H123.333V27.9213H130.052C137.108 27.9213 143.472 23.7349 143.472 14.0787C143.472 4.42262 137.108 0.236421 130.052 0.236421M133.394 14.0787C133.394 14.7948 133.253 15.5038 132.979 16.1653C132.705 16.8269 132.304 17.428 131.797 17.9343C131.291 18.4406 130.69 18.8422 130.028 19.1163C129.367 19.3903 128.658 19.5313 127.942 19.5313H123.333V8.62617H127.942C128.658 8.62614 129.367 8.76716 130.028 9.04117C130.69 9.31518 131.291 9.71681 131.797 10.2231C132.303 10.7295 132.705 11.3306 132.979 11.9921C133.253 12.6537 133.394 13.3627 133.394 14.0787Z" fill="#FCFCFD"/>
</g>
<defs>
<linearGradient id="paint0_linear_612_216" x1="42.7934" y1="-1.97507" x2="104.122" y2="45.7309" gradientUnits="userSpaceOnUse">
<stop stop-color="#0082FF"/>
<stop offset="0.42" stop-color="#0A96FF"/>
<stop offset="0.56" stop-color="#05BCFF"/>
<stop offset="0.76" stop-color="#00F0FF"/>
<stop offset="0.79" stop-color="#04F0FC"/>
<stop offset="0.82" stop-color="#10F1F5"/>
<stop offset="0.85" stop-color="#24F4E8"/>
<stop offset="0.89" stop-color="#40F7D7"/>
<stop offset="0.92" stop-color="#64FBC1"/>
<stop offset="0.94" stop-color="#82FFB0"/>
</linearGradient>
<clipPath id="clip0_612_216">
<rect width="143.472" height="42" fill="white"/>
</clipPath>
</defs>
</svg>
