<svg width="157" height="52" viewBox="0 0 157 52" fill="none" xmlns="http://www.w3.org/2000/svg">
<g clip-path="url(#clip0_612_220)">
<path d="M153.589 36.9512H142.613V23.2653H139.869V36.9512H128.893V2.74403H139.869V12.318H148.101L153.589 17.7923V36.9512ZM126.162 23.2653H115.186V26.0093H126.162V36.958H109.706L104.218 31.4837V17.7923L109.706 12.318H126.162V23.2653ZM101.478 23.2653H91.8744V26.0093H101.478V36.958H86.3945L80.9065 31.4837V2.74403H91.8826V12.318H101.487L101.478 23.2653ZM78.1665 9.58079H67.1904V2.74403H78.1665V9.58079ZM78.1665 36.9512H67.1904V12.318H78.1665V36.9512ZM64.4464 36.9512H31.5413L26.0532 31.4768V12.318H37.0294V26.0025H39.7734V12.318H50.7495V26.0025H53.4936V12.318H64.4697L64.4464 36.9512ZM23.3133 23.2653H13.7202V26.0093H23.3243V36.958H8.2321L2.74403 31.4837V2.74403H13.7202V12.318H23.3243L23.3133 23.2653ZM149.476 9.58079H142.616V0H127.563L120.639 9.58079H108.336L104.22 13.6859V9.58079H94.6156V0H64.4532V9.58079H22.0099L15.0922 0H0V32.8461L19.1986 51.9994H38.3973V46.5251L43.8853 51.9994H80.9092V46.5251L86.3973 51.9994H104.221V46.5251L109.709 51.9994H143.993L156.341 39.6815V16.423L149.476 9.58079Z" fill="black"/>
<path d="M128.905 36.9511H139.876V23.2653H142.618V36.9511H153.589V17.7923L148.104 12.3179H139.876V2.73853H128.905V36.9511ZM80.9092 31.4768L86.3932 36.9511H101.479V26.0024H91.8799V23.2653H101.479V12.3179H91.8799V2.73853H80.9092V31.4768ZM104.221 31.4768L109.706 36.9511H126.162V26.0024H115.192V23.2653H126.162V12.3179H109.706L104.221 17.7923V31.4768ZM67.1959 2.73853H78.1666V9.58077H67.1959V2.73853ZM23.3133 12.3179H13.7133V2.73853H2.74268V31.4768L8.228 36.9511H23.3133V26.0024H13.7133V23.2653H23.3133V12.3179ZM26.056 31.4768L31.5399 36.9511H64.4533V12.3179H53.4826V26.0024H50.7386V12.3179H39.7693V26.0024H37.0266V12.3179H26.056V31.4768ZM67.1959 12.3179H78.1666V36.9511H67.1959V12.3179Z" fill="white"/>
</g>
<defs>
<clipPath id="clip0_612_220">
<rect width="156.343" height="52" fill="white"/>
</clipPath>
</defs>
</svg>
