<svg width="181" height="39" viewBox="0 0 181 39" fill="none" xmlns="http://www.w3.org/2000/svg">
<g clip-path="url(#clip0_612_226)">
<path d="M28.7913 38.7097C28.7913 38.7097 46.3752 38.7097 50.7359 37.5484C51.9163 37.2346 52.9943 36.6176 53.8627 35.7586C54.7312 34.8997 55.36 33.8286 55.6868 32.6516C56.8849 28.3548 56.8849 19.3161 56.8849 19.3161C56.8849 19.3161 56.8849 10.3355 55.6849 6.07742C55.3711 4.89462 54.747 3.81709 53.8773 2.95621C53.0076 2.09534 51.9237 1.48236 50.7378 1.18065C46.3752 0 28.7913 0 28.7913 0C28.7913 0 11.2462 0 6.90489 1.18065C5.72021 1.49415 4.63745 2.11043 3.76298 2.96895C2.88851 3.82747 2.2524 4.89871 1.91715 6.07742C0.755859 10.3355 0.755859 19.3161 0.755859 19.3161C0.755859 19.3161 0.755859 28.3548 1.91521 32.6516C2.26249 33.8245 2.90283 34.8895 3.77584 35.7463C4.64884 36.603 5.72573 37.2232 6.90489 37.5484C11.2462 38.7097 28.7913 38.7097 28.7913 38.7097Z" fill="#FF0033"/>
<path d="M37.53 19.3548L23.0139 11.129V27.5806L37.53 19.3548Z" fill="white"/>
<path d="M72.6358 36.5807V26.0129L79.3519 4.06453H74.339L71.7842 14.0323C71.2035 16.3161 70.6809 18.6968 70.2938 20.9032H69.9842C69.7713 18.9678 69.1519 16.4323 68.5326 13.9936L66.0551 4.06453H61.0422L67.6616 26.0129V36.5807H72.6358ZM86.1106 12.1936C80.2461 12.1936 78.2332 15.5807 78.2332 22.8774V26.3419C78.2332 32.8839 79.4913 36.9871 85.9945 36.9871C92.4009 36.9871 93.7751 33.0774 93.7751 26.3419V22.8774C93.7751 16.3549 92.459 12.1936 86.1106 12.1936ZM88.6074 28.4903C88.6074 31.6645 88.0461 33.6581 86.0138 33.6581C84.0203 33.6581 83.459 31.6452 83.459 28.4903V20.671C83.459 17.9613 83.8461 15.5419 86.0138 15.5419C88.2977 15.5419 88.6074 18.0968 88.6074 20.671V28.4903ZM101.925 36.9484C104.751 36.9484 106.513 35.7678 107.964 33.6387H108.177L108.39 36.5807H112.242V12.6581H107.132V31.8774C106.59 32.8258 105.332 33.5226 104.151 33.5226C102.661 33.5226 102.196 32.3419 102.196 30.3678V12.6581H97.1061V30.6C97.1061 34.4903 98.2287 36.9484 101.925 36.9484ZM122.354 36.5807V8.03227H128.238V4.06453H111.419V8.03227H117.303V36.5807H122.354ZM132.123 36.9484C134.949 36.9484 136.71 35.7678 138.162 33.6387H138.374L138.587 36.5807H142.439V12.6581H137.329V31.8774C136.787 32.8258 135.529 33.5226 134.349 33.5226C132.858 33.5226 132.394 32.3419 132.394 30.3678V12.6581H127.304V30.6C127.304 34.4903 128.426 36.9484 132.123 36.9484ZM156.899 12.1355C154.422 12.1355 152.641 13.2194 151.46 14.9807H151.209C151.364 12.6581 151.48 10.6839 151.48 9.11614V2.78711H146.544L146.525 23.5742L146.544 36.5807H150.841L151.209 34.2581H151.344C152.486 35.8258 154.247 36.8129 156.589 36.8129C160.48 36.8129 162.144 33.4645 162.144 26.3419V22.6452C162.144 15.9871 161.389 12.1355 156.899 12.1355ZM157.073 26.3419C157.073 30.7936 156.415 33.4452 154.344 33.4452C153.376 33.4452 152.041 32.9807 151.441 32.1097V17.8839C151.964 16.529 153.125 15.5419 154.422 15.5419C156.512 15.5419 157.073 18.0774 157.073 22.7032V26.3419ZM180.082 22.2581C180.082 16.4903 179.502 12.2129 172.863 12.2129C166.611 12.2129 165.218 16.3742 165.218 22.4903V26.6903C165.218 32.6516 166.495 36.9871 172.708 36.9871C177.624 36.9871 180.16 34.529 179.869 29.7678L175.514 29.5355C175.456 32.4774 174.779 33.6774 172.824 33.6774C170.366 33.6774 170.25 31.3355 170.25 27.8516V26.2258H180.082V22.2581ZM172.747 15.4258C175.108 15.4258 175.282 17.6516 175.282 21.4258V23.3807H170.25V21.4258C170.25 17.6903 170.405 15.4258 172.747 15.4258Z" fill="black"/>
</g>
<defs>
<clipPath id="clip0_612_226">
<rect width="180" height="38.7097" fill="white" transform="translate(0.755859)"/>
</clipPath>
</defs>
</svg>
