<svg width="2399" height="1634" viewBox="0 0 2399 1634" fill="none" xmlns="http://www.w3.org/2000/svg">
<mask id="path-1-inside-1_617_119" fill="white">
<path d="M559 708.71C559 712.615 558.05 716.333 556.597 719.71C555.182 722.998 552.57 725.712 550.068 728.21C547.953 730.322 545.097 732.601 542.395 733.96C538.577 735.88 535.247 736.71 530.676 736.71C527.878 736.71 525.176 736.305 522.625 735.55C519.36 734.585 516.489 733.577 513.838 731.585C509.592 728.394 506.139 723.506 504.252 718.46C503.117 715.424 503 712.139 503 708.71C503 702.26 503.589 695.819 507.277 691.085C510.115 687.442 515.57 684.106 519.857 682.21C523.355 680.663 526.6 680.71 530.676 680.71C535.86 680.71 540.844 681.533 545.017 683.96C548.595 686.042 551.854 688.954 554.2 692.335C555.708 694.508 557.148 696.903 557.994 699.46C558.904 702.213 559 705.654 559 708.71Z"/>
<path d="M1945 826.21C1945 832.137 1943.56 837.781 1941.35 842.906C1939.2 847.897 1935.24 852.017 1931.44 855.808C1928.23 859.014 1923.9 862.474 1919.8 864.536C1914 867.449 1908.95 868.71 1902.01 868.71C1897.76 868.71 1893.66 868.095 1889.79 866.95C1884.83 865.485 1880.47 863.955 1876.45 860.931C1870.01 856.087 1864.76 848.667 1861.9 841.009C1860.18 836.401 1860 831.415 1860 826.21C1860 816.42 1860.89 806.644 1866.49 799.458C1870.8 793.928 1879.08 788.865 1885.59 785.987C1890.9 783.639 1895.82 783.71 1902.01 783.71C1909.88 783.71 1917.44 784.959 1923.78 788.643C1929.21 791.803 1934.15 796.223 1937.71 801.355C1940 804.653 1942.19 808.288 1943.47 812.17C1944.85 816.348 1945 821.572 1945 826.21Z"/>
<path d="M1631 505.71C1631 512.265 1629.41 518.506 1626.97 524.174C1624.59 529.693 1620.21 534.249 1616.01 538.442C1612.46 541.987 1607.66 545.813 1603.13 548.094C1596.72 551.316 1591.13 552.71 1583.46 552.71C1578.76 552.71 1574.22 552.03 1569.94 550.764C1564.46 549.143 1559.64 547.452 1555.19 544.107C1548.07 538.751 1542.27 530.545 1539.1 522.076C1537.2 516.98 1537 511.466 1537 505.71C1537 494.883 1537.99 484.072 1544.18 476.125C1548.94 470.01 1558.1 464.411 1565.3 461.228C1571.17 458.631 1576.61 458.71 1583.46 458.71C1592.16 458.71 1600.52 460.091 1607.53 464.166C1613.54 467.66 1619 472.548 1622.94 478.224C1625.47 481.871 1627.89 485.89 1629.31 490.183C1630.84 494.804 1631 500.581 1631 505.71Z"/>
<path d="M1742 1212.21C1742 1222.46 1739.59 1232.22 1735.91 1241.09C1732.32 1249.72 1725.69 1256.84 1719.35 1263.4C1713.99 1268.94 1706.74 1274.92 1699.89 1278.49C1690.21 1283.53 1681.77 1285.71 1670.18 1285.71C1663.08 1285.71 1656.23 1284.65 1649.76 1282.67C1641.48 1280.13 1634.2 1277.49 1627.48 1272.26C1616.72 1263.88 1607.96 1251.05 1603.18 1237.8C1600.3 1229.83 1600 1221.21 1600 1212.21C1600 1195.28 1601.49 1178.37 1610.85 1165.94C1618.04 1156.38 1631.87 1147.63 1642.74 1142.65C1651.61 1138.59 1659.84 1138.71 1670.18 1138.71C1683.32 1138.71 1695.96 1140.87 1706.54 1147.24C1715.62 1152.71 1723.88 1160.35 1729.83 1169.23C1733.65 1174.93 1737.3 1181.22 1739.45 1187.93C1741.76 1195.16 1742 1204.19 1742 1212.21Z"/>
<path d="M559 1175.21C559 1183.23 557.117 1190.86 554.237 1197.8C551.432 1204.55 546.254 1210.13 541.296 1215.25C537.104 1219.59 531.441 1224.27 526.086 1227.06C518.518 1231 511.918 1232.71 502.857 1232.71C497.312 1232.71 491.955 1231.88 486.899 1230.33C480.428 1228.35 474.737 1226.28 469.483 1222.19C461.066 1215.63 454.221 1205.59 450.482 1195.23C448.232 1189 448 1182.25 448 1175.21C448 1161.96 449.167 1148.74 456.478 1139.02C462.104 1131.53 472.915 1124.68 481.413 1120.79C488.347 1117.61 494.778 1117.71 502.857 1117.71C513.134 1117.71 523.012 1119.4 531.283 1124.38C538.377 1128.66 544.835 1134.64 549.486 1141.58C552.474 1146.04 555.328 1150.96 557.005 1156.21C558.81 1161.87 559 1168.94 559 1175.21Z"/>
<path d="M1915 459.21C1915 467.229 1913.12 474.865 1910.24 481.799C1907.43 488.551 1902.25 494.125 1897.3 499.255C1893.1 503.592 1887.44 508.273 1882.09 511.063C1874.52 515.005 1867.92 516.71 1858.86 516.71C1853.31 516.71 1847.96 515.878 1842.9 514.329C1836.43 512.346 1830.74 510.277 1825.48 506.185C1817.07 499.632 1810.22 489.594 1806.48 479.232C1804.23 472.997 1804 466.252 1804 459.21C1804 445.964 1805.17 432.738 1812.48 423.016C1818.1 415.534 1828.92 408.685 1837.41 404.791C1844.35 401.613 1850.78 401.71 1858.86 401.71C1869.13 401.71 1879.01 403.4 1887.28 408.384C1894.38 412.659 1900.84 418.639 1905.49 425.583C1908.47 430.045 1911.33 434.963 1913.01 440.215C1914.81 445.868 1915 452.935 1915 459.21Z"/>
<path d="M653 379.21C653 385.974 651.406 392.414 648.966 398.264C646.591 403.959 642.206 408.66 638.007 412.987C634.457 416.645 629.662 420.593 625.127 422.947C618.718 426.271 613.129 427.71 605.456 427.71C600.76 427.71 596.223 427.008 591.941 425.702C586.462 424.029 581.642 422.284 577.193 418.833C570.065 413.305 564.268 404.838 561.102 396.098C559.197 390.839 559 385.149 559 379.21C559 368.038 559.989 356.881 566.18 348.681C570.944 342.371 580.099 336.593 587.296 333.308C593.167 330.629 598.614 330.71 605.456 330.71C614.159 330.71 622.524 332.135 629.528 336.34C635.535 339.945 641.005 344.989 644.943 350.846C647.474 354.61 649.891 358.758 651.311 363.188C652.839 367.956 653 373.917 653 379.21Z"/>
</mask>
<path d="M559 708.71C559 712.615 558.05 716.333 556.597 719.71C555.182 722.998 552.57 725.712 550.068 728.21C547.953 730.322 545.097 732.601 542.395 733.96C538.577 735.88 535.247 736.71 530.676 736.71C527.878 736.71 525.176 736.305 522.625 735.55C519.36 734.585 516.489 733.577 513.838 731.585C509.592 728.394 506.139 723.506 504.252 718.46C503.117 715.424 503 712.139 503 708.71C503 702.26 503.589 695.819 507.277 691.085C510.115 687.442 515.57 684.106 519.857 682.21C523.355 680.663 526.6 680.71 530.676 680.71C535.86 680.71 540.844 681.533 545.017 683.96C548.595 686.042 551.854 688.954 554.2 692.335C555.708 694.508 557.148 696.903 557.994 699.46C558.904 702.213 559 705.654 559 708.71Z" fill="#FEFEFE"/>
<path d="M1945 826.21C1945 832.137 1943.56 837.781 1941.35 842.906C1939.2 847.897 1935.24 852.017 1931.44 855.808C1928.23 859.014 1923.9 862.474 1919.8 864.536C1914 867.449 1908.95 868.71 1902.01 868.71C1897.76 868.71 1893.66 868.095 1889.79 866.95C1884.83 865.485 1880.47 863.955 1876.45 860.931C1870.01 856.087 1864.76 848.667 1861.9 841.009C1860.18 836.401 1860 831.415 1860 826.21C1860 816.42 1860.89 806.644 1866.49 799.458C1870.8 793.928 1879.08 788.865 1885.59 785.987C1890.9 783.639 1895.82 783.71 1902.01 783.71C1909.88 783.71 1917.44 784.959 1923.78 788.643C1929.21 791.803 1934.15 796.223 1937.71 801.355C1940 804.653 1942.19 808.288 1943.47 812.17C1944.85 816.348 1945 821.572 1945 826.21Z" fill="#FEFEFE"/>
<path d="M1631 505.71C1631 512.265 1629.41 518.506 1626.97 524.174C1624.59 529.693 1620.21 534.249 1616.01 538.442C1612.46 541.987 1607.66 545.813 1603.13 548.094C1596.72 551.316 1591.13 552.71 1583.46 552.71C1578.76 552.71 1574.22 552.03 1569.94 550.764C1564.46 549.143 1559.64 547.452 1555.19 544.107C1548.07 538.751 1542.27 530.545 1539.1 522.076C1537.2 516.98 1537 511.466 1537 505.71C1537 494.883 1537.99 484.072 1544.18 476.125C1548.94 470.01 1558.1 464.411 1565.3 461.228C1571.17 458.631 1576.61 458.71 1583.46 458.71C1592.16 458.71 1600.52 460.091 1607.53 464.166C1613.54 467.66 1619 472.548 1622.94 478.224C1625.47 481.871 1627.89 485.89 1629.31 490.183C1630.84 494.804 1631 500.581 1631 505.71Z" fill="#FEFEFE"/>
<path d="M1742 1212.21C1742 1222.46 1739.59 1232.22 1735.91 1241.09C1732.32 1249.72 1725.69 1256.84 1719.35 1263.4C1713.99 1268.94 1706.74 1274.92 1699.89 1278.49C1690.21 1283.53 1681.77 1285.71 1670.18 1285.71C1663.08 1285.71 1656.23 1284.65 1649.76 1282.67C1641.48 1280.13 1634.2 1277.49 1627.48 1272.26C1616.72 1263.88 1607.96 1251.05 1603.18 1237.8C1600.3 1229.83 1600 1221.21 1600 1212.21C1600 1195.28 1601.49 1178.37 1610.85 1165.94C1618.04 1156.38 1631.87 1147.63 1642.74 1142.65C1651.61 1138.59 1659.84 1138.71 1670.18 1138.71C1683.32 1138.71 1695.96 1140.87 1706.54 1147.24C1715.62 1152.71 1723.88 1160.35 1729.83 1169.23C1733.65 1174.93 1737.3 1181.22 1739.45 1187.93C1741.76 1195.16 1742 1204.19 1742 1212.21Z" fill="#2D2E38"/>
<path d="M559 1175.21C559 1183.23 557.117 1190.86 554.237 1197.8C551.432 1204.55 546.254 1210.13 541.296 1215.25C537.104 1219.59 531.441 1224.27 526.086 1227.06C518.518 1231 511.918 1232.71 502.857 1232.71C497.312 1232.71 491.955 1231.88 486.899 1230.33C480.428 1228.35 474.737 1226.28 469.483 1222.19C461.066 1215.63 454.221 1205.59 450.482 1195.23C448.232 1189 448 1182.25 448 1175.21C448 1161.96 449.167 1148.74 456.478 1139.02C462.104 1131.53 472.915 1124.68 481.413 1120.79C488.347 1117.61 494.778 1117.71 502.857 1117.71C513.134 1117.71 523.012 1119.4 531.283 1124.38C538.377 1128.66 544.835 1134.64 549.486 1141.58C552.474 1146.04 555.328 1150.96 557.005 1156.21C558.81 1161.87 559 1168.94 559 1175.21Z" fill="#2D2E38"/>
<path d="M1915 459.21C1915 467.229 1913.12 474.865 1910.24 481.799C1907.43 488.551 1902.25 494.125 1897.3 499.255C1893.1 503.592 1887.44 508.273 1882.09 511.063C1874.52 515.005 1867.92 516.71 1858.86 516.71C1853.31 516.71 1847.96 515.878 1842.9 514.329C1836.43 512.346 1830.74 510.277 1825.48 506.185C1817.07 499.632 1810.22 489.594 1806.48 479.232C1804.23 472.997 1804 466.252 1804 459.21C1804 445.964 1805.17 432.738 1812.48 423.016C1818.1 415.534 1828.92 408.685 1837.41 404.791C1844.35 401.613 1850.78 401.71 1858.86 401.71C1869.13 401.71 1879.01 403.4 1887.28 408.384C1894.38 412.659 1900.84 418.639 1905.49 425.583C1908.47 430.045 1911.33 434.963 1913.01 440.215C1914.81 445.868 1915 452.935 1915 459.21Z" fill="#2D2E38"/>
<path d="M653 379.21C653 385.974 651.406 392.414 648.966 398.264C646.591 403.959 642.206 408.66 638.007 412.987C634.457 416.645 629.662 420.593 625.127 422.947C618.718 426.271 613.129 427.71 605.456 427.71C600.76 427.71 596.223 427.008 591.941 425.702C586.462 424.029 581.642 422.284 577.193 418.833C570.065 413.305 564.268 404.838 561.102 396.098C559.197 390.839 559 385.149 559 379.21C559 368.038 559.989 356.881 566.18 348.681C570.944 342.371 580.099 336.593 587.296 333.308C593.167 330.629 598.614 330.71 605.456 330.71C614.159 330.71 622.524 332.135 629.528 336.34C635.535 339.945 641.005 344.989 644.943 350.846C647.474 354.61 649.891 358.758 651.311 363.188C652.839 367.956 653 373.917 653 379.21Z" fill="#2D2E38"/>
<path d="M559 708.71C559 712.615 558.05 716.333 556.597 719.71C555.182 722.998 552.57 725.712 550.068 728.21C547.953 730.322 545.097 732.601 542.395 733.96C538.577 735.88 535.247 736.71 530.676 736.71C527.878 736.71 525.176 736.305 522.625 735.55C519.36 734.585 516.489 733.577 513.838 731.585C509.592 728.394 506.139 723.506 504.252 718.46C503.117 715.424 503 712.139 503 708.71C503 702.26 503.589 695.819 507.277 691.085C510.115 687.442 515.57 684.106 519.857 682.21C523.355 680.663 526.6 680.71 530.676 680.71C535.86 680.71 540.844 681.533 545.017 683.96C548.595 686.042 551.854 688.954 554.2 692.335C555.708 694.508 557.148 696.903 557.994 699.46C558.904 702.213 559 705.654 559 708.71Z" stroke="#2D2E38" stroke-width="22" mask="url(#path-1-inside-1_617_119)"/>
<path d="M1945 826.21C1945 832.137 1943.56 837.781 1941.35 842.906C1939.2 847.897 1935.24 852.017 1931.44 855.808C1928.23 859.014 1923.9 862.474 1919.8 864.536C1914 867.449 1908.95 868.71 1902.01 868.71C1897.76 868.71 1893.66 868.095 1889.79 866.95C1884.83 865.485 1880.47 863.955 1876.45 860.931C1870.01 856.087 1864.76 848.667 1861.9 841.009C1860.18 836.401 1860 831.415 1860 826.21C1860 816.42 1860.89 806.644 1866.49 799.458C1870.8 793.928 1879.08 788.865 1885.59 785.987C1890.9 783.639 1895.82 783.71 1902.01 783.71C1909.88 783.71 1917.44 784.959 1923.78 788.643C1929.21 791.803 1934.15 796.223 1937.71 801.355C1940 804.653 1942.19 808.288 1943.47 812.17C1944.85 816.348 1945 821.572 1945 826.21Z" stroke="#2D2E38" stroke-width="22" mask="url(#path-1-inside-1_617_119)"/>
<path d="M1631 505.71C1631 512.265 1629.41 518.506 1626.97 524.174C1624.59 529.693 1620.21 534.249 1616.01 538.442C1612.46 541.987 1607.66 545.813 1603.13 548.094C1596.72 551.316 1591.13 552.71 1583.46 552.71C1578.76 552.71 1574.22 552.03 1569.94 550.764C1564.46 549.143 1559.64 547.452 1555.19 544.107C1548.07 538.751 1542.27 530.545 1539.1 522.076C1537.2 516.98 1537 511.466 1537 505.71C1537 494.883 1537.99 484.072 1544.18 476.125C1548.94 470.01 1558.1 464.411 1565.3 461.228C1571.17 458.631 1576.61 458.71 1583.46 458.71C1592.16 458.71 1600.52 460.091 1607.53 464.166C1613.54 467.66 1619 472.548 1622.94 478.224C1625.47 481.871 1627.89 485.89 1629.31 490.183C1630.84 494.804 1631 500.581 1631 505.71Z" stroke="#2D2E38" stroke-width="22" mask="url(#path-1-inside-1_617_119)"/>
<path d="M1742 1212.21C1742 1222.46 1739.59 1232.22 1735.91 1241.09C1732.32 1249.72 1725.69 1256.84 1719.35 1263.4C1713.99 1268.94 1706.74 1274.92 1699.89 1278.49C1690.21 1283.53 1681.77 1285.71 1670.18 1285.71C1663.08 1285.71 1656.23 1284.65 1649.76 1282.67C1641.48 1280.13 1634.2 1277.49 1627.48 1272.26C1616.72 1263.88 1607.96 1251.05 1603.18 1237.8C1600.3 1229.83 1600 1221.21 1600 1212.21C1600 1195.28 1601.49 1178.37 1610.85 1165.94C1618.04 1156.38 1631.87 1147.63 1642.74 1142.65C1651.61 1138.59 1659.84 1138.71 1670.18 1138.71C1683.32 1138.71 1695.96 1140.87 1706.54 1147.24C1715.62 1152.71 1723.88 1160.35 1729.83 1169.23C1733.65 1174.93 1737.3 1181.22 1739.45 1187.93C1741.76 1195.16 1742 1204.19 1742 1212.21Z" stroke="#2D2E38" stroke-width="22" mask="url(#path-1-inside-1_617_119)"/>
<path d="M559 1175.21C559 1183.23 557.117 1190.86 554.237 1197.8C551.432 1204.55 546.254 1210.13 541.296 1215.25C537.104 1219.59 531.441 1224.27 526.086 1227.06C518.518 1231 511.918 1232.71 502.857 1232.71C497.312 1232.71 491.955 1231.88 486.899 1230.33C480.428 1228.35 474.737 1226.28 469.483 1222.19C461.066 1215.63 454.221 1205.59 450.482 1195.23C448.232 1189 448 1182.25 448 1175.21C448 1161.96 449.167 1148.74 456.478 1139.02C462.104 1131.53 472.915 1124.68 481.413 1120.79C488.347 1117.61 494.778 1117.71 502.857 1117.71C513.134 1117.71 523.012 1119.4 531.283 1124.38C538.377 1128.66 544.835 1134.64 549.486 1141.58C552.474 1146.04 555.328 1150.96 557.005 1156.21C558.81 1161.87 559 1168.94 559 1175.21Z" stroke="#2D2E38" stroke-width="22" mask="url(#path-1-inside-1_617_119)"/>
<path d="M1915 459.21C1915 467.229 1913.12 474.865 1910.24 481.799C1907.43 488.551 1902.25 494.125 1897.3 499.255C1893.1 503.592 1887.44 508.273 1882.09 511.063C1874.52 515.005 1867.92 516.71 1858.86 516.71C1853.31 516.71 1847.96 515.878 1842.9 514.329C1836.43 512.346 1830.74 510.277 1825.48 506.185C1817.07 499.632 1810.22 489.594 1806.48 479.232C1804.23 472.997 1804 466.252 1804 459.21C1804 445.964 1805.17 432.738 1812.48 423.016C1818.1 415.534 1828.92 408.685 1837.41 404.791C1844.35 401.613 1850.78 401.71 1858.86 401.71C1869.13 401.71 1879.01 403.4 1887.28 408.384C1894.38 412.659 1900.84 418.639 1905.49 425.583C1908.47 430.045 1911.33 434.963 1913.01 440.215C1914.81 445.868 1915 452.935 1915 459.21Z" stroke="#2D2E38" stroke-width="22" mask="url(#path-1-inside-1_617_119)"/>
<path d="M653 379.21C653 385.974 651.406 392.414 648.966 398.264C646.591 403.959 642.206 408.66 638.007 412.987C634.457 416.645 629.662 420.593 625.127 422.947C618.718 426.271 613.129 427.71 605.456 427.71C600.76 427.71 596.223 427.008 591.941 425.702C586.462 424.029 581.642 422.284 577.193 418.833C570.065 413.305 564.268 404.838 561.102 396.098C559.197 390.839 559 385.149 559 379.21C559 368.038 559.989 356.881 566.18 348.681C570.944 342.371 580.099 336.593 587.296 333.308C593.167 330.629 598.614 330.71 605.456 330.71C614.159 330.71 622.524 332.135 629.528 336.34C635.535 339.945 641.005 344.989 644.943 350.846C647.474 354.61 649.891 358.758 651.311 363.188C652.839 367.956 653 373.917 653 379.21Z" stroke="#2D2E38" stroke-width="22" mask="url(#path-1-inside-1_617_119)"/>
</svg>
