<svg width="2399" height="1634" viewBox="0 0 2399 1634" fill="none" xmlns="http://www.w3.org/2000/svg">
<path d="M1124.17 302.531C1124.75 334.057 1140.64 462.449 1142.81 462.555C1144.97 462.661 1135.6 336.755 1134.17 306.487C1133.26 287.198 1131.64 267.613 1129.16 268.249C1126.68 268.885 1123.58 271.006 1124.17 302.531Z" fill="#2D2E38"/>
<path d="M1472.25 315.874C1457.08 341.097 1405.29 451.419 1406.84 452.72C1408.39 454.02 1463.77 349.331 1477.69 324.625C1486.56 308.88 1495.05 292.503 1492.91 291.612C1490.76 290.721 1487.42 290.65 1472.25 315.874Z" fill="#2D2E38"/>
<path d="M1848.94 625.31C1778.84 639.998 1499.68 729.869 1500.45 734.729C1501.23 739.589 1777.89 665.291 1844.79 649.255C1887.42 639.035 1930.37 627.11 1927.8 621.868C1925.22 616.626 1919.03 610.621 1848.94 625.31Z" fill="#2D2E38"/>
<path d="M2009.04 310.058C1971.5 329.397 1828.57 423.403 1830.04 425.908C1831.5 428.413 1976.25 343.245 2011.65 323.696C2034.21 311.238 2056.6 297.803 2054.01 295.384C2051.42 292.965 2046.58 290.719 2009.04 310.058Z" fill="#2D2E38"/>
<path d="M695.401 329.686C717.595 357.221 818.2 457.986 819.911 456.257C821.621 454.529 727.667 350.479 705.701 324.773C691.702 308.392 676.962 292.347 675.527 294.999C674.092 297.651 673.207 302.151 695.401 329.686Z" fill="#2D2E38"/>
<path d="M388.846 504.132C476.978 545.892 837.138 673.272 837.633 666.579C838.127 659.887 485.506 515.321 400.809 477.974C346.835 454.174 291.971 432.211 293.521 440.921C295.072 449.63 300.714 462.373 388.846 504.132Z" fill="#2D2E38"/>
<path d="M518.001 1057.38C555.961 1047.21 706.189 989.509 705.617 986.87C705.046 984.231 555.714 1033.32 519.549 1044.13C496.502 1051.02 473.327 1058.86 474.899 1061.65C476.47 1064.45 480.04 1067.55 518.001 1057.38Z" fill="#2D2E38"/>
<path d="M675.685 829.645C714.872 826.67 875.731 831.356 876.065 834.036C876.4 836.716 719.238 839.854 681.532 841.63C657.504 842.761 633.042 843.043 633.599 839.887C634.157 836.73 636.498 832.62 675.685 829.645Z" fill="#2D2E38"/>
<path d="M742.154 496.564C772.483 521.557 906.71 610.33 908.526 608.331C910.343 606.333 783.643 513.289 753.835 490.131C734.839 475.373 715 461.06 713.638 463.962C712.277 466.864 711.825 471.572 742.154 496.564Z" fill="#2D2E38"/>
<path d="M2053.44 1035.03C1990.27 1016.67 1717.72 965.083 1715.05 968.731C1712.39 972.378 1972.63 1033.64 2034.26 1049.77C2073.54 1060.05 2114.2 1069.3 2115.75 1064.65C2117.29 1060.01 2116.6 1053.39 2053.44 1035.03Z" fill="#2D2E38"/>
<path d="M361.489 1392.37C435.573 1354.06 718.412 1167.48 715.64 1162.47C712.868 1157.45 426.816 1326.35 356.901 1365.1C312.347 1389.79 268.084 1416.44 273.057 1421.29C278.03 1426.15 287.406 1430.68 361.489 1392.37Z" fill="#2D2E38"/>
<path d="M1511.11 1116.09C1482.68 1088.95 1355.28 990.635 1353.32 992.496C1351.37 994.357 1470.95 1096.39 1498.99 1121.65C1516.86 1137.76 1535.6 1153.48 1537.17 1150.68C1538.74 1147.89 1539.54 1143.22 1511.11 1116.09Z" fill="#2D2E38"/>
<path d="M1490.6 1330.46C1472.72 1299.73 1388.72 1185.15 1386.86 1186.74C1385 1188.33 1462.22 1305.57 1480.11 1334.4C1491.5 1352.77 1503.65 1370.87 1505.36 1368.3C1507.06 1365.73 1508.47 1361.2 1490.6 1330.46Z" fill="#2D2E38"/>
<path d="M880.783 1322.87C906.368 1293.04 997.771 1160.59 995.809 1158.73C993.847 1156.88 898.323 1281.72 874.581 1311.07C859.451 1329.77 844.75 1349.32 847.624 1350.74C850.498 1352.16 855.197 1352.7 880.783 1322.87Z" fill="#2D2E38"/>
<path d="M1076.91 1326.33C1089.1 1288.97 1122.74 1131.6 1120.21 1130.63C1117.69 1129.67 1077.33 1281.6 1066.65 1317.8C1059.85 1340.88 1053.77 1364.57 1056.97 1364.78C1060.17 1364.99 1064.71 1363.69 1076.91 1326.33Z" fill="#2D2E38"/>
<path d="M1981.8 869.419C1911.63 871.367 1637.45 850.83 1639.07 846.279C1640.68 841.727 1914.89 848.76 1981.51 848.721C2023.97 848.696 2066.48 850.139 2062.93 855.426C2059.38 860.713 2051.96 867.47 1981.8 869.419Z" fill="#2D2E38"/>
<path d="M2027.72 1084.77C1938.73 1045.54 1554.78 935.308 1551.03 943.103C1547.28 950.898 1913.88 1081.8 2000.7 1116.27C2056.03 1138.24 2113.32 1158 2115.5 1148.08C2117.67 1138.16 2116.7 1124 2027.72 1084.77Z" fill="#2D2E38"/>
</svg>
