<svg width="540" height="198" viewBox="0 0 540 198" fill="none" xmlns="http://www.w3.org/2000/svg">
<mask id="path-1-outside-1_616_422" maskUnits="userSpaceOnUse" x="0" y="0.709961" width="540" height="197" fill="black">
<rect fill="white" y="0.709961" width="540" height="197"/>
<path d="M159.827 183.56C150.915 185.12 152.308 183.56 153.533 181.555C154.926 176.876 156.82 171.473 158.658 166.182H146.794C145.958 166.126 146.905 163.174 148.075 163.063C151.862 162.728 156.485 162.784 159.883 162.84C161.443 158.328 162.891 153.983 163.894 150.363C161.443 150.363 160.997 150.419 158.546 150.419C151.807 150.419 149.467 150.586 148.52 150.419C147.741 150.363 148.632 147.689 149.801 147.578C157.878 146.798 162.668 147.132 171.525 147.077C172.137 147.077 172.639 147.355 172.639 147.801C172.639 148.692 172.694 150.029 172.304 150.363C171.58 150.92 170.912 151.31 170.299 152.257L159.827 183.56ZM177.373 144.737C178.599 144.069 181.384 142.732 183.389 142.732C183.834 143.122 183.946 143.735 184.001 144.069C184.001 144.069 184.224 144.793 184.224 147.077C183.89 158.328 184.001 171.083 184.336 185.9C184.391 187.125 184.28 187.515 181.384 187.738C180.827 187.794 180.938 187.794 180.047 187.738C178.877 187.571 177.707 187.459 177.652 186.457C176.928 173.813 177.317 159.498 177.373 144.737Z"/>
<path d="M212.079 180.831C211.689 180.887 211.132 180.887 210.353 180.831C206.454 180.887 201.663 181.165 195.759 181.165C194.924 181.165 193.141 181.165 192.918 180.33C192.751 180.218 192.696 179.996 192.696 179.828C192.473 176.431 192.027 175.874 192.027 148.191C193.253 147.467 196.984 146.241 198.823 146.241C199.38 146.52 199.602 147.021 199.658 147.244C199.658 147.244 199.769 148.246 199.769 150.474C199.714 153.259 199.658 153.426 199.658 161.447L207.289 161.392C207.178 156.601 207.178 155.877 207.178 148.803C208.403 148.079 212.079 146.854 213.973 146.854C214.474 147.132 214.642 147.522 214.697 147.856C214.697 147.856 214.809 148.859 214.809 151.087C214.753 154.039 214.697 153.761 214.697 161.503C214.697 166.85 214.753 171.585 214.864 177.433H215.087C216.201 177.433 215.978 177.99 216.145 178.436L215.031 180.218C214.976 180.831 213.527 180.831 212.079 180.831ZM199.658 164.455C199.658 169.635 199.714 172.755 199.769 177.823L207.623 177.6C207.456 175.762 207.345 172.755 207.289 164.399C204.727 164.455 202.276 164.288 199.658 164.455ZM222.161 144.681C223.386 144.013 226.172 142.676 228.177 142.676C228.567 143.066 228.734 143.679 228.789 144.013C228.789 144.013 229.012 144.737 229.012 147.021C228.678 158.217 228.789 171.585 229.124 186.345C229.179 187.627 229.068 187.961 226.172 188.184C225.559 188.239 225.726 188.239 224.835 188.184C223.665 188.016 222.495 187.905 222.44 186.902C221.715 174.258 222.105 159.442 222.161 144.681Z"/>
<path d="M263.69 159.888C264.804 161.67 267.087 166.683 269.594 171.028C269.872 171.641 269.037 171.808 268.257 172.086C267.422 172.365 264.915 172.922 263.912 173.144C262.576 173.423 262.409 172.755 261.35 170.972C260.013 168.688 258.454 165.458 256.783 162.394C253.162 166.46 249.43 170.582 246.701 173.59C244.362 173.701 242.134 173.701 241.075 173.646C237.789 173.367 238.792 172.309 239.85 170.916C242.301 168.131 250.433 159.219 254.833 154.039C250.99 154.039 244.306 154.318 240.407 154.039C239.627 153.983 239.85 151.031 241.02 150.976C243.86 150.753 246.812 150.697 249.486 150.641L249.653 143.623C250.767 142.955 254.443 141.674 256.393 141.674C256.839 141.952 257.061 142.509 257.117 142.732C257.117 142.732 257.228 143.679 257.228 145.907L257.061 150.641C260.013 150.641 262.186 150.697 262.854 150.697C263.523 150.697 264.024 151.031 264.024 151.533C264.024 152.312 264.692 153.705 264.247 154.039C263.523 154.54 263.021 154.986 262.241 155.933C261.239 157.103 260.181 158.384 259.067 159.721C260.403 159.442 261.796 159.219 262.798 158.997C263.077 159.052 263.411 159.386 263.69 159.888ZM236.174 182.948C236.396 182.502 236.953 181.499 238.792 181.499L271.376 181.388C271.933 181.388 272.1 181.499 272.1 181.834C272.1 182.781 272.1 184.507 270.207 184.507C260.905 184.786 247.091 184.674 237.678 184.674C236.174 184.674 235.839 183.95 236.174 182.948Z"/>
<path d="M308.27 168.633C304.148 168.633 300.249 168.911 293.398 168.911C292.451 168.911 290.669 168.911 290.557 168.02C290.39 167.909 290.334 167.797 290.334 167.574C290.112 164.121 289.61 153.148 289.666 147.299C290.891 146.631 294.345 145.406 296.239 145.406C296.74 145.628 296.963 146.185 297.019 146.464C297.241 149.249 297.019 150.753 297.019 154.819L303.981 154.763C303.925 152.981 303.981 148.581 303.925 147.411C305.095 146.742 308.437 145.461 310.331 145.461C310.832 145.74 310.999 146.185 311.055 146.52C311.111 148.413 311.055 151.811 311.055 155.487H318.742C318.742 150.474 318.686 145.851 318.519 144.236C319.8 143.567 322.752 142.231 324.757 142.231C325.147 142.621 325.314 143.178 325.37 143.567C325.37 143.567 325.481 144.292 325.481 146.575C325.871 152.424 325.314 164.232 325.649 169.301C325.704 170.304 325.649 170.694 324.367 170.916C322.139 171.195 321.805 171.195 320.079 170.972C319.187 170.861 318.519 170.582 318.519 169.914C318.63 167.296 318.686 163.118 318.742 158.774L311.055 158.829C311.055 161.057 311.111 163.285 311.166 165.179H311.445C312.615 165.179 312.28 166.293 312.058 166.683L311.389 167.964C311.334 168.521 309.718 168.633 308.27 168.633ZM297.019 157.771C297.019 160.166 297.074 163.174 297.13 165.569L304.315 165.346C304.148 163.007 304.037 159.999 303.981 157.66C301.419 157.771 299.636 157.604 297.019 157.771ZM297.074 175.54C297.13 174.871 298.801 174.815 300.416 174.815C303.424 174.648 316.402 174.593 321.805 174.537C322.808 174.314 323.755 174.203 324.423 174.203C324.869 174.481 325.092 174.927 325.147 175.205C325.147 175.205 325.203 178.547 325.147 186.568C325.147 187.404 325.036 188.184 324.423 188.184L318.352 188.295C317.405 188.295 316.959 187.014 316.959 185.566L317.126 177.266C310.442 177.322 302.032 177.322 300.472 177.378C300.026 177.322 298.467 176.932 297.965 176.598C297.13 176.152 297.074 175.985 297.074 175.54Z"/>
<path d="M341.915 168.354C340.913 168.633 336.512 168.354 335.398 168.298C334.061 168.131 334.229 166.962 335.008 165.681C337.404 161.336 344.366 150.586 346.65 147.522C347.207 146.742 348.321 145.071 349.658 145.35C350.27 145.406 355.45 146.074 355.618 146.575C355.785 147.355 355.005 148.413 353.724 150.419L351.551 153.705C353.39 153.204 355.896 152.758 357.456 152.424C357.734 152.535 358.068 152.869 358.347 153.315C360.129 156.267 363.638 160.89 366.925 166.126C367.148 166.739 365.477 167.407 364.752 167.686C363.917 167.964 362.246 168.02 361.243 168.298C359.906 168.577 360.018 168.577 358.904 166.795C356.732 163.564 353.055 158.328 350.883 154.763L341.915 168.354ZM332.725 182.948C332.947 182.502 333.504 181.499 335.343 181.499L367.927 181.388C368.484 181.388 368.651 181.499 368.651 181.834C368.651 182.781 368.651 184.507 366.758 184.507C357.456 184.786 343.642 184.674 334.229 184.674C332.725 184.674 332.39 183.95 332.725 182.948Z"/>
<path fill-rule="evenodd" clip-rule="evenodd" d="M332.299 115.148C226.319 109.625 124.484 111.686 18.3129 114.25C16.4207 114.295 14.8493 112.814 14.8032 110.94C14.757 109.067 16.2535 107.511 18.1458 107.465C124.304 104.902 226.383 102.833 332.659 108.371C360.961 109.846 418.781 109.848 462.51 109.477C480.039 109.329 495.268 109.121 505.38 108.925C505.921 108.572 506.569 108.366 507.265 108.366C510.828 108.366 513.496 108.378 515.348 108.399C517.046 108.418 518.347 108.445 518.896 108.519C518.959 108.528 519.059 108.542 519.175 108.566C519.255 108.583 519.513 108.637 519.818 108.763C519.989 108.838 520.406 109.073 520.645 109.246C521.016 109.586 521.708 110.68 521.908 111.454C521.909 112.347 521.378 113.764 520.983 114.255C520.71 114.508 520.221 114.847 520.021 114.953C519.676 115.122 519.377 115.194 519.297 115.213L519.295 115.214C519.169 115.244 519.063 115.263 518.998 115.274C518.866 115.295 518.744 115.309 518.659 115.318C518.332 115.351 517.851 115.378 517.303 115.403C516.16 115.454 514.375 115.51 512.053 115.568C502.749 115.8 484.429 116.078 462.569 116.263C418.886 116.633 360.848 116.635 332.299 115.148Z"/>
<path d="M65.2574 15.7256C58.6848 22.0755 51.7779 29.5393 46.6535 33.9953C56.9024 65.4104 62.918 83.0117 64.4776 89.5844C64.7004 90.9212 64.9232 92.3694 64.4776 93.2606C64.032 93.929 61.804 93.929 59.1304 93.929C56.5682 93.929 50.3297 93.7062 49.1043 91.2554C49.1043 89.473 48.8815 88.2476 48.4359 86.9108C44.2027 72.8743 40.6378 59.8404 35.0678 43.7986C31.7258 46.5836 27.9381 50.0371 24.2619 53.1563V55.2729C24.2619 66.97 24.5961 77.8873 24.5961 91.5896C24.5961 92.3694 24.2619 93.0378 23.1479 93.372C19.4717 94.2632 15.6841 94.3746 11.8964 93.4834C11.0052 93.2606 10.3368 92.5922 10.2254 91.701C9.77981 85.0169 9 66.8586 9 13.2748C11.228 11.938 19.6945 9.70996 23.4821 9.70996C23.8163 9.70996 24.1505 10.824 24.2619 11.4924C24.2619 11.4924 24.4847 14.8344 24.4847 19.179C24.3733 23.0781 24.2619 31.2103 24.2619 40.011C37.2958 28.8709 45.3167 19.5132 52.3349 13.1634C55.677 12.1608 59.9102 11.4924 63.3636 11.2696C65.703 11.1582 67.8196 12.6064 65.2574 15.7256Z"/>
<path d="M73.79 47.5863C76.2409 46.3608 78.9145 45.024 83.0363 43.91C87.9379 42.5732 88.9406 45.4696 88.9406 46.8064C89.7204 61.0658 89.7204 77.1075 89.7204 91.0326C89.7204 93.5948 85.9327 94.0404 84.2617 94.3746C81.5881 94.7088 78.4689 94.3746 75.6839 93.372C74.7926 92.3694 74.1242 87.0222 74.1242 84.9055L73.79 47.5863ZM72.3418 28.9823C71.8962 23.4123 79.5829 18.9562 85.8213 19.5132H85.7099C90.3888 19.8474 90.9458 22.8553 90.9458 26.7543C90.9458 30.8761 89.9432 35.4436 79.9171 35.8892C73.5672 36.0006 72.5646 30.9875 72.3418 28.9823Z"/>
<path d="M102.495 18.065C104.946 16.951 110.404 14.9458 112.632 14.5002C114.86 14.2774 117.311 14.3888 117.2 16.2826C116.977 23.6351 116.977 38.5628 116.42 46.4722C120.542 41.9048 125.332 40.4566 129.12 40.3452C142.376 40.011 149.395 51.9309 149.729 62.6254C150.397 77.8873 144.382 91.5896 124.664 92.815C121.322 92.9264 117.311 93.1492 114.638 91.144C114.526 93.5948 115.083 93.8176 113.635 94.486C110.85 95.2658 104.834 95.4886 101.047 95.2658C100.935 83.5687 101.047 77.1075 101.826 61.4C101.826 60.7316 102.384 43.6872 102.384 40.3452L102.495 18.065ZM115.083 83.4573C117.534 86.2423 121.099 88.0248 124.998 87.9134C133.242 87.3564 135.135 74.8795 135.135 65.4104C135.135 59.8403 133.576 45.9152 127.894 46.138C126.446 46.3608 121.767 48.7003 117.868 56.1641L115.974 57.5009C115.306 70.5348 114.972 77.3303 115.083 83.4573Z"/>
<path d="M158.537 47.5863C160.988 46.3608 163.662 45.024 167.784 43.91C172.685 42.5732 173.688 45.4696 173.688 46.8064C174.468 61.0658 174.468 77.1075 174.468 91.0326C174.468 93.5948 170.68 94.0404 169.009 94.3746C166.335 94.7088 163.216 94.3746 160.431 93.372C159.54 92.3694 158.872 87.0222 158.872 84.9055L158.537 47.5863ZM157.089 28.9823C156.644 23.4123 164.33 18.9562 170.569 19.5132H170.457C175.136 19.8474 175.693 22.8553 175.693 26.7543C175.693 30.8761 174.691 35.4436 164.664 35.8892C158.315 36.0006 157.312 30.9875 157.089 28.9823Z"/>
<path d="M233.585 48.1433C225.898 48.3661 218.212 48.8117 210.636 48.9231C211.082 62.6254 211.973 76.9961 213.533 92.7036C208.631 94.5974 205.178 94.486 201.836 94.3746C199.831 94.2632 198.605 93.7062 198.494 93.372C197.046 78.6671 196.043 63.8508 195.486 48.9231C192.032 48.9231 188.356 48.5889 184.569 48.3661C182.786 48.2547 180.113 47.5863 181.784 45.581C183.009 44.2442 183.9 43.5758 186.685 42.1276C189.47 42.3504 192.367 42.4618 195.374 42.5732C195.263 34.8866 195.263 27.0885 195.709 19.0676C197.714 18.1764 200.053 16.7282 204.398 15.1686H206.18C209.3 15.1686 210.191 16.7282 210.191 19.0676C210.191 27.1999 210.191 34.998 210.414 42.796C217.989 42.796 225.564 42.4618 233.585 42.1276C233.919 42.1276 234.699 42.1276 234.699 42.796C234.588 44.2442 234.142 46.8064 233.585 48.1433Z"/>
<path d="M237.119 92.7036C235.783 92.7036 234.557 92.4808 234.446 91.701C234.334 90.8098 234.557 89.5844 236.228 88.0248C243.135 81.1179 251.379 65.9674 270.094 46.138C256.615 46.138 250.933 46.5836 244.36 46.0266C241.687 45.6924 239.904 45.3582 241.687 43.6872C243.803 41.9048 246.366 40.568 248.594 39.8996C249.596 40.011 257.729 40.1224 258.397 40.1224C277.781 40.1224 284.019 39.8996 287.473 40.1224C287.473 40.9022 287.918 42.239 287.918 43.353V44.1328C285.022 46.5836 273.993 62.8482 252.938 86.7994C264.301 86.7994 273.659 86.3538 287.473 86.2423C287.918 87.5792 287.25 90.3642 286.693 92.0352C269.648 92.4808 256.726 92.7036 241.798 92.9264C240.461 92.9264 237.119 92.7036 237.119 92.7036Z"/>
<path d="M317.355 18.065C319.806 16.951 325.264 14.9458 327.492 14.5002C329.72 14.2774 332.171 14.3888 332.06 16.2826C331.837 23.6351 331.837 38.5628 331.28 46.4722C335.402 41.9048 340.192 40.4566 343.98 40.3452C357.236 40.011 364.255 51.9309 364.589 62.6254C365.257 77.8873 359.242 91.5896 339.524 92.815C336.182 92.9264 332.171 93.1492 329.498 91.144C329.386 93.5948 329.943 93.8176 328.495 94.486C325.71 95.2658 319.694 95.4886 315.907 95.2658C315.795 83.5687 315.907 77.1075 316.687 61.4C316.687 60.7316 317.244 43.6872 317.244 40.3452L317.355 18.065ZM329.943 83.4573C332.394 86.2423 335.959 88.0248 339.858 87.9134C348.102 87.3564 349.995 74.8795 349.995 65.4104C349.995 59.8403 348.436 45.9152 342.754 46.138C341.306 46.3608 336.627 48.7003 332.728 56.1641L330.834 57.5009C330.166 70.5348 329.832 77.3303 329.943 83.4573Z"/>
<path d="M374.734 80.3381C372.618 72.54 372.506 64.8534 372.061 46.9179L377.631 44.6898C380.638 43.4644 383.98 42.4618 385.652 42.6846C387.434 42.6846 387.88 46.2494 387.88 47.4749C387.88 52.1537 388.548 70.869 389.439 75.8821C391.222 85.6853 394.786 87.3564 399.02 87.245C404.812 87.0222 406.818 80.5609 407.263 78.2215C406.818 67.6384 407.263 56.2755 407.597 44.1328C407.709 40.4566 410.605 39.7882 414.616 38.7856C417.624 38.1172 420.631 38.6742 421.3 38.7856C422.191 39.1198 422.302 40.011 422.191 43.1302C421.745 49.9257 421.968 56.9439 422.191 64.0736C422.191 65.4104 422.414 77.2189 424.865 90.587C424.976 91.9238 425.644 93.2606 422.971 93.929C421.077 94.2632 418.181 94.8202 414.393 94.8202C412.833 94.8202 411.274 94.9316 410.605 94.1518C410.048 93.5948 409.603 92.258 409.38 90.1414C404.701 92.5922 399.688 93.929 394.007 93.5948C384.76 92.9264 377.185 88.8046 374.734 80.3381Z"/>
<path d="M432.159 109.748C432.604 108.411 436.058 104.735 438.843 103.732C441.962 102.395 442.965 102.618 443.967 104.401C446.195 109.637 447.978 112.087 449.092 113.313C452.211 116.321 454.996 118.326 457.001 117.992C460.677 117.657 461.012 109.637 461.457 106.74C461.457 105.292 462.014 101.838 462.014 90.9212V86.0195C459.675 86.4651 457.001 86.5766 455.776 86.5766C441.516 86.5766 432.382 78.8899 432.27 61.8456C432.827 49.0345 437.506 34.2182 456.11 32.7699C460.455 32.5471 464.242 32.8813 466.47 34.1068C468.03 33.5497 469.701 33.1041 471.595 33.1041H472.709C473.823 33.1041 476.051 33.5497 476.051 34.7752L476.273 63.9622C476.496 63.8508 477.165 63.7394 477.61 63.7394C479.393 63.628 479.393 66.1902 479.393 66.3016C479.393 66.5244 478.724 71.7602 476.942 76.4391V79.0013C476.273 91.144 478.279 103.844 471.706 115.652C468.921 120.777 462.126 123.227 454.328 123.227C445.638 123.227 434.61 119.106 432.159 109.748ZM446.307 61.1772C446.307 69.3094 448.869 81.2293 457.113 81.5635C460.789 81.6749 461.346 78.4443 461.68 75.3251C461.012 65.7446 461.123 57.6123 461.123 53.9361C461.346 47.8091 461.569 37.8944 455.776 37.6716C451.097 37.4488 446.418 47.1406 446.307 61.1772Z"/>
<path d="M485.888 91.8124C485.776 90.6984 488.673 87.4678 491.792 86.5766C493.686 85.9081 495.023 85.4625 495.803 86.2423C500.036 90.587 502.821 92.4808 505.717 92.5922C510.396 92.5922 513.515 88.916 514.072 83.1231C514.518 79.7811 513.404 73.8769 510.842 72.8742C507.277 71.5374 503.378 72.0944 499.813 71.0918C491.458 68.641 485.22 63.5166 486.334 54.8273C487.893 45.1354 498.699 33.6611 512.513 33.6611C521.313 33.6611 529.223 40.1224 530.448 48.0319C530.448 51.4853 521.759 53.3791 519.42 53.4905C516.412 49.1459 514.184 39.3426 508.391 40.1224C504.158 40.7908 502.152 47.4748 502.152 53.9361C502.152 59.2833 502.487 65.1876 507.277 66.0788C510.842 66.8586 514.406 66.7472 518.417 67.7498C527.775 69.755 530.225 75.1023 530.003 81.8977C529.334 94.9316 509.393 99.1648 498.142 97.828C492.683 97.1596 488.562 95.3772 485.888 91.8124Z"/>
</mask>
<path d="M159.827 183.56C150.915 185.12 152.308 183.56 153.533 181.555C154.926 176.876 156.82 171.473 158.658 166.182H146.794C145.958 166.126 146.905 163.174 148.075 163.063C151.862 162.728 156.485 162.784 159.883 162.84C161.443 158.328 162.891 153.983 163.894 150.363C161.443 150.363 160.997 150.419 158.546 150.419C151.807 150.419 149.467 150.586 148.52 150.419C147.741 150.363 148.632 147.689 149.801 147.578C157.878 146.798 162.668 147.132 171.525 147.077C172.137 147.077 172.639 147.355 172.639 147.801C172.639 148.692 172.694 150.029 172.304 150.363C171.58 150.92 170.912 151.31 170.299 152.257L159.827 183.56ZM177.373 144.737C178.599 144.069 181.384 142.732 183.389 142.732C183.834 143.122 183.946 143.735 184.001 144.069C184.001 144.069 184.224 144.793 184.224 147.077C183.89 158.328 184.001 171.083 184.336 185.9C184.391 187.125 184.28 187.515 181.384 187.738C180.827 187.794 180.938 187.794 180.047 187.738C178.877 187.571 177.707 187.459 177.652 186.457C176.928 173.813 177.317 159.498 177.373 144.737Z" fill="url(#paint0_linear_616_422)"/>
<path d="M212.079 180.831C211.689 180.887 211.132 180.887 210.353 180.831C206.454 180.887 201.663 181.165 195.759 181.165C194.924 181.165 193.141 181.165 192.918 180.33C192.751 180.218 192.696 179.996 192.696 179.828C192.473 176.431 192.027 175.874 192.027 148.191C193.253 147.467 196.984 146.241 198.823 146.241C199.38 146.52 199.602 147.021 199.658 147.244C199.658 147.244 199.769 148.246 199.769 150.474C199.714 153.259 199.658 153.426 199.658 161.447L207.289 161.392C207.178 156.601 207.178 155.877 207.178 148.803C208.403 148.079 212.079 146.854 213.973 146.854C214.474 147.132 214.642 147.522 214.697 147.856C214.697 147.856 214.809 148.859 214.809 151.087C214.753 154.039 214.697 153.761 214.697 161.503C214.697 166.85 214.753 171.585 214.864 177.433H215.087C216.201 177.433 215.978 177.99 216.145 178.436L215.031 180.218C214.976 180.831 213.527 180.831 212.079 180.831ZM199.658 164.455C199.658 169.635 199.714 172.755 199.769 177.823L207.623 177.6C207.456 175.762 207.345 172.755 207.289 164.399C204.727 164.455 202.276 164.288 199.658 164.455ZM222.161 144.681C223.386 144.013 226.172 142.676 228.177 142.676C228.567 143.066 228.734 143.679 228.789 144.013C228.789 144.013 229.012 144.737 229.012 147.021C228.678 158.217 228.789 171.585 229.124 186.345C229.179 187.627 229.068 187.961 226.172 188.184C225.559 188.239 225.726 188.239 224.835 188.184C223.665 188.016 222.495 187.905 222.44 186.902C221.715 174.258 222.105 159.442 222.161 144.681Z" fill="url(#paint1_linear_616_422)"/>
<path d="M263.69 159.888C264.804 161.67 267.087 166.683 269.594 171.028C269.872 171.641 269.037 171.808 268.257 172.086C267.422 172.365 264.915 172.922 263.912 173.144C262.576 173.423 262.409 172.755 261.35 170.972C260.013 168.688 258.454 165.458 256.783 162.394C253.162 166.46 249.43 170.582 246.701 173.59C244.362 173.701 242.134 173.701 241.075 173.646C237.789 173.367 238.792 172.309 239.85 170.916C242.301 168.131 250.433 159.219 254.833 154.039C250.99 154.039 244.306 154.318 240.407 154.039C239.627 153.983 239.85 151.031 241.02 150.976C243.86 150.753 246.812 150.697 249.486 150.641L249.653 143.623C250.767 142.955 254.443 141.674 256.393 141.674C256.839 141.952 257.061 142.509 257.117 142.732C257.117 142.732 257.228 143.679 257.228 145.907L257.061 150.641C260.013 150.641 262.186 150.697 262.854 150.697C263.523 150.697 264.024 151.031 264.024 151.533C264.024 152.312 264.692 153.705 264.247 154.039C263.523 154.54 263.021 154.986 262.241 155.933C261.239 157.103 260.181 158.384 259.067 159.721C260.403 159.442 261.796 159.219 262.798 158.997C263.077 159.052 263.411 159.386 263.69 159.888ZM236.174 182.948C236.396 182.502 236.953 181.499 238.792 181.499L271.376 181.388C271.933 181.388 272.1 181.499 272.1 181.834C272.1 182.781 272.1 184.507 270.207 184.507C260.905 184.786 247.091 184.674 237.678 184.674C236.174 184.674 235.839 183.95 236.174 182.948Z" fill="url(#paint2_linear_616_422)"/>
<path d="M308.27 168.633C304.148 168.633 300.249 168.911 293.398 168.911C292.451 168.911 290.669 168.911 290.557 168.02C290.39 167.909 290.334 167.797 290.334 167.574C290.112 164.121 289.61 153.148 289.666 147.299C290.891 146.631 294.345 145.406 296.239 145.406C296.74 145.628 296.963 146.185 297.019 146.464C297.241 149.249 297.019 150.753 297.019 154.819L303.981 154.763C303.925 152.981 303.981 148.581 303.925 147.411C305.095 146.742 308.437 145.461 310.331 145.461C310.832 145.74 310.999 146.185 311.055 146.52C311.111 148.413 311.055 151.811 311.055 155.487H318.742C318.742 150.474 318.686 145.851 318.519 144.236C319.8 143.567 322.752 142.231 324.757 142.231C325.147 142.621 325.314 143.178 325.37 143.567C325.37 143.567 325.481 144.292 325.481 146.575C325.871 152.424 325.314 164.232 325.649 169.301C325.704 170.304 325.649 170.694 324.367 170.916C322.139 171.195 321.805 171.195 320.079 170.972C319.187 170.861 318.519 170.582 318.519 169.914C318.63 167.296 318.686 163.118 318.742 158.774L311.055 158.829C311.055 161.057 311.111 163.285 311.166 165.179H311.445C312.615 165.179 312.28 166.293 312.058 166.683L311.389 167.964C311.334 168.521 309.718 168.633 308.27 168.633ZM297.019 157.771C297.019 160.166 297.074 163.174 297.13 165.569L304.315 165.346C304.148 163.007 304.037 159.999 303.981 157.66C301.419 157.771 299.636 157.604 297.019 157.771ZM297.074 175.54C297.13 174.871 298.801 174.815 300.416 174.815C303.424 174.648 316.402 174.593 321.805 174.537C322.808 174.314 323.755 174.203 324.423 174.203C324.869 174.481 325.092 174.927 325.147 175.205C325.147 175.205 325.203 178.547 325.147 186.568C325.147 187.404 325.036 188.184 324.423 188.184L318.352 188.295C317.405 188.295 316.959 187.014 316.959 185.566L317.126 177.266C310.442 177.322 302.032 177.322 300.472 177.378C300.026 177.322 298.467 176.932 297.965 176.598C297.13 176.152 297.074 175.985 297.074 175.54Z" fill="url(#paint3_linear_616_422)"/>
<path d="M341.915 168.354C340.913 168.633 336.512 168.354 335.398 168.298C334.061 168.131 334.229 166.962 335.008 165.681C337.404 161.336 344.366 150.586 346.65 147.522C347.207 146.742 348.321 145.071 349.658 145.35C350.27 145.406 355.45 146.074 355.618 146.575C355.785 147.355 355.005 148.413 353.724 150.419L351.551 153.705C353.39 153.204 355.896 152.758 357.456 152.424C357.734 152.535 358.068 152.869 358.347 153.315C360.129 156.267 363.638 160.89 366.925 166.126C367.148 166.739 365.477 167.407 364.752 167.686C363.917 167.964 362.246 168.02 361.243 168.298C359.906 168.577 360.018 168.577 358.904 166.795C356.732 163.564 353.055 158.328 350.883 154.763L341.915 168.354ZM332.725 182.948C332.947 182.502 333.504 181.499 335.343 181.499L367.927 181.388C368.484 181.388 368.651 181.499 368.651 181.834C368.651 182.781 368.651 184.507 366.758 184.507C357.456 184.786 343.642 184.674 334.229 184.674C332.725 184.674 332.39 183.95 332.725 182.948Z" fill="url(#paint4_linear_616_422)"/>
<path fill-rule="evenodd" clip-rule="evenodd" d="M332.299 115.148C226.319 109.625 124.484 111.686 18.3129 114.25C16.4207 114.295 14.8493 112.814 14.8032 110.94C14.757 109.067 16.2535 107.511 18.1458 107.465C124.304 104.902 226.383 102.833 332.659 108.371C360.961 109.846 418.781 109.848 462.51 109.477C480.039 109.329 495.268 109.121 505.38 108.925C505.921 108.572 506.569 108.366 507.265 108.366C510.828 108.366 513.496 108.378 515.348 108.399C517.046 108.418 518.347 108.445 518.896 108.519C518.959 108.528 519.059 108.542 519.175 108.566C519.255 108.583 519.513 108.637 519.818 108.763C519.989 108.838 520.406 109.073 520.645 109.246C521.016 109.586 521.708 110.68 521.908 111.454C521.909 112.347 521.378 113.764 520.983 114.255C520.71 114.508 520.221 114.847 520.021 114.953C519.676 115.122 519.377 115.194 519.297 115.213L519.295 115.214C519.169 115.244 519.063 115.263 518.998 115.274C518.866 115.295 518.744 115.309 518.659 115.318C518.332 115.351 517.851 115.378 517.303 115.403C516.16 115.454 514.375 115.51 512.053 115.568C502.749 115.8 484.429 116.078 462.569 116.263C418.886 116.633 360.848 116.635 332.299 115.148Z" fill="url(#paint5_linear_616_422)"/>
<path d="M65.2574 15.7256C58.6848 22.0755 51.7779 29.5393 46.6535 33.9953C56.9024 65.4104 62.918 83.0117 64.4776 89.5844C64.7004 90.9212 64.9232 92.3694 64.4776 93.2606C64.032 93.929 61.804 93.929 59.1304 93.929C56.5682 93.929 50.3297 93.7062 49.1043 91.2554C49.1043 89.473 48.8815 88.2476 48.4359 86.9108C44.2027 72.8743 40.6378 59.8404 35.0678 43.7986C31.7258 46.5836 27.9381 50.0371 24.2619 53.1563V55.2729C24.2619 66.97 24.5961 77.8873 24.5961 91.5896C24.5961 92.3694 24.2619 93.0378 23.1479 93.372C19.4717 94.2632 15.6841 94.3746 11.8964 93.4834C11.0052 93.2606 10.3368 92.5922 10.2254 91.701C9.77981 85.0169 9 66.8586 9 13.2748C11.228 11.938 19.6945 9.70996 23.4821 9.70996C23.8163 9.70996 24.1505 10.824 24.2619 11.4924C24.2619 11.4924 24.4847 14.8344 24.4847 19.179C24.3733 23.0781 24.2619 31.2103 24.2619 40.011C37.2958 28.8709 45.3167 19.5132 52.3349 13.1634C55.677 12.1608 59.9102 11.4924 63.3636 11.2696C65.703 11.1582 67.8196 12.6064 65.2574 15.7256Z" fill="url(#paint6_linear_616_422)"/>
<path d="M73.79 47.5863C76.2409 46.3608 78.9145 45.024 83.0363 43.91C87.9379 42.5732 88.9406 45.4696 88.9406 46.8064C89.7204 61.0658 89.7204 77.1075 89.7204 91.0326C89.7204 93.5948 85.9327 94.0404 84.2617 94.3746C81.5881 94.7088 78.4689 94.3746 75.6839 93.372C74.7926 92.3694 74.1242 87.0222 74.1242 84.9055L73.79 47.5863ZM72.3418 28.9823C71.8962 23.4123 79.5829 18.9562 85.8213 19.5132H85.7099C90.3888 19.8474 90.9458 22.8553 90.9458 26.7543C90.9458 30.8761 89.9432 35.4436 79.9171 35.8892C73.5672 36.0006 72.5646 30.9875 72.3418 28.9823Z" fill="url(#paint7_linear_616_422)"/>
<path d="M102.495 18.065C104.946 16.951 110.404 14.9458 112.632 14.5002C114.86 14.2774 117.311 14.3888 117.2 16.2826C116.977 23.6351 116.977 38.5628 116.42 46.4722C120.542 41.9048 125.332 40.4566 129.12 40.3452C142.376 40.011 149.395 51.9309 149.729 62.6254C150.397 77.8873 144.382 91.5896 124.664 92.815C121.322 92.9264 117.311 93.1492 114.638 91.144C114.526 93.5948 115.083 93.8176 113.635 94.486C110.85 95.2658 104.834 95.4886 101.047 95.2658C100.935 83.5687 101.047 77.1075 101.826 61.4C101.826 60.7316 102.384 43.6872 102.384 40.3452L102.495 18.065ZM115.083 83.4573C117.534 86.2423 121.099 88.0248 124.998 87.9134C133.242 87.3564 135.135 74.8795 135.135 65.4104C135.135 59.8403 133.576 45.9152 127.894 46.138C126.446 46.3608 121.767 48.7003 117.868 56.1641L115.974 57.5009C115.306 70.5348 114.972 77.3303 115.083 83.4573Z" fill="url(#paint8_linear_616_422)"/>
<path d="M158.537 47.5863C160.988 46.3608 163.662 45.024 167.784 43.91C172.685 42.5732 173.688 45.4696 173.688 46.8064C174.468 61.0658 174.468 77.1075 174.468 91.0326C174.468 93.5948 170.68 94.0404 169.009 94.3746C166.335 94.7088 163.216 94.3746 160.431 93.372C159.54 92.3694 158.872 87.0222 158.872 84.9055L158.537 47.5863ZM157.089 28.9823C156.644 23.4123 164.33 18.9562 170.569 19.5132H170.457C175.136 19.8474 175.693 22.8553 175.693 26.7543C175.693 30.8761 174.691 35.4436 164.664 35.8892C158.315 36.0006 157.312 30.9875 157.089 28.9823Z" fill="url(#paint9_linear_616_422)"/>
<path d="M233.585 48.1433C225.898 48.3661 218.212 48.8117 210.636 48.9231C211.082 62.6254 211.973 76.9961 213.533 92.7036C208.631 94.5974 205.178 94.486 201.836 94.3746C199.831 94.2632 198.605 93.7062 198.494 93.372C197.046 78.6671 196.043 63.8508 195.486 48.9231C192.032 48.9231 188.356 48.5889 184.569 48.3661C182.786 48.2547 180.113 47.5863 181.784 45.581C183.009 44.2442 183.9 43.5758 186.685 42.1276C189.47 42.3504 192.367 42.4618 195.374 42.5732C195.263 34.8866 195.263 27.0885 195.709 19.0676C197.714 18.1764 200.053 16.7282 204.398 15.1686H206.18C209.3 15.1686 210.191 16.7282 210.191 19.0676C210.191 27.1999 210.191 34.998 210.414 42.796C217.989 42.796 225.564 42.4618 233.585 42.1276C233.919 42.1276 234.699 42.1276 234.699 42.796C234.588 44.2442 234.142 46.8064 233.585 48.1433Z" fill="url(#paint10_linear_616_422)"/>
<path d="M237.119 92.7036C235.783 92.7036 234.557 92.4808 234.446 91.701C234.334 90.8098 234.557 89.5844 236.228 88.0248C243.135 81.1179 251.379 65.9674 270.094 46.138C256.615 46.138 250.933 46.5836 244.36 46.0266C241.687 45.6924 239.904 45.3582 241.687 43.6872C243.803 41.9048 246.366 40.568 248.594 39.8996C249.596 40.011 257.729 40.1224 258.397 40.1224C277.781 40.1224 284.019 39.8996 287.473 40.1224C287.473 40.9022 287.918 42.239 287.918 43.353V44.1328C285.022 46.5836 273.993 62.8482 252.938 86.7994C264.301 86.7994 273.659 86.3538 287.473 86.2423C287.918 87.5792 287.25 90.3642 286.693 92.0352C269.648 92.4808 256.726 92.7036 241.798 92.9264C240.461 92.9264 237.119 92.7036 237.119 92.7036Z" fill="url(#paint11_linear_616_422)"/>
<path d="M317.355 18.065C319.806 16.951 325.264 14.9458 327.492 14.5002C329.72 14.2774 332.171 14.3888 332.06 16.2826C331.837 23.6351 331.837 38.5628 331.28 46.4722C335.402 41.9048 340.192 40.4566 343.98 40.3452C357.236 40.011 364.255 51.9309 364.589 62.6254C365.257 77.8873 359.242 91.5896 339.524 92.815C336.182 92.9264 332.171 93.1492 329.498 91.144C329.386 93.5948 329.943 93.8176 328.495 94.486C325.71 95.2658 319.694 95.4886 315.907 95.2658C315.795 83.5687 315.907 77.1075 316.687 61.4C316.687 60.7316 317.244 43.6872 317.244 40.3452L317.355 18.065ZM329.943 83.4573C332.394 86.2423 335.959 88.0248 339.858 87.9134C348.102 87.3564 349.995 74.8795 349.995 65.4104C349.995 59.8403 348.436 45.9152 342.754 46.138C341.306 46.3608 336.627 48.7003 332.728 56.1641L330.834 57.5009C330.166 70.5348 329.832 77.3303 329.943 83.4573Z" fill="url(#paint12_linear_616_422)"/>
<path d="M374.734 80.3381C372.618 72.54 372.506 64.8534 372.061 46.9179L377.631 44.6898C380.638 43.4644 383.98 42.4618 385.652 42.6846C387.434 42.6846 387.88 46.2494 387.88 47.4749C387.88 52.1537 388.548 70.869 389.439 75.8821C391.222 85.6853 394.786 87.3564 399.02 87.245C404.812 87.0222 406.818 80.5609 407.263 78.2215C406.818 67.6384 407.263 56.2755 407.597 44.1328C407.709 40.4566 410.605 39.7882 414.616 38.7856C417.624 38.1172 420.631 38.6742 421.3 38.7856C422.191 39.1198 422.302 40.011 422.191 43.1302C421.745 49.9257 421.968 56.9439 422.191 64.0736C422.191 65.4104 422.414 77.2189 424.865 90.587C424.976 91.9238 425.644 93.2606 422.971 93.929C421.077 94.2632 418.181 94.8202 414.393 94.8202C412.833 94.8202 411.274 94.9316 410.605 94.1518C410.048 93.5948 409.603 92.258 409.38 90.1414C404.701 92.5922 399.688 93.929 394.007 93.5948C384.76 92.9264 377.185 88.8046 374.734 80.3381Z" fill="url(#paint13_linear_616_422)"/>
<path d="M432.159 109.748C432.604 108.411 436.058 104.735 438.843 103.732C441.962 102.395 442.965 102.618 443.967 104.401C446.195 109.637 447.978 112.087 449.092 113.313C452.211 116.321 454.996 118.326 457.001 117.992C460.677 117.657 461.012 109.637 461.457 106.74C461.457 105.292 462.014 101.838 462.014 90.9212V86.0195C459.675 86.4651 457.001 86.5766 455.776 86.5766C441.516 86.5766 432.382 78.8899 432.27 61.8456C432.827 49.0345 437.506 34.2182 456.11 32.7699C460.455 32.5471 464.242 32.8813 466.47 34.1068C468.03 33.5497 469.701 33.1041 471.595 33.1041H472.709C473.823 33.1041 476.051 33.5497 476.051 34.7752L476.273 63.9622C476.496 63.8508 477.165 63.7394 477.61 63.7394C479.393 63.628 479.393 66.1902 479.393 66.3016C479.393 66.5244 478.724 71.7602 476.942 76.4391V79.0013C476.273 91.144 478.279 103.844 471.706 115.652C468.921 120.777 462.126 123.227 454.328 123.227C445.638 123.227 434.61 119.106 432.159 109.748ZM446.307 61.1772C446.307 69.3094 448.869 81.2293 457.113 81.5635C460.789 81.6749 461.346 78.4443 461.68 75.3251C461.012 65.7446 461.123 57.6123 461.123 53.9361C461.346 47.8091 461.569 37.8944 455.776 37.6716C451.097 37.4488 446.418 47.1406 446.307 61.1772Z" fill="url(#paint14_linear_616_422)"/>
<path d="M485.888 91.8124C485.776 90.6984 488.673 87.4678 491.792 86.5766C493.686 85.9081 495.023 85.4625 495.803 86.2423C500.036 90.587 502.821 92.4808 505.717 92.5922C510.396 92.5922 513.515 88.916 514.072 83.1231C514.518 79.7811 513.404 73.8769 510.842 72.8742C507.277 71.5374 503.378 72.0944 499.813 71.0918C491.458 68.641 485.22 63.5166 486.334 54.8273C487.893 45.1354 498.699 33.6611 512.513 33.6611C521.313 33.6611 529.223 40.1224 530.448 48.0319C530.448 51.4853 521.759 53.3791 519.42 53.4905C516.412 49.1459 514.184 39.3426 508.391 40.1224C504.158 40.7908 502.152 47.4748 502.152 53.9361C502.152 59.2833 502.487 65.1876 507.277 66.0788C510.842 66.8586 514.406 66.7472 518.417 67.7498C527.775 69.755 530.225 75.1023 530.003 81.8977C529.334 94.9316 509.393 99.1648 498.142 97.828C492.683 97.1596 488.562 95.3772 485.888 91.8124Z" fill="url(#paint15_linear_616_422)"/>
<path d="M159.827 183.56C150.915 185.12 152.308 183.56 153.533 181.555C154.926 176.876 156.82 171.473 158.658 166.182H146.794C145.958 166.126 146.905 163.174 148.075 163.063C151.862 162.728 156.485 162.784 159.883 162.84C161.443 158.328 162.891 153.983 163.894 150.363C161.443 150.363 160.997 150.419 158.546 150.419C151.807 150.419 149.467 150.586 148.52 150.419C147.741 150.363 148.632 147.689 149.801 147.578C157.878 146.798 162.668 147.132 171.525 147.077C172.137 147.077 172.639 147.355 172.639 147.801C172.639 148.692 172.694 150.029 172.304 150.363C171.58 150.92 170.912 151.31 170.299 152.257L159.827 183.56ZM177.373 144.737C178.599 144.069 181.384 142.732 183.389 142.732C183.834 143.122 183.946 143.735 184.001 144.069C184.001 144.069 184.224 144.793 184.224 147.077C183.89 158.328 184.001 171.083 184.336 185.9C184.391 187.125 184.28 187.515 181.384 187.738C180.827 187.794 180.938 187.794 180.047 187.738C178.877 187.571 177.707 187.459 177.652 186.457C176.928 173.813 177.317 159.498 177.373 144.737Z" stroke="#2D2E38" stroke-width="18" mask="url(#path-1-outside-1_616_422)"/>
<path d="M212.079 180.831C211.689 180.887 211.132 180.887 210.353 180.831C206.454 180.887 201.663 181.165 195.759 181.165C194.924 181.165 193.141 181.165 192.918 180.33C192.751 180.218 192.696 179.996 192.696 179.828C192.473 176.431 192.027 175.874 192.027 148.191C193.253 147.467 196.984 146.241 198.823 146.241C199.38 146.52 199.602 147.021 199.658 147.244C199.658 147.244 199.769 148.246 199.769 150.474C199.714 153.259 199.658 153.426 199.658 161.447L207.289 161.392C207.178 156.601 207.178 155.877 207.178 148.803C208.403 148.079 212.079 146.854 213.973 146.854C214.474 147.132 214.642 147.522 214.697 147.856C214.697 147.856 214.809 148.859 214.809 151.087C214.753 154.039 214.697 153.761 214.697 161.503C214.697 166.85 214.753 171.585 214.864 177.433H215.087C216.201 177.433 215.978 177.99 216.145 178.436L215.031 180.218C214.976 180.831 213.527 180.831 212.079 180.831ZM199.658 164.455C199.658 169.635 199.714 172.755 199.769 177.823L207.623 177.6C207.456 175.762 207.345 172.755 207.289 164.399C204.727 164.455 202.276 164.288 199.658 164.455ZM222.161 144.681C223.386 144.013 226.172 142.676 228.177 142.676C228.567 143.066 228.734 143.679 228.789 144.013C228.789 144.013 229.012 144.737 229.012 147.021C228.678 158.217 228.789 171.585 229.124 186.345C229.179 187.627 229.068 187.961 226.172 188.184C225.559 188.239 225.726 188.239 224.835 188.184C223.665 188.016 222.495 187.905 222.44 186.902C221.715 174.258 222.105 159.442 222.161 144.681Z" stroke="#2D2E38" stroke-width="18" mask="url(#path-1-outside-1_616_422)"/>
<path d="M263.69 159.888C264.804 161.67 267.087 166.683 269.594 171.028C269.872 171.641 269.037 171.808 268.257 172.086C267.422 172.365 264.915 172.922 263.912 173.144C262.576 173.423 262.409 172.755 261.35 170.972C260.013 168.688 258.454 165.458 256.783 162.394C253.162 166.46 249.43 170.582 246.701 173.59C244.362 173.701 242.134 173.701 241.075 173.646C237.789 173.367 238.792 172.309 239.85 170.916C242.301 168.131 250.433 159.219 254.833 154.039C250.99 154.039 244.306 154.318 240.407 154.039C239.627 153.983 239.85 151.031 241.02 150.976C243.86 150.753 246.812 150.697 249.486 150.641L249.653 143.623C250.767 142.955 254.443 141.674 256.393 141.674C256.839 141.952 257.061 142.509 257.117 142.732C257.117 142.732 257.228 143.679 257.228 145.907L257.061 150.641C260.013 150.641 262.186 150.697 262.854 150.697C263.523 150.697 264.024 151.031 264.024 151.533C264.024 152.312 264.692 153.705 264.247 154.039C263.523 154.54 263.021 154.986 262.241 155.933C261.239 157.103 260.181 158.384 259.067 159.721C260.403 159.442 261.796 159.219 262.798 158.997C263.077 159.052 263.411 159.386 263.69 159.888ZM236.174 182.948C236.396 182.502 236.953 181.499 238.792 181.499L271.376 181.388C271.933 181.388 272.1 181.499 272.1 181.834C272.1 182.781 272.1 184.507 270.207 184.507C260.905 184.786 247.091 184.674 237.678 184.674C236.174 184.674 235.839 183.95 236.174 182.948Z" stroke="#2D2E38" stroke-width="18" mask="url(#path-1-outside-1_616_422)"/>
<path d="M308.27 168.633C304.148 168.633 300.249 168.911 293.398 168.911C292.451 168.911 290.669 168.911 290.557 168.02C290.39 167.909 290.334 167.797 290.334 167.574C290.112 164.121 289.61 153.148 289.666 147.299C290.891 146.631 294.345 145.406 296.239 145.406C296.74 145.628 296.963 146.185 297.019 146.464C297.241 149.249 297.019 150.753 297.019 154.819L303.981 154.763C303.925 152.981 303.981 148.581 303.925 147.411C305.095 146.742 308.437 145.461 310.331 145.461C310.832 145.74 310.999 146.185 311.055 146.52C311.111 148.413 311.055 151.811 311.055 155.487H318.742C318.742 150.474 318.686 145.851 318.519 144.236C319.8 143.567 322.752 142.231 324.757 142.231C325.147 142.621 325.314 143.178 325.37 143.567C325.37 143.567 325.481 144.292 325.481 146.575C325.871 152.424 325.314 164.232 325.649 169.301C325.704 170.304 325.649 170.694 324.367 170.916C322.139 171.195 321.805 171.195 320.079 170.972C319.187 170.861 318.519 170.582 318.519 169.914C318.63 167.296 318.686 163.118 318.742 158.774L311.055 158.829C311.055 161.057 311.111 163.285 311.166 165.179H311.445C312.615 165.179 312.28 166.293 312.058 166.683L311.389 167.964C311.334 168.521 309.718 168.633 308.27 168.633ZM297.019 157.771C297.019 160.166 297.074 163.174 297.13 165.569L304.315 165.346C304.148 163.007 304.037 159.999 303.981 157.66C301.419 157.771 299.636 157.604 297.019 157.771ZM297.074 175.54C297.13 174.871 298.801 174.815 300.416 174.815C303.424 174.648 316.402 174.593 321.805 174.537C322.808 174.314 323.755 174.203 324.423 174.203C324.869 174.481 325.092 174.927 325.147 175.205C325.147 175.205 325.203 178.547 325.147 186.568C325.147 187.404 325.036 188.184 324.423 188.184L318.352 188.295C317.405 188.295 316.959 187.014 316.959 185.566L317.126 177.266C310.442 177.322 302.032 177.322 300.472 177.378C300.026 177.322 298.467 176.932 297.965 176.598C297.13 176.152 297.074 175.985 297.074 175.54Z" stroke="#2D2E38" stroke-width="18" mask="url(#path-1-outside-1_616_422)"/>
<path d="M341.915 168.354C340.913 168.633 336.512 168.354 335.398 168.298C334.061 168.131 334.229 166.962 335.008 165.681C337.404 161.336 344.366 150.586 346.65 147.522C347.207 146.742 348.321 145.071 349.658 145.35C350.27 145.406 355.45 146.074 355.618 146.575C355.785 147.355 355.005 148.413 353.724 150.419L351.551 153.705C353.39 153.204 355.896 152.758 357.456 152.424C357.734 152.535 358.068 152.869 358.347 153.315C360.129 156.267 363.638 160.89 366.925 166.126C367.148 166.739 365.477 167.407 364.752 167.686C363.917 167.964 362.246 168.02 361.243 168.298C359.906 168.577 360.018 168.577 358.904 166.795C356.732 163.564 353.055 158.328 350.883 154.763L341.915 168.354ZM332.725 182.948C332.947 182.502 333.504 181.499 335.343 181.499L367.927 181.388C368.484 181.388 368.651 181.499 368.651 181.834C368.651 182.781 368.651 184.507 366.758 184.507C357.456 184.786 343.642 184.674 334.229 184.674C332.725 184.674 332.39 183.95 332.725 182.948Z" stroke="#2D2E38" stroke-width="18" mask="url(#path-1-outside-1_616_422)"/>
<path fill-rule="evenodd" clip-rule="evenodd" d="M332.299 115.148C226.319 109.625 124.484 111.686 18.3129 114.25C16.4207 114.295 14.8493 112.814 14.8032 110.94C14.757 109.067 16.2535 107.511 18.1458 107.465C124.304 104.902 226.383 102.833 332.659 108.371C360.961 109.846 418.781 109.848 462.51 109.477C480.039 109.329 495.268 109.121 505.38 108.925C505.921 108.572 506.569 108.366 507.265 108.366C510.828 108.366 513.496 108.378 515.348 108.399C517.046 108.418 518.347 108.445 518.896 108.519C518.959 108.528 519.059 108.542 519.175 108.566C519.255 108.583 519.513 108.637 519.818 108.763C519.989 108.838 520.406 109.073 520.645 109.246C521.016 109.586 521.708 110.68 521.908 111.454C521.909 112.347 521.378 113.764 520.983 114.255C520.71 114.508 520.221 114.847 520.021 114.953C519.676 115.122 519.377 115.194 519.297 115.213L519.295 115.214C519.169 115.244 519.063 115.263 518.998 115.274C518.866 115.295 518.744 115.309 518.659 115.318C518.332 115.351 517.851 115.378 517.303 115.403C516.16 115.454 514.375 115.51 512.053 115.568C502.749 115.8 484.429 116.078 462.569 116.263C418.886 116.633 360.848 116.635 332.299 115.148Z" stroke="#2D2E38" stroke-width="18" mask="url(#path-1-outside-1_616_422)"/>
<path d="M65.2574 15.7256C58.6848 22.0755 51.7779 29.5393 46.6535 33.9953C56.9024 65.4104 62.918 83.0117 64.4776 89.5844C64.7004 90.9212 64.9232 92.3694 64.4776 93.2606C64.032 93.929 61.804 93.929 59.1304 93.929C56.5682 93.929 50.3297 93.7062 49.1043 91.2554C49.1043 89.473 48.8815 88.2476 48.4359 86.9108C44.2027 72.8743 40.6378 59.8404 35.0678 43.7986C31.7258 46.5836 27.9381 50.0371 24.2619 53.1563V55.2729C24.2619 66.97 24.5961 77.8873 24.5961 91.5896C24.5961 92.3694 24.2619 93.0378 23.1479 93.372C19.4717 94.2632 15.6841 94.3746 11.8964 93.4834C11.0052 93.2606 10.3368 92.5922 10.2254 91.701C9.77981 85.0169 9 66.8586 9 13.2748C11.228 11.938 19.6945 9.70996 23.4821 9.70996C23.8163 9.70996 24.1505 10.824 24.2619 11.4924C24.2619 11.4924 24.4847 14.8344 24.4847 19.179C24.3733 23.0781 24.2619 31.2103 24.2619 40.011C37.2958 28.8709 45.3167 19.5132 52.3349 13.1634C55.677 12.1608 59.9102 11.4924 63.3636 11.2696C65.703 11.1582 67.8196 12.6064 65.2574 15.7256Z" stroke="#2D2E38" stroke-width="18" mask="url(#path-1-outside-1_616_422)"/>
<path d="M73.79 47.5863C76.2409 46.3608 78.9145 45.024 83.0363 43.91C87.9379 42.5732 88.9406 45.4696 88.9406 46.8064C89.7204 61.0658 89.7204 77.1075 89.7204 91.0326C89.7204 93.5948 85.9327 94.0404 84.2617 94.3746C81.5881 94.7088 78.4689 94.3746 75.6839 93.372C74.7926 92.3694 74.1242 87.0222 74.1242 84.9055L73.79 47.5863ZM72.3418 28.9823C71.8962 23.4123 79.5829 18.9562 85.8213 19.5132H85.7099C90.3888 19.8474 90.9458 22.8553 90.9458 26.7543C90.9458 30.8761 89.9432 35.4436 79.9171 35.8892C73.5672 36.0006 72.5646 30.9875 72.3418 28.9823Z" stroke="#2D2E38" stroke-width="18" mask="url(#path-1-outside-1_616_422)"/>
<path d="M102.495 18.065C104.946 16.951 110.404 14.9458 112.632 14.5002C114.86 14.2774 117.311 14.3888 117.2 16.2826C116.977 23.6351 116.977 38.5628 116.42 46.4722C120.542 41.9048 125.332 40.4566 129.12 40.3452C142.376 40.011 149.395 51.9309 149.729 62.6254C150.397 77.8873 144.382 91.5896 124.664 92.815C121.322 92.9264 117.311 93.1492 114.638 91.144C114.526 93.5948 115.083 93.8176 113.635 94.486C110.85 95.2658 104.834 95.4886 101.047 95.2658C100.935 83.5687 101.047 77.1075 101.826 61.4C101.826 60.7316 102.384 43.6872 102.384 40.3452L102.495 18.065ZM115.083 83.4573C117.534 86.2423 121.099 88.0248 124.998 87.9134C133.242 87.3564 135.135 74.8795 135.135 65.4104C135.135 59.8403 133.576 45.9152 127.894 46.138C126.446 46.3608 121.767 48.7003 117.868 56.1641L115.974 57.5009C115.306 70.5348 114.972 77.3303 115.083 83.4573Z" stroke="#2D2E38" stroke-width="18" mask="url(#path-1-outside-1_616_422)"/>
<path d="M158.537 47.5863C160.988 46.3608 163.662 45.024 167.784 43.91C172.685 42.5732 173.688 45.4696 173.688 46.8064C174.468 61.0658 174.468 77.1075 174.468 91.0326C174.468 93.5948 170.68 94.0404 169.009 94.3746C166.335 94.7088 163.216 94.3746 160.431 93.372C159.54 92.3694 158.872 87.0222 158.872 84.9055L158.537 47.5863ZM157.089 28.9823C156.644 23.4123 164.33 18.9562 170.569 19.5132H170.457C175.136 19.8474 175.693 22.8553 175.693 26.7543C175.693 30.8761 174.691 35.4436 164.664 35.8892C158.315 36.0006 157.312 30.9875 157.089 28.9823Z" stroke="#2D2E38" stroke-width="18" mask="url(#path-1-outside-1_616_422)"/>
<path d="M233.585 48.1433C225.898 48.3661 218.212 48.8117 210.636 48.9231C211.082 62.6254 211.973 76.9961 213.533 92.7036C208.631 94.5974 205.178 94.486 201.836 94.3746C199.831 94.2632 198.605 93.7062 198.494 93.372C197.046 78.6671 196.043 63.8508 195.486 48.9231C192.032 48.9231 188.356 48.5889 184.569 48.3661C182.786 48.2547 180.113 47.5863 181.784 45.581C183.009 44.2442 183.9 43.5758 186.685 42.1276C189.47 42.3504 192.367 42.4618 195.374 42.5732C195.263 34.8866 195.263 27.0885 195.709 19.0676C197.714 18.1764 200.053 16.7282 204.398 15.1686H206.18C209.3 15.1686 210.191 16.7282 210.191 19.0676C210.191 27.1999 210.191 34.998 210.414 42.796C217.989 42.796 225.564 42.4618 233.585 42.1276C233.919 42.1276 234.699 42.1276 234.699 42.796C234.588 44.2442 234.142 46.8064 233.585 48.1433Z" stroke="#2D2E38" stroke-width="18" mask="url(#path-1-outside-1_616_422)"/>
<path d="M237.119 92.7036C235.783 92.7036 234.557 92.4808 234.446 91.701C234.334 90.8098 234.557 89.5844 236.228 88.0248C243.135 81.1179 251.379 65.9674 270.094 46.138C256.615 46.138 250.933 46.5836 244.36 46.0266C241.687 45.6924 239.904 45.3582 241.687 43.6872C243.803 41.9048 246.366 40.568 248.594 39.8996C249.596 40.011 257.729 40.1224 258.397 40.1224C277.781 40.1224 284.019 39.8996 287.473 40.1224C287.473 40.9022 287.918 42.239 287.918 43.353V44.1328C285.022 46.5836 273.993 62.8482 252.938 86.7994C264.301 86.7994 273.659 86.3538 287.473 86.2423C287.918 87.5792 287.25 90.3642 286.693 92.0352C269.648 92.4808 256.726 92.7036 241.798 92.9264C240.461 92.9264 237.119 92.7036 237.119 92.7036Z" stroke="#2D2E38" stroke-width="18" mask="url(#path-1-outside-1_616_422)"/>
<path d="M317.355 18.065C319.806 16.951 325.264 14.9458 327.492 14.5002C329.72 14.2774 332.171 14.3888 332.06 16.2826C331.837 23.6351 331.837 38.5628 331.28 46.4722C335.402 41.9048 340.192 40.4566 343.98 40.3452C357.236 40.011 364.255 51.9309 364.589 62.6254C365.257 77.8873 359.242 91.5896 339.524 92.815C336.182 92.9264 332.171 93.1492 329.498 91.144C329.386 93.5948 329.943 93.8176 328.495 94.486C325.71 95.2658 319.694 95.4886 315.907 95.2658C315.795 83.5687 315.907 77.1075 316.687 61.4C316.687 60.7316 317.244 43.6872 317.244 40.3452L317.355 18.065ZM329.943 83.4573C332.394 86.2423 335.959 88.0248 339.858 87.9134C348.102 87.3564 349.995 74.8795 349.995 65.4104C349.995 59.8403 348.436 45.9152 342.754 46.138C341.306 46.3608 336.627 48.7003 332.728 56.1641L330.834 57.5009C330.166 70.5348 329.832 77.3303 329.943 83.4573Z" stroke="#2D2E38" stroke-width="18" mask="url(#path-1-outside-1_616_422)"/>
<path d="M374.734 80.3381C372.618 72.54 372.506 64.8534 372.061 46.9179L377.631 44.6898C380.638 43.4644 383.98 42.4618 385.652 42.6846C387.434 42.6846 387.88 46.2494 387.88 47.4749C387.88 52.1537 388.548 70.869 389.439 75.8821C391.222 85.6853 394.786 87.3564 399.02 87.245C404.812 87.0222 406.818 80.5609 407.263 78.2215C406.818 67.6384 407.263 56.2755 407.597 44.1328C407.709 40.4566 410.605 39.7882 414.616 38.7856C417.624 38.1172 420.631 38.6742 421.3 38.7856C422.191 39.1198 422.302 40.011 422.191 43.1302C421.745 49.9257 421.968 56.9439 422.191 64.0736C422.191 65.4104 422.414 77.2189 424.865 90.587C424.976 91.9238 425.644 93.2606 422.971 93.929C421.077 94.2632 418.181 94.8202 414.393 94.8202C412.833 94.8202 411.274 94.9316 410.605 94.1518C410.048 93.5948 409.603 92.258 409.38 90.1414C404.701 92.5922 399.688 93.929 394.007 93.5948C384.76 92.9264 377.185 88.8046 374.734 80.3381Z" stroke="#2D2E38" stroke-width="18" mask="url(#path-1-outside-1_616_422)"/>
<path d="M432.159 109.748C432.604 108.411 436.058 104.735 438.843 103.732C441.962 102.395 442.965 102.618 443.967 104.401C446.195 109.637 447.978 112.087 449.092 113.313C452.211 116.321 454.996 118.326 457.001 117.992C460.677 117.657 461.012 109.637 461.457 106.74C461.457 105.292 462.014 101.838 462.014 90.9212V86.0195C459.675 86.4651 457.001 86.5766 455.776 86.5766C441.516 86.5766 432.382 78.8899 432.27 61.8456C432.827 49.0345 437.506 34.2182 456.11 32.7699C460.455 32.5471 464.242 32.8813 466.47 34.1068C468.03 33.5497 469.701 33.1041 471.595 33.1041H472.709C473.823 33.1041 476.051 33.5497 476.051 34.7752L476.273 63.9622C476.496 63.8508 477.165 63.7394 477.61 63.7394C479.393 63.628 479.393 66.1902 479.393 66.3016C479.393 66.5244 478.724 71.7602 476.942 76.4391V79.0013C476.273 91.144 478.279 103.844 471.706 115.652C468.921 120.777 462.126 123.227 454.328 123.227C445.638 123.227 434.61 119.106 432.159 109.748ZM446.307 61.1772C446.307 69.3094 448.869 81.2293 457.113 81.5635C460.789 81.6749 461.346 78.4443 461.68 75.3251C461.012 65.7446 461.123 57.6123 461.123 53.9361C461.346 47.8091 461.569 37.8944 455.776 37.6716C451.097 37.4488 446.418 47.1406 446.307 61.1772Z" stroke="#2D2E38" stroke-width="18" mask="url(#path-1-outside-1_616_422)"/>
<path d="M485.888 91.8124C485.776 90.6984 488.673 87.4678 491.792 86.5766C493.686 85.9081 495.023 85.4625 495.803 86.2423C500.036 90.587 502.821 92.4808 505.717 92.5922C510.396 92.5922 513.515 88.916 514.072 83.1231C514.518 79.7811 513.404 73.8769 510.842 72.8742C507.277 71.5374 503.378 72.0944 499.813 71.0918C491.458 68.641 485.22 63.5166 486.334 54.8273C487.893 45.1354 498.699 33.6611 512.513 33.6611C521.313 33.6611 529.223 40.1224 530.448 48.0319C530.448 51.4853 521.759 53.3791 519.42 53.4905C516.412 49.1459 514.184 39.3426 508.391 40.1224C504.158 40.7908 502.152 47.4748 502.152 53.9361C502.152 59.2833 502.487 65.1876 507.277 66.0788C510.842 66.8586 514.406 66.7472 518.417 67.7498C527.775 69.755 530.225 75.1023 530.003 81.8977C529.334 94.9316 509.393 99.1648 498.142 97.828C492.683 97.1596 488.562 95.3772 485.888 91.8124Z" stroke="#2D2E38" stroke-width="18" mask="url(#path-1-outside-1_616_422)"/>
<defs>
<linearGradient id="paint0_linear_616_422" x1="269.724" y1="9.70996" x2="269.724" y2="188.295" gradientUnits="userSpaceOnUse">
<stop offset="0.075" stop-color="#F3F3F5"/>
<stop offset="1" stop-color="#ECECEC"/>
</linearGradient>
<linearGradient id="paint1_linear_616_422" x1="269.724" y1="9.70996" x2="269.724" y2="188.295" gradientUnits="userSpaceOnUse">
<stop offset="0.075" stop-color="#F3F3F5"/>
<stop offset="1" stop-color="#ECECEC"/>
</linearGradient>
<linearGradient id="paint2_linear_616_422" x1="269.724" y1="9.70996" x2="269.724" y2="188.295" gradientUnits="userSpaceOnUse">
<stop offset="0.075" stop-color="#F3F3F5"/>
<stop offset="1" stop-color="#ECECEC"/>
</linearGradient>
<linearGradient id="paint3_linear_616_422" x1="269.724" y1="9.70996" x2="269.724" y2="188.295" gradientUnits="userSpaceOnUse">
<stop offset="0.075" stop-color="#F3F3F5"/>
<stop offset="1" stop-color="#ECECEC"/>
</linearGradient>
<linearGradient id="paint4_linear_616_422" x1="269.724" y1="9.70996" x2="269.724" y2="188.295" gradientUnits="userSpaceOnUse">
<stop offset="0.075" stop-color="#F3F3F5"/>
<stop offset="1" stop-color="#ECECEC"/>
</linearGradient>
<linearGradient id="paint5_linear_616_422" x1="269.724" y1="9.70996" x2="269.724" y2="188.295" gradientUnits="userSpaceOnUse">
<stop offset="0.075" stop-color="#F3F3F5"/>
<stop offset="1" stop-color="#ECECEC"/>
</linearGradient>
<linearGradient id="paint6_linear_616_422" x1="269.724" y1="9.70996" x2="269.724" y2="188.295" gradientUnits="userSpaceOnUse">
<stop offset="0.075" stop-color="#F3F3F5"/>
<stop offset="1" stop-color="#ECECEC"/>
</linearGradient>
<linearGradient id="paint7_linear_616_422" x1="269.724" y1="9.70996" x2="269.724" y2="188.295" gradientUnits="userSpaceOnUse">
<stop offset="0.075" stop-color="#F3F3F5"/>
<stop offset="1" stop-color="#ECECEC"/>
</linearGradient>
<linearGradient id="paint8_linear_616_422" x1="269.724" y1="9.70996" x2="269.724" y2="188.295" gradientUnits="userSpaceOnUse">
<stop offset="0.075" stop-color="#F3F3F5"/>
<stop offset="1" stop-color="#ECECEC"/>
</linearGradient>
<linearGradient id="paint9_linear_616_422" x1="269.724" y1="9.70996" x2="269.724" y2="188.295" gradientUnits="userSpaceOnUse">
<stop offset="0.075" stop-color="#F3F3F5"/>
<stop offset="1" stop-color="#ECECEC"/>
</linearGradient>
<linearGradient id="paint10_linear_616_422" x1="269.724" y1="9.70996" x2="269.724" y2="188.295" gradientUnits="userSpaceOnUse">
<stop offset="0.075" stop-color="#F3F3F5"/>
<stop offset="1" stop-color="#ECECEC"/>
</linearGradient>
<linearGradient id="paint11_linear_616_422" x1="269.724" y1="9.70996" x2="269.724" y2="188.295" gradientUnits="userSpaceOnUse">
<stop offset="0.075" stop-color="#F3F3F5"/>
<stop offset="1" stop-color="#ECECEC"/>
</linearGradient>
<linearGradient id="paint12_linear_616_422" x1="269.724" y1="9.70996" x2="269.724" y2="188.295" gradientUnits="userSpaceOnUse">
<stop offset="0.075" stop-color="#F3F3F5"/>
<stop offset="1" stop-color="#ECECEC"/>
</linearGradient>
<linearGradient id="paint13_linear_616_422" x1="269.724" y1="9.70996" x2="269.724" y2="188.295" gradientUnits="userSpaceOnUse">
<stop offset="0.075" stop-color="#F3F3F5"/>
<stop offset="1" stop-color="#ECECEC"/>
</linearGradient>
<linearGradient id="paint14_linear_616_422" x1="269.724" y1="9.70996" x2="269.724" y2="188.295" gradientUnits="userSpaceOnUse">
<stop offset="0.075" stop-color="#F3F3F5"/>
<stop offset="1" stop-color="#ECECEC"/>
</linearGradient>
<linearGradient id="paint15_linear_616_422" x1="269.724" y1="9.70996" x2="269.724" y2="188.295" gradientUnits="userSpaceOnUse">
<stop offset="0.075" stop-color="#F3F3F5"/>
<stop offset="1" stop-color="#ECECEC"/>
</linearGradient>
</defs>
</svg>
