<svg width="2399" height="1634" viewBox="0 0 2399 1634" fill="none" xmlns="http://www.w3.org/2000/svg">
<path d="M930.048 308.026C941.815 335.005 1001.72 441.14 1003.67 440.632C1005.63 440.125 952.402 334.323 940.334 308.661C932.643 292.308 924.216 275.897 922.247 277.13C920.277 278.363 918.281 281.048 930.048 308.026Z" fill="#2D2E38"/>
<path d="M1563.19 269.03C1544 291.348 1474.43 391.406 1475.73 392.948C1477.04 394.49 1549.22 300.588 1567.09 278.571C1578.48 264.54 1589.6 249.821 1587.63 248.583C1585.67 247.344 1582.38 246.712 1563.19 269.03Z" fill="#2D2E38"/>
<path d="M1318.09 316.656C1307.11 362.153 1281.59 553.13 1284.62 554.193C1287.66 555.257 1321.52 370.593 1330.82 326.545C1336.75 298.475 1341.78 269.681 1338.03 269.551C1334.27 269.422 1329.06 271.159 1318.09 316.656Z" fill="#2D2E38"/>
<path d="M1920.19 278.704C1851.75 322.392 1587.91 531.532 1590.06 536.676C1592.22 541.82 1857.81 351.098 1922.57 307.144C1963.83 279.134 2004.96 249.085 2000.84 244.213C1996.71 239.342 1988.64 235.016 1920.19 278.704Z" fill="#2D2E38"/>
<path d="M1702.5 517.884C1664.96 537.224 1522.03 631.229 1523.49 633.735C1524.96 636.24 1669.7 551.071 1705.11 531.522C1727.67 519.064 1750.06 505.63 1747.47 503.211C1744.88 500.792 1740.04 498.545 1702.5 517.884Z" fill="#2D2E38"/>
<path d="M418.357 698.338C470.685 708.954 689.815 730.183 690.954 726.697C692.093 723.21 479.975 692.262 429.347 683.486C397.083 677.893 364.015 673.349 363.962 677.618C363.909 681.888 366.029 687.722 418.357 698.338Z" fill="#2D2E38"/>
<path d="M352.703 1154.77C390.663 1144.6 540.891 1086.9 540.319 1084.26C539.748 1081.62 390.416 1130.71 354.251 1141.53C331.204 1148.42 308.029 1156.25 309.601 1159.05C311.172 1161.84 314.742 1164.94 352.703 1154.77Z" fill="#2D2E38"/>
<path d="M761.928 1015.63C787.402 1006.23 889.203 956.567 888.977 954.716C888.751 952.865 788.025 996.331 763.692 1006.09C748.185 1012.31 732.541 1019.21 733.414 1021.11C734.287 1023.02 736.453 1025.03 761.928 1015.63Z" fill="#2D2E38"/>
<path d="M620.611 950.159C652.824 944.905 779.017 910.278 778.325 908.143C777.633 906.008 651.581 933.875 620.974 939.771C601.469 943.529 581.924 948.026 583.495 950.357C585.067 952.689 588.397 955.413 620.611 950.159Z" fill="#2D2E38"/>
<path d="M652.093 677.29C707.47 685.669 930.72 743.626 930.541 747.469C930.363 751.313 710.384 705.45 657.362 695.872C623.573 689.769 589.384 682.342 590.922 678.119C592.459 673.895 596.715 668.912 652.093 677.29Z" fill="#2D2E38"/>
<path d="M564.154 322.564C594.483 347.556 728.71 436.33 730.526 434.331C732.342 432.333 605.643 339.289 575.835 316.131C556.839 301.373 537 287.06 535.638 289.962C534.276 292.864 533.825 297.572 564.154 322.564Z" fill="#2D2E38"/>
<path d="M1906.47 1108.58C1832.11 1070.79 1515.52 950.061 1513.06 955.241C1510.61 960.421 1814.73 1094.08 1887 1128.22C1933.06 1149.98 1980.54 1170.37 1981.57 1163.5C1982.61 1156.62 1980.82 1146.37 1906.47 1108.58Z" fill="#2D2E38"/>
<path d="M1718.24 1238.33C1689.82 1211.19 1562.41 1112.88 1560.46 1114.74C1558.5 1116.6 1678.08 1218.63 1706.12 1243.89C1723.99 1260 1742.74 1275.72 1744.31 1272.92C1745.88 1270.13 1746.67 1265.47 1718.24 1238.33Z" fill="#2D2E38"/>
<path d="M1317.8 1267.57C1310.05 1229.04 1261.95 1075.47 1259.28 1075.87C1256.61 1076.28 1296.17 1228.41 1304.68 1265.19C1310.11 1288.62 1316.46 1312.24 1319.35 1310.85C1322.24 1309.46 1325.56 1306.09 1317.8 1267.57Z" fill="#2D2E38"/>
<path d="M621.843 1355.46C653.294 1331.9 771.273 1222.45 769.761 1220.21C768.248 1217.98 647.899 1319.1 618.352 1342.59C599.523 1357.56 580.927 1373.46 583.425 1375.46C585.923 1377.47 590.392 1379.03 621.843 1355.46Z" fill="#2D2E38"/>
<path d="M739.839 1354.09C787.852 1310.17 969.083 1107.67 966.954 1103.75C964.826 1099.82 780.517 1287.52 735.34 1331.21C706.55 1359.05 678.057 1388.54 681.662 1392C685.267 1395.47 691.826 1398.01 739.839 1354.09Z" fill="#2D2E38"/>
<path d="M2041.42 741.171C1970.81 753.128 1678.12 771.541 1677.06 766.734C1676.01 761.927 1960.68 729.932 2028.81 720.401C2072.22 714.327 2116.56 709.722 2116.08 715.543C2115.6 721.364 2112.04 729.215 2041.42 741.171Z" fill="#2D2E38"/>
<path d="M2059.1 974.869C2013.63 971.982 1834.27 941.32 1835.04 938.285C1835.82 935.249 2014.38 956.616 2057.66 960.605C2085.24 963.147 2112.95 966.702 2110.96 970.127C2108.97 973.552 2104.56 977.756 2059.1 974.869Z" fill="#2D2E38"/>
</svg>
