<svg width="2399" height="1634" viewBox="0 0 2399 1634" fill="none" xmlns="http://www.w3.org/2000/svg">
<path d="M1678.46 281.27C1625.73 329.729 1431.75 549.682 1434.9 553.463C1438.05 557.244 1637.85 351.951 1687.14 303.971C1718.55 273.395 1749.38 241.186 1744.48 237.998C1739.59 234.811 1731.2 232.812 1678.46 281.27Z" fill="#2D2E38"/>
<path d="M1965.43 458.317C1896.11 485.177 1633.2 620.456 1636.07 624.69C1638.93 628.924 1905.67 508.18 1970.97 480.725C2012.59 463.228 2053.84 444.129 2048.87 439.901C2043.91 435.673 2034.74 431.456 1965.43 458.317Z" fill="#2D2E38"/>
<path d="M458.4 1249.96C519.962 1220.8 750.66 1080.14 747.663 1076.54C744.666 1072.94 509.218 1200.8 451.4 1230.21C414.554 1248.95 378.176 1269.1 383.107 1272.55C388.038 1275.99 396.838 1279.13 458.4 1249.96Z" fill="#2D2E38"/>
<path d="M485.804 433.108C545.86 473.37 801.612 608.024 803.602 603.467C805.591 598.91 559.929 453.368 501.55 416.599C464.346 393.167 425.997 370.888 425.151 377.102C424.305 383.317 425.747 392.847 485.804 433.108Z" fill="#2D2E38"/>
<path d="M413.61 1025.16C445.824 1019.9 572.016 985.278 571.324 983.143C570.633 981.008 444.581 1008.88 413.974 1014.77C394.469 1018.53 374.924 1023.03 376.495 1025.36C378.066 1027.69 381.397 1030.41 413.61 1025.16Z" fill="#2D2E38"/>
<path d="M373.685 909.849C443.805 897.757 728.793 879.314 728.937 884.204C729.08 889.095 449.341 921.361 382.055 930.99C339.176 937.126 295.671 941.767 297.193 935.846C298.714 929.924 303.566 921.942 373.685 909.849Z" fill="#2D2E38"/>
<path d="M834.728 373.225C859.029 408.37 965.669 534.309 966.979 531.675C968.289 529.042 867.244 397.626 843.419 364.989C828.236 344.19 812.424 323.96 811.501 327.837C810.577 331.715 810.427 338.08 834.728 373.225Z" fill="#2D2E38"/>
<path d="M1983.21 1299.39C1917.15 1248.48 1628.43 1071.15 1625.06 1075.79C1621.68 1080.42 1895.76 1268.14 1960.45 1315.09C2001.67 1345.01 2044.55 1373.84 2046.84 1367.28C2049.14 1360.72 2049.27 1350.31 1983.21 1299.39Z" fill="#2D2E38"/>
<path d="M1604.7 1260.58C1568.1 1218.63 1399.09 1060.48 1395.77 1062.37C1392.45 1064.27 1548.99 1225.21 1585.41 1264.68C1608.62 1289.83 1633.22 1314.7 1636.16 1311.51C1639.11 1308.32 1641.29 1302.54 1604.7 1260.58Z" fill="#2D2E38"/>
<path d="M1290.82 1420.91C1286.97 1365.37 1247.71 1137.25 1243.92 1136.76C1240.13 1136.26 1267.76 1359.08 1272.97 1412.53C1276.29 1446.59 1280.88 1481.27 1285.15 1480.51C1289.43 1479.74 1294.66 1476.45 1290.82 1420.91Z" fill="#2D2E38"/>
<path d="M813.35 1158.07C844.802 1134.5 962.781 1025.06 961.268 1022.82C959.755 1020.58 839.406 1121.7 809.86 1145.2C791.031 1160.17 772.435 1176.06 774.933 1178.07C777.43 1180.08 781.899 1181.63 813.35 1158.07Z" fill="#2D2E38"/>
<path d="M1737.1 913.294C1691.63 910.406 1512.27 879.745 1513.04 876.709C1513.82 873.674 1692.38 895.041 1735.66 899.03C1763.24 901.571 1790.95 905.127 1788.96 908.552C1786.97 911.977 1782.56 916.181 1737.1 913.294Z" fill="#2D2E38"/>
</svg>
