<svg width="2399" height="1634" viewBox="0 0 2399 1634" fill="none" xmlns="http://www.w3.org/2000/svg">
<path d="M2103.66 1281.29C2028.53 1230.55 1695.98 1070.78 1691.48 1078.11C1686.97 1085.44 2000.85 1263.69 2074.69 1309.39C2121.75 1338.52 2170.9 1365.67 2174.28 1356.01C2177.66 1346.35 2178.78 1332.03 2103.66 1281.29Z" fill="#2D2E38"/>
<path d="M1869.04 1459.34C1815.05 1399.84 1562.98 1178.79 1557.64 1182C1552.3 1185.21 1784.66 1411.78 1838.56 1467.55C1872.91 1503.08 1909.45 1538.06 1914.3 1532.94C1919.15 1527.81 1923.02 1518.85 1869.04 1459.34Z" fill="#2D2E38"/>
<path d="M958.556 1409.52C993.94 1347.67 1101.94 1076.85 1096.28 1073.61C1090.62 1070.37 968.093 1327.24 936.443 1387.84C916.274 1426.46 897.658 1466.65 905.024 1468.89C912.391 1471.13 923.172 1471.37 958.556 1409.52Z" fill="#2D2E38"/>
<path d="M378.079 1219.39C445.581 1196.56 706.023 1065.49 703.934 1059.32C701.846 1053.14 439.785 1164.13 375.905 1188.5C335.197 1204.03 294.612 1221.76 298.64 1228.32C302.668 1234.89 310.576 1242.22 378.079 1219.39Z" fill="#2D2E38"/>
<path d="M357.638 766.52C428.107 777.093 719.66 779.647 720.627 773.199C721.594 766.751 437.785 745.601 369.833 738.056C326.53 733.248 282.328 730.455 282.909 738.133C283.49 745.81 287.169 755.947 357.638 766.52Z" fill="#2D2E38"/>
<path d="M263.309 540.675C329.256 567.669 611.873 639.34 614.343 633.306C616.813 627.272 346.13 539.373 281.91 515.918C240.985 500.97 198.709 487.768 197.452 495.364C196.194 502.96 197.363 513.68 263.309 540.675Z" fill="#2D2E38"/>
<path d="M251.075 352.253C309.601 392.902 569.96 524.139 573.679 518.784C577.398 513.428 332.209 368.938 274.601 332.118C237.89 308.654 199.482 286.6 196.607 293.743C193.733 300.886 192.549 311.604 251.075 352.253Z" fill="#2D2E38"/>
<path d="M820.087 259.297C854.046 321.942 1027.44 556.34 1033.18 553.233C1038.91 550.126 885.022 310.722 850.159 251.909C827.942 214.43 803.575 177.446 797.792 182.53C792.01 187.614 786.128 196.652 820.087 259.297Z" fill="#2D2E38"/>
<path d="M1241.47 252.414C1226.72 322.128 1206.8 613.01 1213.18 614.36C1219.55 615.71 1257.58 333.665 1269.16 266.283C1276.53 223.343 1281.96 179.386 1274.26 179.509C1266.56 179.632 1256.22 182.701 1241.47 252.414Z" fill="#2D2E38"/>
<path d="M989.313 159.016C1001.53 229.218 1091.16 506.663 1097.59 505.545C1104.01 504.427 1034.47 228.457 1020.17 161.6C1011.06 118.993 999.754 76.171 992.653 79.1466C985.551 82.1223 977.095 88.8138 989.313 159.016Z" fill="#2D2E38"/>
<path d="M582.164 284.941C629.918 337.829 853.632 524.809 858.471 520.44C863.311 516.07 657.381 319.631 609.65 270.68C579.233 239.486 546.843 209.279 542.42 215.582C537.998 221.885 534.409 232.053 582.164 284.941Z" fill="#2D2E38"/>
<path d="M1415.49 229.158C1396.41 277.436 1345.51 484.544 1349.74 486.386C1353.96 488.227 1416.23 289.957 1432.83 242.929C1443.41 212.96 1452.76 181.991 1447.43 181.032C1442.1 180.073 1434.58 180.88 1415.49 229.158Z" fill="#2D2E38"/>
<path d="M1762.55 295.458C1722.09 327.982 1575.43 482.82 1578.19 486.512C1580.96 490.205 1733.13 348.667 1770.81 316.001C1794.82 295.183 1818.27 272.893 1814.11 269.424C1809.96 265.956 1803.02 262.935 1762.55 295.458Z" fill="#2D2E38"/>
<path d="M2035.44 517.698C1984.71 528.709 1784.31 601.679 1785.14 606.218C1785.96 610.757 1985.34 552.146 2033.65 539.764C2064.44 531.874 2095.37 522.412 2093.2 517.451C2091.04 512.49 2086.18 506.686 2035.44 517.698Z" fill="#2D2E38"/>
<path d="M2044.31 650.817C1992.62 655.596 1784.85 703.729 1785.12 708.335C1785.38 712.94 1990.4 678.936 2039.85 672.503C2071.37 668.403 2103.22 662.762 2101.67 657.575C2100.12 652.388 2096 646.038 2044.31 650.817Z" fill="#2D2E38"/>
<path d="M1877.1 796.013C1825.3 792.614 1612.55 807.517 1612.09 812.108C1611.63 816.698 1819.44 815.316 1869.29 816.73C1901.06 817.631 1933.41 817.064 1932.69 811.697C1931.97 806.331 1928.9 799.413 1877.1 796.013Z" fill="#2D2E38"/>
</svg>
