<svg width="87" height="88" viewBox="0 0 87 88" fill="none" xmlns="http://www.w3.org/2000/svg">
<path d="M31.936 7.184C28.672 7.184 21.376 9.10399 19.456 10.256C19.456 11.5702 19.4565 12.8596 19.4576 14.1248C22.4855 12.0448 25.8875 10.1607 29.0473 8.74708C30.1368 8.25965 31.1986 7.9082 32.3115 7.6548C32.1985 7.38331 32.0672 7.184 31.936 7.184Z" fill="#2D2E38"/>
<path fill-rule="evenodd" clip-rule="evenodd" d="M12.1906 20.5752C8.0376 25.9672 7 33.8755 7 44.0001C7 49.3999 7.22675 53.4194 8.51127 56.8946C10.9134 63.3934 15.2133 69.6194 20.2871 73.7541C19.9247 65.889 19.4874 49.4707 19.4576 14.1248C16.4766 16.1725 13.8582 18.41 12.1906 20.5752ZM31.7513 79.247C31.9952 79.3215 32.2428 79.3963 32.4943 79.4715C35.8139 80.4645 39.3368 81 42.9963 81C47.9029 81 51.5327 80.3019 55.4092 78.6639C54.7665 78.355 54.2681 77.9602 54.016 77.456C54.016 75.92 53.824 74.864 53.44 73.712C52.5283 70.6889 51.6525 67.7198 50.7768 64.7508L50.7765 64.7498L50.776 64.7481C48.148 55.838 45.52 46.928 41.92 36.56C40.3657 37.8552 38.6996 39.3182 36.9972 40.8131C35.545 42.0882 34.0663 43.3866 32.608 44.624V46.448C32.608 51.2887 32.6744 55.9745 32.7435 60.8455C32.8182 66.1175 32.896 71.6066 32.896 77.744C32.896 78.3913 32.6288 78.9495 31.7513 79.247ZM68.1495 69.7179C67.4951 70.3789 66.7966 71.0434 66.0696 71.6957C64.5652 66.6636 61.9696 58.7729 58.3125 47.6549L58.3119 47.6531C56.4498 41.9922 54.3126 35.4948 51.904 28.112C54.5892 25.7771 57.8423 22.4838 61.2532 19.0307C62.8545 17.4096 64.4906 15.7533 66.119 14.1445C69.0845 16.4793 71.7177 19.2352 73.7708 22.2279C75.9732 25.4383 77.7752 28.5579 78.7832 31.6402C79.8041 34.7618 80 39.0985 80 44.0001C80 49.0102 78.7943 53.9179 76.8255 58.5452C75.2234 62.3109 72.1258 65.7018 68.1495 69.7179ZM58.7309 9.64804C54.2841 7.78982 48.9886 7.00024 42.9963 7.00024C38.2604 7.00024 35.1227 7.01475 32.3115 7.6548C32.4466 7.97913 32.5557 8.40645 32.608 8.72C32.608 8.72 32.8 11.6 32.8 15.344C32.704 18.704 32.608 25.712 32.608 33.296C39.6026 27.3177 44.922 21.935 49.4006 17.4031C52.1137 14.6576 54.5183 12.2244 56.8 10.16C57.4134 9.97597 58.0617 9.80501 58.7309 9.64804Z" fill="#FEFEFE"/>
<path fill-rule="evenodd" clip-rule="evenodd" d="M6.64488 16.3038C0.915 23.7431 0 33.8642 0 44.0001C0 49.3883 0.181895 54.5503 1.94542 59.3215C4.876 67.2501 10.2411 74.9316 16.8379 79.9464C20.9562 83.0772 25.4168 84.6609 30.4883 86.1779C34.4515 87.3634 38.6499 88 42.9963 88C50.0978 88 55.2712 86.695 61.2022 83.6786C65.4 81.5436 69.8381 77.9616 73.1239 74.6429C77.01 70.7178 81.0685 66.4525 83.2668 61.2858C85.5245 55.9794 87 50.1364 87 44.0001C87 39.1983 86.8512 33.7904 85.4365 29.4644C84.1222 25.4456 81.8854 21.6823 79.5431 18.268C75.8979 12.9545 70.8358 8.37839 65.2762 5.10737C58.793 1.29298 51.051 0.000244538 42.9963 0.000244538C42.8134 0.000244538 42.6315 0.000182705 42.4507 0.000121224C36.3725 -0.00194552 31.466 -0.00361395 26.1886 2.35738C19.5282 5.33712 11.0544 10.5788 6.64488 16.3038ZM7 44.0001C7 33.8755 8.0376 25.9672 12.1906 20.5752C13.8582 18.41 16.4766 16.1725 19.4576 14.1248C19.4565 12.8596 19.456 11.5702 19.456 10.256C21.376 9.10399 28.672 7.184 31.936 7.184C32.0672 7.184 32.1985 7.38331 32.3115 7.6548C35.1227 7.01475 38.2604 7.00024 42.9963 7.00024C48.9886 7.00024 54.2841 7.78982 58.7309 9.64804C61.2035 9.06805 63.9619 8.6791 66.304 8.528C68.32 8.432 70.144 9.68 67.936 12.368C67.3329 12.9507 66.7264 13.5443 66.119 14.1445C69.0845 16.4793 71.7177 19.2352 73.7708 22.2279C75.9732 25.4383 77.7752 28.5579 78.7832 31.6402C79.8041 34.7618 80 39.0985 80 44.0001C80 49.0102 78.7943 53.9179 76.8255 58.5452C75.2234 62.3109 72.1258 65.7018 68.1495 69.7179C67.4951 70.3789 66.7966 71.0434 66.0696 71.6957C66.6079 73.4961 67.0064 74.9306 67.264 76.016C67.456 77.168 67.648 78.416 67.264 79.184C66.88 79.76 64.96 79.76 62.656 79.76C60.9752 79.76 57.4585 79.6487 55.4092 78.6639C51.5327 80.3019 47.9029 81 42.9963 81C39.3368 81 35.8139 80.4645 32.4943 79.4715C32.2428 79.3963 31.9952 79.3215 31.7513 79.247C31.7307 79.254 31.7097 79.2609 31.6883 79.2676L31.648 79.28C28.48 80.048 25.216 80.144 21.952 79.376C21.184 79.184 20.608 78.608 20.512 77.84C20.4442 76.8237 20.3675 75.4995 20.2871 73.7541C15.2133 69.6194 10.9134 63.3934 8.51127 56.8946C7.22675 53.4194 7 49.3999 7 44.0001Z" fill="#2D2E38"/>
<path d="M53.44 73.712C53.824 74.864 54.016 75.92 54.016 77.456C54.2681 77.9602 54.7665 78.355 55.4092 78.6639C56.265 78.3023 57.1327 77.8949 58.0289 77.4392C60.6171 76.1229 63.5191 73.9841 66.0696 71.6957C64.5652 66.6636 61.9696 58.7729 58.3125 47.6549L58.3119 47.6531C56.4498 41.9922 54.3126 35.4948 51.904 28.112C54.5892 25.7771 57.8423 22.4838 61.2532 19.0307C62.8545 17.4096 64.4906 15.7533 66.119 14.1445C64.7201 13.0431 63.2472 12.0353 61.7265 11.1406C60.7762 10.5815 59.7771 10.0852 58.7309 9.64804C58.0617 9.80501 57.4134 9.97597 56.8 10.16C54.5183 12.2244 52.1137 14.6576 49.4006 17.4031C44.922 21.935 39.6026 27.3177 32.608 33.296C32.608 25.712 32.704 18.704 32.8 15.344C32.8 11.6 32.608 8.72 32.608 8.72C32.5557 8.40645 32.4466 7.97913 32.3115 7.6548C31.1986 7.9082 30.1368 8.25965 29.0473 8.74708C25.8875 10.1607 22.4855 12.0448 19.4576 14.1248C19.4874 49.4707 19.9247 65.889 20.2871 73.7541C20.5475 73.9663 20.8099 74.1729 21.0742 74.3738C23.9748 76.5789 27.2093 77.8599 31.7513 79.247C32.6288 78.9495 32.896 78.3913 32.896 77.744C32.896 71.6066 32.8182 66.1175 32.7435 60.8455C32.6744 55.9745 32.608 51.2887 32.608 46.448V44.624C34.0663 43.3866 35.545 42.0882 36.9972 40.8131C38.6996 39.3182 40.3657 37.8552 41.92 36.56C45.52 46.928 48.148 55.838 50.776 64.7481L50.7765 64.7498L50.7768 64.7508C51.6525 67.7198 52.5283 70.6889 53.44 73.712Z" fill="#2D2E38"/>
<path d="M67.264 79.184C67.648 78.416 67.456 77.168 67.264 76.016C67.0064 74.9306 66.6079 73.4961 66.0696 71.6957C63.5191 73.9841 60.6171 76.1229 58.0289 77.4392C57.1327 77.8949 56.265 78.3023 55.4092 78.6639C57.4585 79.6487 60.9752 79.76 62.656 79.76C64.96 79.76 66.88 79.76 67.264 79.184Z" fill="#2D2E38"/>
<path d="M21.952 79.376C25.216 80.144 28.48 80.048 31.648 79.28L31.6883 79.2676C31.7097 79.2609 31.7307 79.254 31.7513 79.247C27.2093 77.8599 23.9748 76.5789 21.0742 74.3738C20.8099 74.1729 20.5475 73.9663 20.2871 73.7541C20.3675 75.4995 20.4442 76.8237 20.512 77.84C20.608 78.608 21.184 79.184 21.952 79.376Z" fill="#2D2E38"/>
<path d="M67.936 12.368C70.144 9.68 68.32 8.432 66.304 8.528C63.9619 8.6791 61.2035 9.06805 58.7309 9.64804C59.7771 10.0852 60.7762 10.5815 61.7265 11.1406C63.2472 12.0353 64.7201 13.0431 66.119 14.1445C66.7264 13.5443 67.3329 12.9507 67.936 12.368Z" fill="#2D2E38"/>
</svg>
